<svg xmlns="http://www.w3.org/2000/svg" xmlns:xlink="http://www.w3.org/1999/xlink" viewBox="316.7 313.1 398.7 405" enable-background="new 316.7 313.1 398.7 405"><defs><use id="15" xlink:href="#2C"/><use id="16" xlink:href="#2C"/><use id="17" xlink:href="#2C"/><use id="18" xlink:href="#2C"/><use id="19" xlink:href="#2C"/><use id="1A" xlink:href="#2C"/><use id="1B" xlink:href="#2C"/><use id="1C" xlink:href="#2C"/><use id="1D" xlink:href="#2C"/><use id="1E" xlink:href="#2C"/><use id="1F" xlink:href="#2C"/><use id="1G" xlink:href="#2C"/><use id="1H" xlink:href="#2C"/><use id="1I" xlink:href="#2C"/><use id="1J" xlink:href="#2C"/><use id="1K" xlink:href="#2C"/><use id="1L" xlink:href="#2C"/><use id="1M" xlink:href="#2C"/><use id="1N" xlink:href="#2C"/><use id="1O" xlink:href="#2C"/><use id="1P" xlink:href="#2C"/><use id="1Q" xlink:href="#2C"/><use id="1R" xlink:href="#2C"/><use id="1S" xlink:href="#2C"/><use id="1T" xlink:href="#2C"/><use id="1U" xlink:href="#2C"/><use id="1V" xlink:href="#2C"/><use id="1W" xlink:href="#2C"/><use id="1X" xlink:href="#2C"/><use id="1Y" xlink:href="#2C"/><use id="1Z" xlink:href="#2C"/><use id="1a" xlink:href="#2C"/><use id="1b" xlink:href="#2C"/><use id="1c" xlink:href="#2C"/><use id="1d" xlink:href="#2C"/><use id="1e" xlink:href="#2C"/><use id="1f" xlink:href="#2C"/><use id="1g" xlink:href="#2C"/><use id="1h" xlink:href="#2C"/><use id="1i" xlink:href="#2C"/><use id="1j" xlink:href="#2C"/><use id="1k" xlink:href="#2C"/><use id="1l" xlink:href="#2C"/><use id="1m" xlink:href="#2C"/><use id="1n" xlink:href="#2C"/><use id="1o" xlink:href="#2C"/><use id="1p" xlink:href="#2C"/><use id="1q" xlink:href="#2C"/><use id="1r" xlink:href="#2C"/><use id="1s" xlink:href="#2C"/><use id="1t" xlink:href="#2C"/><use id="1u" xlink:href="#2C"/><use id="1v" xlink:href="#2C"/><use id="1w" xlink:href="#2C"/><use id="1x" xlink:href="#2C"/><use id="1y" xlink:href="#2C"/><use id="1z" xlink:href="#2C"/><use id="20" xlink:href="#2C"/><use id="21" xlink:href="#2C"/><use id="22" xlink:href="#2C"/><use id="23" xlink:href="#2C"/><use id="24" xlink:href="#2C"/><use id="25" xlink:href="#2C"/><use id="26" xlink:href="#2C"/><use id="27" xlink:href="#2C"/><use id="28" xlink:href="#2C"/><use id="29" xlink:href="#2C"/><use id="2A" xlink:href="#2C"/><use id="2B" xlink:href="#2C"/><path id="2C" d="m400.7 350.5c89.8-64.7 214.2-43.2 277.9 48 63.7 91.2 42.5 217.6-47.3 282.3-89.8 64.7-214.2 43.2-277.9-48-63.6-91.3-42.5-217.6 47.3-282.3"/><clipPath id="g"><use xlink:href="#1n"/></clipPath><clipPath id="h"><use xlink:href="#1o"/></clipPath><clipPath id="14"><use xlink:href="#2B"/></clipPath><clipPath id="i"><use xlink:href="#1p"/></clipPath><clipPath id="k"><use xlink:href="#1r"/></clipPath><clipPath id="l"><use xlink:href="#1s"/></clipPath><clipPath id="j"><use xlink:href="#1q"/></clipPath><clipPath id="f"><use xlink:href="#1m"/></clipPath><clipPath id="X"><use xlink:href="#1e"/></clipPath><clipPath id="Y"><use xlink:href="#1f"/></clipPath><clipPath id="e"><use xlink:href="#1l"/></clipPath><clipPath id="Z"><use xlink:href="#1g"/></clipPath><clipPath id="a"><use xlink:href="#1h"/></clipPath><clipPath id="d"><use xlink:href="#1k"/></clipPath><clipPath id="b"><use xlink:href="#1i"/></clipPath><clipPath id="c"><use xlink:href="#1j"/></clipPath><clipPath id="m"><use xlink:href="#1t"/></clipPath><clipPath id="x"><use xlink:href="#24"/></clipPath><clipPath id="y"><use xlink:href="#25"/></clipPath><clipPath id="n"><use xlink:href="#1u"/></clipPath><clipPath id="z"><use xlink:href="#26"/></clipPath><clipPath id="10"><use xlink:href="#27"/></clipPath><clipPath id="13"><use xlink:href="#2A"/></clipPath><clipPath id="11"><use xlink:href="#28"/></clipPath><clipPath id="12"><use xlink:href="#29"/></clipPath><clipPath id="w"><use xlink:href="#23"/></clipPath><clipPath id="o"><use xlink:href="#1v"/></clipPath><clipPath id="p"><use xlink:href="#1w"/></clipPath><clipPath id="v"><use xlink:href="#22"/></clipPath><clipPath id="q"><use xlink:href="#1x"/></clipPath><clipPath id="r"><use xlink:href="#1y"/></clipPath><clipPath id="u"><use xlink:href="#21"/></clipPath><clipPath id="s"><use xlink:href="#1z"/></clipPath><clipPath id="t"><use xlink:href="#20"/></clipPath><clipPath id="W"><use xlink:href="#1d"/></clipPath><clipPath id="8"><use xlink:href="#1E"/></clipPath><clipPath id="9"><use xlink:href="#1F"/></clipPath><clipPath id="V"><use xlink:href="#1c"/></clipPath><clipPath id="A"><use xlink:href="#1G"/></clipPath><clipPath id="C"><use xlink:href="#1I"/></clipPath><clipPath id="D"><use xlink:href="#1J"/></clipPath><clipPath id="B"><use xlink:href="#1H"/></clipPath><clipPath><use xlink:href="#1D"/></clipPath><clipPath id="0"><use xlink:href="#15"/></clipPath><clipPath id="1"><use xlink:href="#16"/></clipPath><clipPath id="7"><use xlink:href="#1C"/></clipPath><clipPath id="2"><use xlink:href="#17"/></clipPath><clipPath id="3"><use xlink:href="#18"/></clipPath><clipPath id="6"><use xlink:href="#1B"/></clipPath><clipPath id="4"><use xlink:href="#19"/></clipPath><clipPath id="5"><use xlink:href="#1A"/></clipPath><clipPath id="E"><use xlink:href="#1K"/></clipPath><clipPath id="O"><use xlink:href="#1V"/></clipPath><clipPath id="P"><use xlink:href="#1W"/></clipPath><clipPath id="F"><use xlink:href="#1L"/></clipPath><clipPath id="Q"><use xlink:href="#1X"/></clipPath><clipPath id="R"><use xlink:href="#1Y"/></clipPath><clipPath id="U"><use xlink:href="#1b"/></clipPath><clipPath id="S"><use xlink:href="#1Z"/></clipPath><clipPath id="T"><use xlink:href="#1a"/></clipPath><clipPath id="N"><use xlink:href="#1U"/></clipPath><clipPath id="G"><use xlink:href="#1M"/></clipPath><clipPath id="H"><use xlink:href="#1N"/></clipPath><clipPath id="M"><use xlink:href="#1T"/></clipPath><clipPath id="I"><use xlink:href="#1O"/></clipPath><clipPath id="J"><use xlink:href="#1P"/></clipPath><clipPath id="L"><use xlink:href="#1S"/></clipPath><clipPath id="K"><use xlink:href="#1Q"/></clipPath><clipPath><use xlink:href="#1R"/></clipPath></defs><use clip-path="url(#0)" fill="#9cbbe2" xlink:href="#2C"/><path clip-path="url(#1)" fill="#bbc8e6" d="m728.1 507.9l-29.6 52.9-.8-45.2z"/><path clip-path="url(#4)" fill="#292f32" d="m328.8 402.4l222.8-112.8-17.9 80.4z"/><g clip-path="url(#6)"><path fill="#0b132d" d="m636.9 412.8c.9 0 2-1.3.7-1.3-.9 0-2 1.3-.7 1.3"/></g><path clip-path="url(#7)" fill="#0d1321" d="m533.7 370l17.9-80.4 153.4 115.2z"/><path clip-path="url(#8)" fill="#c7efff" d="m410.1 579.4l-80.7-178 204.9-32.4z"/><path clip-path="url(#9)" fill="#546f96" d="m325.1 622l85-42.6-80.7-178z"/><path clip-path="url(#A)" fill="#8cacda" d="m410.1 579.4l245.1-1.6-136.5 160.2z"/><path clip-path="url(#C)" fill="#d1e3f4" d="m655.2 577.8l-113.7.8-131.4.8 124.2-210.4 45.7 127z"/><path clip-path="url(#D)" fill="#5c7785" d="m518.7 738l180.9-102.4-44.4-57.8-77 89.2z"/><path clip-path="url(#E)" fill="#40546e" d="m518.7 738l-193.6-116 36.6-19.6 48.4-23z"/><path clip-path="url(#F)" fill="#c4d6ee" d="m329.4 401.4l89.1-83.1 133.7-29.7-17.9 80.4z"/><path clip-path="url(#H)" fill="#b5d5f0" d="m699.6 635.6l-44.4-57.8 50.5-174z"/><g clip-path="url(#I)"><path fill="#0b132d" d="m637.5 411.8c.9 0 2-1.3.7-1.3-.8 0-2 1.3-.7 1.3"/></g><path clip-path="url(#J)" fill="#c4d6ee" d="m655.2 577.8l-75.7-80.9-45.2-127.9 171.4 34.8-16.3 56.1-11.8 50z"/><path clip-path="url(#K)" fill="#def2fc" d="m533.3 369.8l18.9-81.2 153.5 115.2-75.1-10.5z"/><path clip-path="url(#L)" fill="#364154" d="m699.5 636.4l-83.4 70-37.9-39.4z"/><path clip-path="url(#M)" fill="#657f9c" d="m616.1 706.4l-98.3 32.5 60.4-71.9z"/><path clip-path="url(#N)" fill="#d9f6ff" d="m418.4 319.7l115.1 50.5 18.6-80.3z"/><path clip-path="url(#O)" fill="#9cb4d6" d="m483.2 685.8l58.3-107.2-131.4.8z"/><path clip-path="url(#P)" fill="#657f9c" d="m517.8 738.9l-34.6-53.1 26.8-51.2z"/><path clip-path="url(#Q)" fill="#7d9ec8" d="m510 634.6l68.2 32.4-60.4 71.9z"/><path clip-path="url(#R)" fill="#bbc8e6" d="m483.2 685.8l-43.1-22.8-30-83.6z"/><path clip-path="url(#S)" fill="#849dba" d="m483.2 685.8l34.6 53.1-77.7-75.9z"/><path clip-path="url(#T)" fill="#40546e" d="m518.6 739.8l-112.5-50.3 34-26.5z"/><path clip-path="url(#U)" fill="#40546e" d="m325.1 622l81 67.5 12.9-5.7z"/><path clip-path="url(#V)" fill="#849dba" d="m440.1 663l-17.4 25.5-61-86.1z"/><path clip-path="url(#W)" fill="#5c7785" d="m361.7 602.4l-36.6 19.6 97.6 66.5z"/><path clip-path="url(#X)" fill="#40546e" d="m325.1 622l-17.5-111.7 31.9 19.2z"/><path clip-path="url(#Y)" fill="#5d6677" d="m329.1 403.2l-21.7 108 32.1 18.3z"/><path clip-path="url(#Z)" fill="#9cbbe2" d="m707.2 404l-17.8 55.9-9.3-59.9z"/><path clip-path="url(#a)" fill="#849dba" d="m707.2 404l20.9 103.9-25.4 11.9z"/><path clip-path="url(#b)" fill="#b5d5f0" d="m702.7 519.8l-13.3-59.9 17.8-55.9z"/><path clip-path="url(#c)" fill="#def2fc" d="m702.7 519.8l-25.1-9.9 11.8-50z"/><path clip-path="url(#d)" fill="#bbc8e6" d="m707.2 404l-15.2-26.1-14.3 5.8z"/><path clip-path="url(#e)" fill="#5c7785" d="m680.1 400l-2.4-16.3 29.5 20.3z"/><path clip-path="url(#f)" fill="#40546e" d="m699.5 636.4l2.2-82.8 26.4-45.7z"/><path clip-path="url(#g)" fill="#7697c8" d="M677.7 383.7 652 348 692 377.9z"/><path clip-path="url(#h)" fill="#def2fc" d="m552.3 288.5l99.7 59.5-14.7 5.3z"/><path clip-path="url(#i)" fill="#c7efff" d="m677.7 383.7l-47.1 9.6 21.4-45.3z"/><path clip-path="url(#j)" fill="#bbc8e6" d="m637.3 353.3l-6.7 40 21.4-45.3z"/><path clip-path="url(#k)" fill="#def2fc" d="m689.4 459.9l-58.8-66.6 49.5 6.7z"/><path clip-path="url(#l)" fill="#d1e3f4" d="m680.1 400l-2.4-16.3-47.1 9.6z"/><path clip-path="url(#m)" fill="#c7efff" d="m533.7 368.8l-33.2 57 44-27.9z"/><path clip-path="url(#n)" fill="#bdd6ef" d="m500.5 425.8l-82.2-38.5 115.4-18.5z"/><path clip-path="url(#o)" fill="#c4d6ee" d="m329.4 401.4l94.7-24.7 109.6-7.9z"/><path clip-path="url(#p)" fill="#b5d5f0" d="m361.7 602.4l17.9-65.7 4.2-16 26.3 58.7z"/><path clip-path="url(#q)" fill="#7697c8" d="m339.5 529.5l22.2 72.9-36.6 19.6z"/><path clip-path="url(#r)" fill="#bdcfeb" d="m410.1 579.4l-30.5-42.7-17.6-27.1-32.7-109.2z"/><path clip-path="url(#s)" fill="#849dba" d="m362 509.6l17.6 27.1-40.1-7.2z"/><path clip-path="url(#t)" fill="#def2fc" d="m418.5 318.3l5.6 58.4 109.6-7.9z"/><path clip-path="url(#u)" fill="#d9f6ff" d="m579.5 496.9l-169.4 82.5 131.4-.8z"/><path clip-path="url(#v)" fill="#def2fc" d="m545.8 397.4l-45.3 28.4 79 71.1z"/><path clip-path="url(#w)" fill="#9cbbe2" d="m457.2 498.7l-127.9-98.3 80.8 179z"/><path clip-path="url(#x)" fill="#c7efff" d="m579.5 496.9l109.9-37-58.8-66.6z"/><path clip-path="url(#y)" fill="#d1e3f4" d="m533.7 368.8l96.9 24.5-86.1 4.6z"/><path clip-path="url(#z)" fill="#d9f6ff" d="m457.2 498.7l-38.9-111.4 82.2 38.5z"/><path clip-path="url(#10)" fill="#c4d6ee" d="m418.3 387.3l-84.7 28.2 19.7-17.6z"/><path clip-path="url(#11)" fill="#7697c8" d="m510 634.6l-99.9-55.2 73.1 106.4z"/><path clip-path="url(#12)" fill="#84acd6" d="m578.2 667l-36.7-88.4-31.5 56z"/><path clip-path="url(#13)" fill="#def2fc" d="m541.5 578.6l-60.8-34.5-70.6 35.3z"/><path clip-path="url(#14)" fill="#c3dcf2" d="m480.7 544.1l19.8-118.3-43.3 72.9z"/></svg>