<?xml version="1.0" encoding="utf-8"?>
<!-- Generator: Adobe Illustrator 15.0.2, SVG Export Plug-In . SVG Version: 6.00 Build 0)  -->
<!DOCTYPE svg PUBLIC "-//W3C//DTD SVG 1.1//EN" "http://www.w3.org/Graphics/SVG/1.1/DTD/svg11.dtd">
<svg version="1.1" id="Layer_1" xmlns="http://www.w3.org/2000/svg" xmlns:xlink="http://www.w3.org/1999/xlink" x="0px" y="0px"
	 width="433.2px" height="433.2px" viewBox="299.8 299.6 433.2 433.2" enable-background="new 299.8 299.6 433.2 433.2"
	 xml:space="preserve">
<rect x="-35.6" y="-1389.8" display="none" width="4781" height="2764.8"/>
<g id="MG">
	<g>
		<g>
			<defs>
				<circle id="SVGID_1_" cx="516.4" cy="516.2" r="216.6"/>
			</defs>
			<clipPath id="SVGID_2_">
				<use xlink:href="#SVGID_1_"  overflow="visible"/>
			</clipPath>
			<circle clip-path="url(#SVGID_2_)" fill="#536CB2" cx="516.4" cy="516.2" r="216.6"/>
		</g>
		<g>
			<defs>
				<circle id="SVGID_3_" cx="516.4" cy="516.2" r="216.6"/>
			</defs>
			<clipPath id="SVGID_4_">
				<use xlink:href="#SVGID_3_"  overflow="visible"/>
			</clipPath>
			<polygon clip-path="url(#SVGID_4_)" fill="#303C76" points="548,754.1 725.4,621.9 669.8,563.9 601.5,672.6 			"/>
		</g>
		<g>
			<defs>
				<circle id="SVGID_5_" cx="516.4" cy="516.2" r="216.6"/>
			</defs>
			<clipPath id="SVGID_6_">
				<use xlink:href="#SVGID_5_"  overflow="visible"/>
			</clipPath>
			<polygon clip-path="url(#SVGID_6_)" fill="#2A3367" points="725.4,621.9 670.4,567.8 699.7,379.3 722.1,501 			"/>
		</g>
		<g>
			<defs>
				<circle id="SVGID_7_" cx="516.4" cy="516.2" r="216.6"/>
			</defs>
			<clipPath id="SVGID_8_">
				<use xlink:href="#SVGID_7_"  overflow="visible"/>
			</clipPath>
			<polygon clip-path="url(#SVGID_8_)" fill="#292F32" points="300.3,430.9 520.7,281.8 512.9,368.2 			"/>
		</g>
		<g>
			<defs>
				<circle id="SVGID_9_" cx="516.4" cy="516.2" r="216.6"/>
			</defs>
			<clipPath id="SVGID_10_">
				<use xlink:href="#SVGID_9_"  overflow="visible"/>
			</clipPath>
			<polygon clip-path="url(#SVGID_10_)" fill="#6888C5" points="410.5,602.8 300.8,429.8 513.4,367.1 			"/>
		</g>
		<g>
			<defs>
				<circle id="SVGID_11_" cx="516.4" cy="516.2" r="216.6"/>
			</defs>
			<clipPath id="SVGID_12_">
				<use xlink:href="#SVGID_11_"  overflow="visible"/>
			</clipPath>
			<polygon clip-path="url(#SVGID_12_)" fill="#4A63AD" points="326.8,660.4 410.5,602.8 300.8,429.8 			"/>
		</g>
		<g>
			<defs>
				<circle id="SVGID_13_" cx="516.4" cy="516.2" r="216.6"/>
			</defs>
			<clipPath id="SVGID_14_">
				<use xlink:href="#SVGID_13_"  overflow="visible"/>
			</clipPath>
			<polygon clip-path="url(#SVGID_14_)" fill="#506DB3" points="402.8,599.9 670.4,567.8 547.5,755.2 			"/>
		</g>
		<g>
			<defs>
				<circle id="SVGID_15_" cx="516.4" cy="516.2" r="216.6"/>
			</defs>
			<clipPath id="SVGID_16_">
				<use xlink:href="#SVGID_15_"  overflow="visible"/>
			</clipPath>
			<polygon clip-path="url(#SVGID_16_)" fill="#536CB2" points="670.4,567.8 410.5,602.8 447.1,512 484.1,431.4 513.4,367.1 			"/>
		</g>
		<g>
			<defs>
				<circle id="SVGID_17_" cx="516.4" cy="516.2" r="216.6"/>
			</defs>
			<clipPath id="SVGID_18_">
				<use xlink:href="#SVGID_17_"  overflow="visible"/>
			</clipPath>
			<polygon clip-path="url(#SVGID_18_)" fill="#5876B9" points="548,754.1 326.8,660.4 410.5,602.8 			"/>
		</g>
		<g>
			<defs>
				<circle id="SVGID_19_" cx="516.4" cy="516.2" r="216.6"/>
			</defs>
			<clipPath id="SVGID_20_">
				<use xlink:href="#SVGID_19_"  overflow="visible"/>
			</clipPath>
			<polygon clip-path="url(#SVGID_20_)" fill="#334488" points="547.5,755.2 422,719.4 465.4,674.9 			"/>
		</g>
		<g>
			<defs>
				<circle id="SVGID_21_" cx="516.4" cy="516.2" r="216.6"/>
			</defs>
			<clipPath id="SVGID_22_">
				<use xlink:href="#SVGID_21_"  overflow="visible"/>
			</clipPath>
			<polygon clip-path="url(#SVGID_22_)" fill="#506DB3" points="300.8,429.8 383.7,330.5 521.2,280.7 513.4,367.1 			"/>
		</g>
		<g>
			<defs>
				<circle id="SVGID_23_" cx="516.4" cy="516.2" r="216.6"/>
			</defs>
			<clipPath id="SVGID_24_">
				<use xlink:href="#SVGID_23_"  overflow="visible"/>
			</clipPath>
			<polygon clip-path="url(#SVGID_24_)" fill="#36468A" points="670.4,567.8 617,504.7 513.4,367.1 699.7,379.3 696.2,440.2 			"/>
		</g>
		<g>
			<defs>
				<circle id="SVGID_25_" cx="516.4" cy="516.2" r="216.6"/>
			</defs>
			<clipPath id="SVGID_26_">
				<use xlink:href="#SVGID_25_"  overflow="visible"/>
			</clipPath>
			<polygon clip-path="url(#SVGID_26_)" fill="#5F72B5" points="617,504.7 617.7,374.9 504.7,363.2 			"/>
		</g>
		<g>
			<defs>
				<circle id="SVGID_27_" cx="516.4" cy="516.2" r="216.6"/>
			</defs>
			<clipPath id="SVGID_28_">
				<use xlink:href="#SVGID_27_"  overflow="visible"/>
			</clipPath>
			<polygon clip-path="url(#SVGID_28_)" fill="#485BA8" points="513.4,367.1 517.3,279.1 699.7,379.3 617.7,374.9 			"/>
		</g>
		<g>
			<defs>
				<circle id="SVGID_29_" cx="516.4" cy="516.2" r="216.6"/>
			</defs>
			<clipPath id="SVGID_30_">
				<use xlink:href="#SVGID_29_"  overflow="visible"/>
			</clipPath>
			<polygon clip-path="url(#SVGID_30_)" fill="#242E62" points="725.4,621.9 646.8,707.4 601.5,672.6 			"/>
		</g>
		<g>
			<defs>
				<circle id="SVGID_31_" cx="516.4" cy="516.2" r="216.6"/>
			</defs>
			<clipPath id="SVGID_32_">
				<use xlink:href="#SVGID_31_"  overflow="visible"/>
			</clipPath>
			<polygon clip-path="url(#SVGID_32_)" fill="#2B3671" points="646.8,707.4 547.1,755.2 601.5,672.6 			"/>
		</g>
		<g>
			<defs>
				<circle id="SVGID_33_" cx="516.4" cy="516.2" r="216.6"/>
			</defs>
			<clipPath id="SVGID_34_">
				<use xlink:href="#SVGID_33_"  overflow="visible"/>
			</clipPath>
			<polygon clip-path="url(#SVGID_34_)" fill="#576CB2" points="378.8,331.3 513.4,367.1 523.7,278.1 			"/>
		</g>
		<g>
			<defs>
				<circle id="SVGID_35_" cx="516.4" cy="516.2" r="216.6"/>
			</defs>
			<clipPath id="SVGID_36_">
				<use xlink:href="#SVGID_35_"  overflow="visible"/>
			</clipPath>
			<polygon clip-path="url(#SVGID_36_)" fill="#4F6AB1" points="503.1,704.7 549,584 498.3,588.2 410.2,603 			"/>
		</g>
		<g>
			<defs>
				<circle id="SVGID_37_" cx="516.4" cy="516.2" r="216.6"/>
			</defs>
			<clipPath id="SVGID_38_">
				<use xlink:href="#SVGID_37_"  overflow="visible"/>
			</clipPath>
			<polygon clip-path="url(#SVGID_38_)" fill="#4963AC" points="547.1,755.2 503.1,704.7 524.4,647.4 			"/>
		</g>
		<g>
			<defs>
				<circle id="SVGID_39_" cx="516.4" cy="516.2" r="216.6"/>
			</defs>
			<clipPath id="SVGID_40_">
				<use xlink:href="#SVGID_39_"  overflow="visible"/>
			</clipPath>
			<polygon clip-path="url(#SVGID_40_)" fill="#3D52A3" points="524.4,647.4 601.5,672.6 547.1,755.2 			"/>
		</g>
		<g>
			<defs>
				<circle id="SVGID_41_" cx="516.4" cy="516.2" r="216.6"/>
			</defs>
			<clipPath id="SVGID_42_">
				<use xlink:href="#SVGID_41_"  overflow="visible"/>
			</clipPath>
			<polygon clip-path="url(#SVGID_42_)" fill="#515CA8" points="524.4,647.4 508.8,645.7 503.1,704.7 			"/>
		</g>
		<g>
			<defs>
				<circle id="SVGID_43_" cx="516.4" cy="516.2" r="216.6"/>
			</defs>
			<clipPath id="SVGID_44_">
				<use xlink:href="#SVGID_43_"  overflow="visible"/>
			</clipPath>
			<polygon clip-path="url(#SVGID_44_)" fill="#5F72B5" points="508.8,645.7 410.2,603 503.1,704.7 			"/>
		</g>
		<g>
			<defs>
				<circle id="SVGID_45_" cx="516.4" cy="516.2" r="216.6"/>
			</defs>
			<clipPath id="SVGID_46_">
				<use xlink:href="#SVGID_45_"  overflow="visible"/>
			</clipPath>
			<polygon clip-path="url(#SVGID_46_)" fill="#5873B7" points="508.8,645.7 498.3,588.2 524.4,647.4 			"/>
		</g>
		<g>
			<defs>
				<circle id="SVGID_47_" cx="516.4" cy="516.2" r="216.6"/>
			</defs>
			<clipPath id="SVGID_48_">
				<use xlink:href="#SVGID_47_"  overflow="visible"/>
			</clipPath>
			<polygon clip-path="url(#SVGID_48_)" fill="#4C5DA9" points="508.8,645.7 498.3,588.2 445,618.1 			"/>
		</g>
		<g>
			<defs>
				<circle id="SVGID_49_" cx="516.4" cy="516.2" r="216.6"/>
			</defs>
			<clipPath id="SVGID_50_">
				<use xlink:href="#SVGID_49_"  overflow="visible"/>
			</clipPath>
			<polygon clip-path="url(#SVGID_50_)" fill="#4D66AE" points="503.1,704.7 454.3,686.9 410.2,603 			"/>
		</g>
		<g>
			<defs>
				<circle id="SVGID_51_" cx="516.4" cy="516.2" r="216.6"/>
			</defs>
			<clipPath id="SVGID_52_">
				<use xlink:href="#SVGID_51_"  overflow="visible"/>
			</clipPath>
			<polygon clip-path="url(#SVGID_52_)" fill="#303C76" points="503.1,704.7 547.1,755.2 454.3,686.9 			"/>
		</g>
		<g>
			<defs>
				<circle id="SVGID_53_" cx="516.4" cy="516.2" r="216.6"/>
			</defs>
			<clipPath id="SVGID_54_">
				<use xlink:href="#SVGID_53_"  overflow="visible"/>
			</clipPath>
			<polygon clip-path="url(#SVGID_54_)" fill="#4153A3" points="325.8,661.3 422,719.4 434.9,711.7 			"/>
		</g>
		<g>
			<defs>
				<circle id="SVGID_55_" cx="516.4" cy="516.2" r="216.6"/>
			</defs>
			<clipPath id="SVGID_56_">
				<use xlink:href="#SVGID_55_"  overflow="visible"/>
			</clipPath>
			<polygon clip-path="url(#SVGID_56_)" fill="#5F72B5" points="454.3,686.9 434.9,711.7 361.6,637 			"/>
		</g>
		<g>
			<defs>
				<circle id="SVGID_57_" cx="516.4" cy="516.2" r="216.6"/>
			</defs>
			<clipPath id="SVGID_58_">
				<use xlink:href="#SVGID_57_"  overflow="visible"/>
			</clipPath>
			<polygon clip-path="url(#SVGID_58_)" fill="#4660AB" points="361.6,637 326.8,661.9 434.9,711.7 			"/>
		</g>
		<g>
			<defs>
				<circle id="SVGID_59_" cx="516.4" cy="516.2" r="216.6"/>
			</defs>
			<clipPath id="SVGID_60_">
				<use xlink:href="#SVGID_59_"  overflow="visible"/>
			</clipPath>
			<polygon clip-path="url(#SVGID_60_)" fill="#506DB3" points="325.8,661.3 292.8,546.4 329.3,561.9 			"/>
		</g>
		<g>
			<defs>
				<circle id="SVGID_61_" cx="516.4" cy="516.2" r="216.6"/>
			</defs>
			<clipPath id="SVGID_62_">
				<use xlink:href="#SVGID_61_"  overflow="visible"/>
			</clipPath>
			<polygon clip-path="url(#SVGID_62_)" fill="#44538C" points="300.8,431.6 292.7,547.4 329.3,561.9 			"/>
		</g>
		<g>
			<defs>
				<circle id="SVGID_63_" cx="516.4" cy="516.2" r="216.6"/>
			</defs>
			<clipPath id="SVGID_64_">
				<use xlink:href="#SVGID_63_"  overflow="visible"/>
			</clipPath>
			<polygon clip-path="url(#SVGID_64_)" fill="#2A3367" points="699.7,379.3 690.1,439.9 672.1,378.8 			"/>
		</g>
		<g>
			<defs>
				<circle id="SVGID_65_" cx="516.4" cy="516.2" r="216.6"/>
			</defs>
			<clipPath id="SVGID_66_">
				<use xlink:href="#SVGID_65_"  overflow="visible"/>
			</clipPath>
			<polygon clip-path="url(#SVGID_66_)" fill="#28336B" points="699.7,379.3 746.2,499.6 710.7,498.7 			"/>
		</g>
		<g>
			<defs>
				<circle id="SVGID_67_" cx="516.4" cy="516.2" r="216.6"/>
			</defs>
			<clipPath id="SVGID_68_">
				<use xlink:href="#SVGID_67_"  overflow="visible"/>
			</clipPath>
			<polygon clip-path="url(#SVGID_68_)" fill="#364588" points="710.7,498.7 690.1,439.9 699.7,379.3 			"/>
		</g>
		<g>
			<defs>
				<circle id="SVGID_69_" cx="516.4" cy="516.2" r="216.6"/>
			</defs>
			<clipPath id="SVGID_70_">
				<use xlink:href="#SVGID_69_"  overflow="visible"/>
			</clipPath>
			<polygon clip-path="url(#SVGID_70_)" fill="#2A3367" points="737.9,484.6 716.3,536 710.7,498.7 			"/>
		</g>
		<g>
			<defs>
				<circle id="SVGID_71_" cx="516.4" cy="516.2" r="216.6"/>
			</defs>
			<clipPath id="SVGID_72_">
				<use xlink:href="#SVGID_71_"  overflow="visible"/>
			</clipPath>
			<polygon clip-path="url(#SVGID_72_)" fill="#455AA7" points="710.7,498.7 685,495.7 690.1,439.9 			"/>
		</g>
		<g>
			<defs>
				<circle id="SVGID_73_" cx="516.4" cy="516.2" r="216.6"/>
			</defs>
			<clipPath id="SVGID_74_">
				<use xlink:href="#SVGID_73_"  overflow="visible"/>
			</clipPath>
			<polygon clip-path="url(#SVGID_74_)" fill="#2D3368" points="699.7,379.3 681.6,354.1 667.1,364.4 			"/>
		</g>
		<g>
			<defs>
				<circle id="SVGID_75_" cx="516.4" cy="516.2" r="216.6"/>
			</defs>
			<clipPath id="SVGID_76_">
				<use xlink:href="#SVGID_75_"  overflow="visible"/>
			</clipPath>
			<polygon clip-path="url(#SVGID_76_)" fill="#394999" points="672.1,378.8 667.1,364.4 699.7,379.3 			"/>
		</g>
		<g>
			<defs>
				<circle id="SVGID_77_" cx="516.4" cy="516.2" r="216.6"/>
			</defs>
			<clipPath id="SVGID_78_">
				<use xlink:href="#SVGID_77_"  overflow="visible"/>
			</clipPath>
			<polygon clip-path="url(#SVGID_78_)" fill="#1A2048" points="725.4,621.9 716.3,536 737.9,484.6 			"/>
		</g>
		<g>
			<defs>
				<circle id="SVGID_79_" cx="516.4" cy="516.2" r="216.6"/>
			</defs>
			<clipPath id="SVGID_80_">
				<use xlink:href="#SVGID_79_"  overflow="visible"/>
			</clipPath>
			<polygon clip-path="url(#SVGID_80_)" fill="#3E51A2" points="667.1,364.4 635.1,328.6 681.6,354.1 			"/>
		</g>
		<g>
			<defs>
				<circle id="SVGID_81_" cx="516.4" cy="516.2" r="216.6"/>
			</defs>
			<clipPath id="SVGID_82_">
				<use xlink:href="#SVGID_81_"  overflow="visible"/>
			</clipPath>
			<polygon clip-path="url(#SVGID_82_)" fill="#2B326A" points="515.5,278.5 635.1,328.6 620.3,336.1 			"/>
		</g>
		<g>
			<defs>
				<circle id="SVGID_83_" cx="516.4" cy="516.2" r="216.6"/>
			</defs>
			<clipPath id="SVGID_84_">
				<use xlink:href="#SVGID_83_"  overflow="visible"/>
			</clipPath>
			<polygon clip-path="url(#SVGID_84_)" fill="#394999" points="667.1,364.4 617.7,374.9 635.1,328.6 			"/>
		</g>
		<g>
			<defs>
				<circle id="SVGID_85_" cx="516.4" cy="516.2" r="216.6"/>
			</defs>
			<clipPath id="SVGID_86_">
				<use xlink:href="#SVGID_85_"  overflow="visible"/>
			</clipPath>
			<polygon clip-path="url(#SVGID_86_)" fill="#5F72B5" points="620.3,336.1 617.7,374.9 635.1,328.6 			"/>
		</g>
		<g>
			<defs>
				<circle id="SVGID_87_" cx="516.4" cy="516.2" r="216.6"/>
			</defs>
			<clipPath id="SVGID_88_">
				<use xlink:href="#SVGID_87_"  overflow="visible"/>
			</clipPath>
			<polygon clip-path="url(#SVGID_88_)" fill="#5167AF" points="690.1,439.9 617.7,374.9 672.1,378.8 			"/>
		</g>
		<g>
			<defs>
				<circle id="SVGID_89_" cx="516.4" cy="516.2" r="216.6"/>
			</defs>
			<clipPath id="SVGID_90_">
				<use xlink:href="#SVGID_89_"  overflow="visible"/>
			</clipPath>
			<polygon clip-path="url(#SVGID_90_)" fill="#515CA8" points="672.1,378.8 667.1,364.4 617.7,374.9 			"/>
		</g>
		<g>
			<defs>
				<circle id="SVGID_91_" cx="516.4" cy="516.2" r="216.6"/>
			</defs>
			<clipPath id="SVGID_92_">
				<use xlink:href="#SVGID_91_"  overflow="visible"/>
			</clipPath>
			<polygon clip-path="url(#SVGID_92_)" fill="#73B3D2" points="513.4,367.1 484.1,431.4 528.7,395.7 			"/>
		</g>
		<g>
			<defs>
				<circle id="SVGID_93_" cx="516.4" cy="516.2" r="216.6"/>
			</defs>
			<clipPath id="SVGID_94_">
				<use xlink:href="#SVGID_93_"  overflow="visible"/>
			</clipPath>
			<polygon clip-path="url(#SVGID_94_)" fill="#5873B7" points="484.1,431.4 396.9,404.9 513.4,367.1 			"/>
		</g>
		<g>
			<defs>
				<circle id="SVGID_95_" cx="516.4" cy="516.2" r="216.6"/>
			</defs>
			<clipPath id="SVGID_96_">
				<use xlink:href="#SVGID_95_"  overflow="visible"/>
			</clipPath>
			<polygon clip-path="url(#SVGID_96_)" fill="#73B3D2" points="300.8,429.8 397.7,390.6 513.4,367.1 396.9,404.9 			"/>
		</g>
		<g>
			<defs>
				<circle id="SVGID_97_" cx="516.4" cy="516.2" r="216.6"/>
			</defs>
			<clipPath id="SVGID_98_">
				<use xlink:href="#SVGID_97_"  overflow="visible"/>
			</clipPath>
			<polygon clip-path="url(#SVGID_98_)" fill="#515CA8" points="361.6,637 375,546.5 410.8,603.3 			"/>
		</g>
		<g>
			<defs>
				<circle id="SVGID_99_" cx="516.4" cy="516.2" r="216.6"/>
			</defs>
			<clipPath id="SVGID_100_">
				<use xlink:href="#SVGID_99_"  overflow="visible"/>
			</clipPath>
			<polygon clip-path="url(#SVGID_100_)" fill="#6479BA" points="329.3,561.9 362.4,637.6 326.3,661.6 			"/>
		</g>
		<g>
			<defs>
				<circle id="SVGID_101_" cx="516.4" cy="516.2" r="216.6"/>
			</defs>
			<clipPath id="SVGID_102_">
				<use xlink:href="#SVGID_101_"  overflow="visible"/>
			</clipPath>
			<polygon clip-path="url(#SVGID_102_)" fill="#6081C0" points="411.2,603.6 350.4,538 300.5,428.8 			"/>
		</g>
		<g>
			<defs>
				<circle id="SVGID_103_" cx="516.4" cy="516.2" r="216.6"/>
			</defs>
			<clipPath id="SVGID_104_">
				<use xlink:href="#SVGID_103_"  overflow="visible"/>
			</clipPath>
			<polyline clip-path="url(#SVGID_104_)" fill="#5572B6" points="350,537.6 329.3,561.9 372.8,562.2 350.4,538 			"/>
		</g>
		<g>
			<defs>
				<circle id="SVGID_105_" cx="516.4" cy="516.2" r="216.6"/>
			</defs>
			<clipPath id="SVGID_106_">
				<use xlink:href="#SVGID_105_"  overflow="visible"/>
			</clipPath>
			<polygon clip-path="url(#SVGID_106_)" fill="#515CA8" points="383.7,330.5 397.7,390.6 513.4,367.1 			"/>
		</g>
		<g>
			<defs>
				<circle id="SVGID_107_" cx="516.4" cy="516.2" r="216.6"/>
			</defs>
			<clipPath id="SVGID_108_">
				<use xlink:href="#SVGID_107_"  overflow="visible"/>
			</clipPath>
			<polygon clip-path="url(#SVGID_108_)" fill="#5F79BB" points="578.3,493.2 498.3,588.2 670.4,567.8 			"/>
		</g>
		<g>
			<defs>
				<circle id="SVGID_109_" cx="516.4" cy="516.2" r="216.6"/>
			</defs>
			<clipPath id="SVGID_110_">
				<use xlink:href="#SVGID_109_"  overflow="visible"/>
			</clipPath>
			<polygon clip-path="url(#SVGID_110_)" fill="#4F64AD" points="528.7,395.7 484.1,431.4 578.3,493.2 			"/>
		</g>
		<g>
			<defs>
				<circle id="SVGID_111_" cx="516.4" cy="516.2" r="216.6"/>
			</defs>
			<clipPath id="SVGID_112_">
				<use xlink:href="#SVGID_111_"  overflow="visible"/>
			</clipPath>
			<polygon clip-path="url(#SVGID_112_)" fill="#5773B7" points="447.1,512 300.5,428.8 410.5,602.8 			"/>
		</g>
		<g>
			<defs>
				<circle id="SVGID_113_" cx="516.4" cy="516.2" r="216.6"/>
			</defs>
			<clipPath id="SVGID_114_">
				<use xlink:href="#SVGID_113_"  overflow="visible"/>
			</clipPath>
			<polygon clip-path="url(#SVGID_114_)" fill="#5F79BB" points="513.4,367.1 617,504.7 578.3,493.2 528.7,395.7 			"/>
		</g>
		<g>
			<defs>
				<circle id="SVGID_115_" cx="516.4" cy="516.2" r="216.6"/>
			</defs>
			<clipPath id="SVGID_116_">
				<use xlink:href="#SVGID_115_"  overflow="visible"/>
			</clipPath>
			<polygon clip-path="url(#SVGID_116_)" fill="#415AA7" points="617,504.7 690.1,439.9 617.7,374.9 			"/>
		</g>
		<g>
			<defs>
				<circle id="SVGID_117_" cx="516.4" cy="516.2" r="216.6"/>
			</defs>
			<clipPath id="SVGID_118_">
				<use xlink:href="#SVGID_117_"  overflow="visible"/>
			</clipPath>
			<polygon clip-path="url(#SVGID_118_)" fill="#4F64AD" points="447.1,512 484.1,431.4 396.9,404.9 			"/>
		</g>
		<g>
			<defs>
				<circle id="SVGID_119_" cx="516.4" cy="516.2" r="216.6"/>
			</defs>
			<clipPath id="SVGID_120_">
				<use xlink:href="#SVGID_119_"  overflow="visible"/>
			</clipPath>
			<polygon clip-path="url(#SVGID_120_)" fill="#303C76" points="447.1,512 498.3,588.2 410,603.4 			"/>
		</g>
		<g>
			<defs>
				<circle id="SVGID_121_" cx="516.4" cy="516.2" r="216.6"/>
			</defs>
			<clipPath id="SVGID_122_">
				<use xlink:href="#SVGID_121_"  overflow="visible"/>
			</clipPath>
			<polygon clip-path="url(#SVGID_122_)" fill="#515CA8" points="447.1,512 484.1,431.4 578.3,493.2 			"/>
		</g>
		<g>
			<defs>
				<circle id="SVGID_123_" cx="516.4" cy="516.2" r="216.6"/>
			</defs>
			<clipPath id="SVGID_124_">
				<use xlink:href="#SVGID_123_"  overflow="visible"/>
			</clipPath>
			<polygon clip-path="url(#SVGID_124_)" fill="#73B3D2" points="447.1,512 498.3,588.2 486.4,544.4 			"/>
		</g>
		<g>
			<defs>
				<circle id="SVGID_125_" cx="516.4" cy="516.2" r="216.6"/>
			</defs>
			<clipPath id="SVGID_126_">
				<use xlink:href="#SVGID_125_"  overflow="visible"/>
			</clipPath>
			<polygon clip-path="url(#SVGID_126_)" fill="#515CA8" points="486.4,544.4 578.3,493.2 498.3,588.2 			"/>
		</g>
	</g>
</g>
</svg>
