<svg xmlns="http://www.w3.org/2000/svg" xmlns:xlink="http://www.w3.org/1999/xlink" viewBox="0 0 1250.5 1250.5" enable-background="new 0 0 1250.5 1250.5"><defs><use id="26" xlink:href="#28"/><use id="27" xlink:href="#28"/><path id="28" d="m387.2 726.5c-2.2-5.8-4.2-11.6-5.9-17.6-39.7 34.7-72.1 65.1-102.2 96.2-69 71.2-102.5 124.2-89.7 141.6 3.3 4.5 10 6.8 20.1 6.8 69.2 0 266.1-107.7 468.2-256.1 117.3-86.1 221.8-174.8 294.3-249.7 69-71.2 102.5-124.2 89.7-141.6-3.3-4.5-10-6.8-20.1-6.8-43.7 0-134.3 40.7-249.1 109.8 6.6 4.3 13 9 19.1 13.8 76.1-39.8 126.1-54.3 138.1-37.8l3.2 2.3c22.3 30.6-108.2 163.4-291.3 296.6-183.2 133.1-349.6 216.3-371.9 185.8l-3.2-2.3c-13.4-18.4 25.3-70.8 100.7-141"/><circle id="1P" cx="640.2" cy="632.8" r="265"/><circle id="1O" cx="640.2" cy="632.8" r="265"/><circle id="1Z" cx="640.2" cy="632.8" r="265"/><circle id="1N" cx="640.2" cy="632.8" r="265"/><circle id="1L" cx="640.2" cy="632.8" r="265"/><circle id="1K" cx="640.2" cy="632.8" r="265"/><circle id="1M" cx="640.2" cy="632.8" r="265"/><circle id="1Q" cx="640.2" cy="632.8" r="265"/><circle id="1X" cx="640.2" cy="632.8" r="265"/><circle id="1W" cx="640.2" cy="632.8" r="265"/><circle id="1R" cx="640.2" cy="632.8" r="265"/><circle id="1V" cx="640.2" cy="632.8" r="265"/><circle id="1T" cx="640.2" cy="632.8" r="265"/><circle id="1S" cx="640.2" cy="632.8" r="265"/><circle id="1U" cx="640.2" cy="632.8" r="265"/><circle id="1J" cx="640.2" cy="632.8" r="265"/><circle id="18" cx="640.2" cy="632.8" r="265"/><circle id="17" cx="640.2" cy="632.8" r="265"/><circle id="1I" cx="640.2" cy="632.8" r="265"/><circle id="16" cx="640.2" cy="632.8" r="265"/><circle id="14" cx="640.2" cy="632.8" r="265"/><circle id="13" cx="640.2" cy="632.8" r="265"/><circle id="15" cx="640.2" cy="632.8" r="265"/><circle id="19" cx="640.2" cy="632.8" r="265"/><circle id="1H" cx="640.2" cy="632.8" r="265"/><circle id="1G" cx="640.2" cy="632.8" r="265"/><circle id="1A" cx="640.2" cy="632.8" r="265"/><circle id="1F" cx="640.2" cy="632.8" r="265"/><circle id="1E" cx="640.2" cy="632.8" r="265"/><circle id="1B" cx="640.2" cy="632.8" r="265"/><circle id="1D" cx="640.2" cy="632.8" r="265"/><circle id="1C" cx="640.2" cy="632.8" r="265"/><circle id="1Y" cx="640.2" cy="632.8" r="265"/><circle id="1x" cx="640.2" cy="632.8" r="265"/><circle id="1w" cx="640.2" cy="632.8" r="265"/><circle id="1r" cx="640.2" cy="632.8" r="265"/><circle id="1v" cx="640.2" cy="632.8" r="265"/><circle id="1t" cx="640.2" cy="632.8" r="265"/><circle id="1s" cx="640.2" cy="632.8" r="265"/><circle id="1u" cx="640.2" cy="632.8" r="265"/><circle id="1y" cx="640.2" cy="632.8" r="265"/><circle id="25" cx="640.2" cy="632.8" r="265"/><circle id="24" cx="640.2" cy="632.8" r="265"/><circle id="1z" cx="640.2" cy="632.8" r="265"/><circle id="23" cx="640.2" cy="632.8" r="265"/><circle id="21" cx="640.2" cy="632.8" r="265"/><circle id="20" cx="640.2" cy="632.8" r="265"/><circle id="22" cx="640.2" cy="632.8" r="265"/><circle id="1q" cx="640.2" cy="632.8" r="265"/><circle id="1f" cx="640.2" cy="632.8" r="265"/><circle id="1e" cx="640.2" cy="632.8" r="265"/><circle id="1g" cx="640.2" cy="632.8" r="265"/><circle id="1d" cx="640.2" cy="632.8" r="265"/><circle id="1b" cx="640.2" cy="632.8" r="265"/><circle id="1a" cx="640.2" cy="632.8" r="265"/><circle id="1c" cx="640.2" cy="632.8" r="265"/><circle id="1h" cx="640.2" cy="632.8" r="265"/><circle id="1p" cx="640.2" cy="632.8" r="265"/><circle id="1o" cx="640.2" cy="632.8" r="265"/><circle id="1n" cx="640.2" cy="632.8" r="265"/><circle id="1m" cx="640.2" cy="632.8" r="265"/><circle id="1i" cx="640.2" cy="632.8" r="265"/><circle id="1j" cx="640.2" cy="632.8" r="265"/><circle id="1k" cx="640.2" cy="632.8" r="265"/><circle id="1l" cx="640.2" cy="632.8" r="265"/><clipPath id="0"><use xlink:href="#13"/></clipPath><clipPath id="12"><use xlink:href="#27"/></clipPath><clipPath id="L"><use xlink:href="#1Q"/></clipPath><clipPath id="K"><use xlink:href="#1P"/></clipPath><clipPath id="11"><use xlink:href="#26"/></clipPath><clipPath id="J"><use xlink:href="#1O"/></clipPath><clipPath id="I"><use xlink:href="#1M"/></clipPath><clipPath id="H"><use xlink:href="#1L"/></clipPath><clipPath><use xlink:href="#1N"/></clipPath><clipPath id="M"><use xlink:href="#1R"/></clipPath><clipPath id="T"><use xlink:href="#1Y"/></clipPath><clipPath id="S"><use xlink:href="#1X"/></clipPath><clipPath id="N"><use xlink:href="#1S"/></clipPath><clipPath id="R"><use xlink:href="#1W"/></clipPath><clipPath id="P"><use xlink:href="#1U"/></clipPath><clipPath id="O"><use xlink:href="#1T"/></clipPath><clipPath id="Q"><use xlink:href="#1V"/></clipPath><clipPath id="G"><use xlink:href="#1K"/></clipPath><clipPath><use xlink:href="#19"/></clipPath><clipPath id="5"><use xlink:href="#18"/></clipPath><clipPath id="F"><use xlink:href="#1J"/></clipPath><clipPath id="4"><use xlink:href="#17"/></clipPath><clipPath id="2"><use xlink:href="#15"/></clipPath><clipPath id="1"><use xlink:href="#14"/></clipPath><clipPath id="3"><use xlink:href="#16"/></clipPath><clipPath id="6"><use xlink:href="#1A"/></clipPath><clipPath id="E"><use xlink:href="#1I"/></clipPath><clipPath id="D"><use xlink:href="#1H"/></clipPath><clipPath id="7"><use xlink:href="#1B"/></clipPath><clipPath id="C"><use xlink:href="#1G"/></clipPath><clipPath id="B"><use xlink:href="#1F"/></clipPath><clipPath id="8"><use xlink:href="#1C"/></clipPath><clipPath id="A"><use xlink:href="#1E"/></clipPath><clipPath id="9"><use xlink:href="#1D"/></clipPath><clipPath id="U"><use xlink:href="#1Z"/></clipPath><clipPath id="s"><use xlink:href="#1x"/></clipPath><clipPath id="r"><use xlink:href="#1w"/></clipPath><clipPath id="V"><use xlink:href="#1a"/></clipPath><clipPath id="q"><use xlink:href="#1v"/></clipPath><clipPath id="o"><use xlink:href="#1t"/></clipPath><clipPath id="n"><use xlink:href="#1s"/></clipPath><clipPath id="p"><use xlink:href="#1u"/></clipPath><clipPath id="t"><use xlink:href="#1y"/></clipPath><clipPath id="10"><use xlink:href="#25"/></clipPath><clipPath id="z"><use xlink:href="#24"/></clipPath><clipPath id="u"><use xlink:href="#1z"/></clipPath><clipPath id="y"><use xlink:href="#23"/></clipPath><clipPath id="w"><use xlink:href="#21"/></clipPath><clipPath id="v"><use xlink:href="#20"/></clipPath><clipPath id="x"><use xlink:href="#22"/></clipPath><clipPath id="m"><use xlink:href="#1r"/></clipPath><clipPath id="b"><use xlink:href="#1g"/></clipPath><clipPath id="a"><use xlink:href="#1f"/></clipPath><clipPath id="l"><use xlink:href="#1q"/></clipPath><clipPath id="Z"><use xlink:href="#1e"/></clipPath><clipPath id="X"><use xlink:href="#1c"/></clipPath><clipPath id="W"><use xlink:href="#1b"/></clipPath><clipPath id="Y"><use xlink:href="#1d"/></clipPath><clipPath id="c"><use xlink:href="#1h"/></clipPath><clipPath id="k"><use xlink:href="#1p"/></clipPath><clipPath id="j"><use xlink:href="#1o"/></clipPath><clipPath id="d"><use xlink:href="#1i"/></clipPath><clipPath id="i"><use xlink:href="#1n"/></clipPath><clipPath id="h"><use xlink:href="#1m"/></clipPath><clipPath id="e"><use xlink:href="#1j"/></clipPath><clipPath id="g"><use xlink:href="#1l"/></clipPath><clipPath id="f"><use xlink:href="#1k"/></clipPath></defs><path clip-path="url(#0)" fill="#c59857" d="m836.4 803.4c-94.3 108.3-258.5 119.7-366.9 25.5-108.3-94.3-119.7-258.5-25.5-366.9 94.3-108.3 258.5-119.7 366.9-25.5 108.4 94.4 119.8 258.6 25.5 366.9"/><path clip-path="url(#1)" fill="#ecbc68" d="m462.7 669.5l-108.3 10.1 77.5-242.7 18.6 101.6z"/><path clip-path="url(#3)" fill="#8f715d" d="m549.1 363.9l76.4 17.5-47.8 13.9z"/><g clip-path="url(#5)"><path fill="#0b132d" d="m471.6 521.3c.8 0 2-1.3.7-1.3-.8 0-2 1.3-.7 1.3"/></g><path clip-path="url(#6)" fill="#d0a772" d="m778.5 742.4l-186.2 174.9-129.6-247.8 85.8 19.9z"/><path clip-path="url(#7)" fill="#bd997d" d="m870.1 832.4l-91.6-90-186.2 174.9z"/><path clip-path="url(#8)" fill="#e4b462" d="m778.5 742.4l-107-312.5 259.7 108.4z"/><path clip-path="url(#A)" fill="#d3a45c" d="m671.5 429.9l50.8 145.9 56.2 166.6-230-53-85.8-19.9z"/><path clip-path="url(#B)" fill="#aa875b" d="m931.2 538.3l-206.7-188.6-53 80.2 126.2 55.3 20.1 7.9z"/><path clip-path="url(#C)" fill="#d1a571" d="m931.2 538.3l-61.1 294.1-38.3-37.6-53.3-52.4z"/><path clip-path="url(#D)" fill="#daaf61" d="m592.3 917.3l-142.8-79.5-95.1-158.2 108.3-10.1z"/><path clip-path="url(#F)" fill="#c39a60" d="m724.5 349.7l-53 80.2-95.1 3.7-144.5 3.3 146.3-43.7z"/><path clip-path="url(#G)" fill="#846f61" d="m578.2 393.2l-69.2 41.7h-77.5z"/><g clip-path="url(#H)"><path fill="#0b132d" d="m470.1 520.9c.8 0 2-1.2.7-1.2-.8 0-2 1.2-.7 1.2"/></g><path clip-path="url(#I)" fill="#e0b463" d="m671.5 429.9l-208.8 239.6-16.1-130.4-14.7-102.2 77.1-3.2 67.4-.1z"/><path clip-path="url(#J)" fill="#634647" d="m724.5 349.7l124.8 77.4-51.6 58.1z"/><path clip-path="url(#K)" fill="#a17d55" d="m849.3 427.1l83.4 112-135-53.9z"/><path clip-path="url(#L)" fill="#a1826a" d="m449.5 837.8l13.2-168.3-108.6 10.1z"/><path clip-path="url(#M)" fill="#dfb262" d="m671.5 429.9l-70.4 128.1-106.7 86.7-31.7 24.8z"/><path clip-path="url(#N)" fill="#cd9f5f" d="m881.2 604.9l-158.9-29.1 56.2 166.6z"/><path clip-path="url(#O)" fill="#cca26c" d="m932.7 539.1l-51.5 65.8-75.7-13.2z"/><path clip-path="url(#P)" fill="#d7aa5d" d="m805.5 591.7l12.3-98.6 114.9 46z"/><path clip-path="url(#Q)" fill="#d7aa5d" d="m805.5 591.7l1.7 19.7 74-6.5z"/><path clip-path="url(#R)" fill="#d1a571" d="m807.2 611.4l-28.7 131 102.7-137.5z"/><path clip-path="url(#S)" fill="#f2be64" d="m807.2 611.4l-65.9 22.3 64.2-42z"/><path clip-path="url(#T)" fill="#deb15a" d="m807.2 611.4l-65.9 22.3 47.5 62.6z"/><path clip-path="url(#U)" fill="#bd997d" d="m881.2 604.9l-9.8 64.3-92.9 73.2z"/><path clip-path="url(#V)" fill="#917867" d="m881.2 604.9l51.5-65.8-61.3 130.1z"/><path clip-path="url(#W)" fill="#af8d74" d="m933.4 537.7l-14 163.9-48-32.4z"/><path clip-path="url(#X)" fill="#96766c" d="m870.1 832.4l49.3-130.8-12.7-14.1z"/><path clip-path="url(#Y)" fill="#c7a17c" d="m871.4 669.2l35.3 18.3-74.9 107.3z"/><path clip-path="url(#Z)" fill="#b89477" d="m831.8 794.8l38.3 37.6 36.6-144.9z"/><g clip-path="url(#a)"><path fill="#917867" d="m870.1 832.4l-132.1 68.1 10.1-48.6z"/></g><path clip-path="url(#b)" fill="#b3927a" d="m594.6 916.9l144.6-16.5 8.9-48.5z"/><path clip-path="url(#c)" fill="#5e5049" d="m431.5 434.9l77.5-1.2-70.9 37.3z"/><path clip-path="url(#d)" fill="#3e3035" d="m431.5 434.9l121.4-69.2 25.3 27.5z"/><path clip-path="url(#e)" fill="#c9a06c" d="m578.2 393.2l-1.8 40.4-67.4.1z"/><path clip-path="url(#f)" fill="#393131" d="m431.5 434.9l-26.2 30 10.3 18.3z"/><path clip-path="url(#g)" fill="#917862" d="m438.1 471l-22.6 9.8 16-45.9z"/><path clip-path="url(#h)" fill="#795c50" d="m724.5 349.7l-103.5 30.8-68.1-14.8z"/><path clip-path="url(#i)" fill="#4c4142" d="m415.5 480.8l-30.2 47.3 20-63.2z"/><path clip-path="url(#j)" fill="#ec9c54" d="m354.1 679.6l31.2-151.5 13 16.6z"/><path clip-path="url(#k)" fill="#846f61" d="m415.5 480.8l31.1 58.3-61.3-11z"/><path clip-path="url(#l)" fill="#bf9c72" d="m398.3 544.7l48.3-5.6-61.3-11z"/><path clip-path="url(#m)" fill="#b39065" d="m509 433.7l-62.4 105.4-8.5-68.1z"/><path clip-path="url(#n)" fill="#6d5b52" d="m438.1 471l-22.6 9.8 31.1 58.3z"/><g clip-path="url(#o)"><path fill="#6a6230" d="m387.8 412.3c1.1 0 1.5-1.4.2-1.4-1.1.1-1.5 1.4-.2 1.4"/></g><path clip-path="url(#p)" fill="#ffcb70" d="m462.7 669.5l85.8 19.9-54.1-44.7z"/><path clip-path="url(#q)" fill="#a1826a" d="m592.3 917.3l-72.1-110.5-57.5-137.3z"/><path clip-path="url(#r)" fill="#d2a878" d="m831.8 794.8l-114 4.3 60.7-56.7z"/><path clip-path="url(#s)" fill="#a98770" d="m748.1 851.9l83.7-57.1 38.3 37.6z"/><path clip-path="url(#t)" fill="#b89477" d="m778.5 742.4l-65.1 89-122.3 86.5z"/><path clip-path="url(#u)" fill="#917867" d="m713.1 832l35 19.9-10.4-53.7-24.3 33.2"/><path clip-path="url(#v)" fill="#cfa467" d="m449.5 837.8l70.7-31-57.5-137.3z"/><path clip-path="url(#w)" fill="#f7c663" d="m601.1 558l177.4 184.4-56.2-166.6z"/><path clip-path="url(#x)" fill="#c59b63" d="m601.1 558l-106.7 86.7 54.1 44.7z"/><path clip-path="url(#y)" fill="#ecbc68" d="m658.5 714.7l-67.4 203.2 187.4-175.5z"/><path opacity=".1" clip-path="url(#z)" fill="#c59857" d="m481.9 820.7c0 0 418.1-191.4 479.2-423.5l90.9 264.7c0 0-160.2 198.2-555.2 218.5-395 20.4-14.9-59.7-14.9-59.7"/><path opacity=".19" clip-path="url(#10)" fill="#2b221d" d="m886.3 463.8l11.1 7.7c0 0-224.6 297.9-518.3 366.8-294.3 69.1 30.4-18.1 30.4-18.1s305.3-125.1 476.8-356.4"/><use fill="#b3927a" xlink:href="#28"/><path fill="#9e8075" d="m1124.7 265.6l-4.9-3.4c-24.5-33.8-163.4 23.2-346.3 136.4 3.2 1.8 6.4 3.6 9.5 5.5 118.3-71.6 212.2-113.5 258.5-113.5 12.9 0 22.1 3.5 27.1 10.3 20.5 28-37.9 98.6-90.5 152.9-72.8 75.2-177.7 164.2-295.3 250.6-206.7 151.8-401.4 257.8-473.4 257.8-12.9 0-22.1-3.5-27.1-10.3-20.5-28 37.9-98.6 90.5-152.9 31.1-32.1 64.2-63.3 105.4-99.1-1.1-4.3-2.1-8.6-3-12.9-172.2 144.1-274.6 263.4-249.3 298.1l4.9 3.4c33.2 45.8 282.8-78.9 557.2-278.5 274.5-199.6 470-398.6 436.7-444.4"/><path fill="#392b22" d="m777.5 400.7c0 0 6.6-4.1 18.9-11.7 12.4-7.6 30.6-18.6 54.1-32.1 11.7-6.7 24.8-14.1 39.2-21.8 14.4-7.7 30-15.9 47-24.2 17-8.3 35.2-16.8 54.8-24.8 9.8-4 20-7.9 30.5-11.4 10.6-3.5 21.5-6.8 32.9-9.2 5.7-1.2 11.5-2.1 17.5-2.6 5.9-.5 12-.6 18.1.5 3 .6 6 1.4 8.9 2.8 2.8 1.4 5.4 3.4 7.4 6 1.9 2.6 3.2 5.7 3.7 8.8.5 3.2.5 6.4.1 9.6-.8 6.3-2.9 12.4-5.4 18.3-2.5 5.9-5.5 11.6-8.8 17.2-6.5 11.2-14.1 22-22.1 32.6-16.1 21.2-34.2 41.8-53.4 62.1-19.2 20.3-39.6 40.3-60.7 60.2-42.3 39.8-87.7 79-134.9 117.6-47.2 38.6-96.2 76.4-146.2 113-50 36.6-100.9 71.9-152 105.1-51.1 33.2-102.5 64.3-153.4 92.2-25.5 13.9-50.9 26.9-76.3 38.7-25.4 11.7-50.6 22.4-76.1 30.4-12.7 4-25.5 7.3-38.4 9-6.5.8-13 1.2-19.4.6-3.2-.3-6.4-.9-9.5-2-3.1-1.1-6-2.7-8.4-5-2.4-2.3-4.1-5.2-5.1-8.3-1-3.1-1.3-6.3-1.1-9.5.3-6.3 2-12.3 4.1-18 2.1-5.7 4.8-11.1 7.6-16.4 2.8-5.2 5.9-10.3 9-15.2 6.3-9.8 13.1-19 19.9-27.7 6.9-8.8 13.8-17.1 20.8-25.1 13.9-16 27.7-30.6 40.9-44.1 26.4-26.9 50.5-49.4 70.6-67.6 20.1-18.2 36.2-32.1 47.2-41.5 11.1-9.4 17-14.4 17-14.4l.1.2c0 0-5.9 5.1-16.8 14.5-10.9 9.5-26.9 23.6-46.9 41.9-19.9 18.3-43.9 40.8-70.2 67.8-13.1 13.5-26.8 28.2-40.7 44.2-6.9 8-13.8 16.4-20.6 25.1-6.8 8.8-13.5 17.9-19.7 27.7-3.1 4.9-6.1 9.9-8.9 15.1-2.8 5.2-5.4 10.6-7.4 16.2-2.1 5.6-3.7 11.5-3.9 17.5-.1 3 .2 6 1.1 8.8.9 2.8 2.5 5.4 4.6 7.5 2.1 2.1 4.8 3.5 7.7 4.5 2.9 1 5.9 1.6 9 1.9 6.2.6 12.6.2 19-.6 12.7-1.7 25.4-5 38.1-9 25.3-8 50.5-18.7 75.8-30.4 25.3-11.8 50.7-24.8 76.2-38.7 51-27.7 102.3-58.8 153.5-91.8 51.2-33 102.2-68.1 152.3-104.5 50.1-36.4 99.2-74.1 146.4-112.6 47.2-38.6 92.5-77.9 134.5-117.9 21-20 41.3-40.1 60.4-60.5 9.6-10.2 18.8-20.4 27.7-30.7 8.9-10.3 17.4-20.7 25.4-31.3 8-10.6 15.5-21.4 21.9-32.5 3.2-5.6 6.2-11.2 8.6-17 2.4-5.8 4.5-11.8 5.3-17.9.4-3 .5-6.1 0-9-.5-3-1.6-5.7-3.4-8.1-1.8-2.3-4.1-4.2-6.8-5.5-2.6-1.3-5.5-2.2-8.4-2.7-5.8-1.1-11.8-1-17.7-.6-5.9.5-11.6 1.4-17.3 2.6-11.3 2.3-22.2 5.6-32.7 9.1-10.5 3.5-20.7 7.4-30.5 11.3-19.6 8-37.8 16.3-54.8 24.5-33.9 16.5-62.8 32.3-86.4 45.6-23.6 13.3-41.9 24.2-54.3 31.6-12.4 7.5-19 11.5-19 11.5l-.2.1"/><path clip-path="url(#11)" fill="none" stroke="#6d5b52" stroke-width="8" stroke-miterlimit="10" d="m798.2 423.3c93.2-51.1 160.6-73.9 174.6-54.7 24.1 33.1-118 177.5-317.3 322.7-199.3 145.2-380.5 236.1-404.5 203-15.7-21.5 44-93.9 139.2-179.3"/><path clip-path="url(#12)" fill="none" stroke="#6d5b52" stroke-width="3" stroke-miterlimit="10" d="m787.8 417.5c130.7-77.3 237.3-120.6 255.2-96.1 27 37.1-137.1 202.5-366.6 369.6-229.5 167.1-437.3 272.5-464.3 235.5-18.8-25.9 52.7-111.9 177.3-219.8"/></svg>