<?xml version="1.0" encoding="utf-8"?>
<!-- Generator: Adobe Illustrator 15.0.2, SVG Export Plug-In . SVG Version: 6.00 Build 0)  -->
<!DOCTYPE svg PUBLIC "-//W3C//DTD SVG 1.1//EN" "http://www.w3.org/Graphics/SVG/1.1/DTD/svg11.dtd">
<svg version="1.1" id="Layer_1" xmlns="http://www.w3.org/2000/svg" xmlns:xlink="http://www.w3.org/1999/xlink" x="0px" y="0px"
	 width="720.2px" height="727.9px" viewBox="161.7 151.4 720.2 727.9" enable-background="new 161.7 151.4 720.2 727.9"
	 xml:space="preserve">
<g id="Planet__x2B__Orbits">
	<g>
		<g>
			<defs>
				<ellipse id="SVGID_1_" cx="521.9" cy="515.4" rx="360.1" ry="364"/>
			</defs>
			<clipPath id="SVGID_2_">
				<use xlink:href="#SVGID_1_"  overflow="visible"/>
			</clipPath>
			<ellipse clip-path="url(#SVGID_2_)" fill="#C8CFC9" cx="521.9" cy="515.4" rx="360.1" ry="364"/>
		</g>
		<g>
			<defs>
				<ellipse id="SVGID_3_" cx="521.9" cy="515.4" rx="360.1" ry="364"/>
			</defs>
			<clipPath id="SVGID_4_">
				<use xlink:href="#SVGID_3_"  overflow="visible"/>
			</clipPath>
			<g clip-path="url(#SVGID_4_)">
				<g>
					<path fill="#6A6230" d="M316.3,569.9c1.1,0,1.5-1.5,0.2-1.5C315.3,568.4,315,569.9,316.3,569.9L316.3,569.9z"/>
				</g>
			</g>
		</g>
		<g>
			<defs>
				<ellipse id="SVGID_5_" cx="521.9" cy="515.4" rx="360.1" ry="364"/>
			</defs>
			<clipPath id="SVGID_6_">
				<use xlink:href="#SVGID_5_"  overflow="visible"/>
			</clipPath>
			<path clip-path="url(#SVGID_6_)" fill="#47452B" d="M169.8,309.6"/>
		</g>
		<g>
			<defs>
				<ellipse id="SVGID_7_" cx="521.9" cy="515.4" rx="360.1" ry="364"/>
			</defs>
			<clipPath id="SVGID_8_">
				<use xlink:href="#SVGID_7_"  overflow="visible"/>
			</clipPath>
			<path clip-path="url(#SVGID_8_)" fill="#26322C" d="M720.4,675.6"/>
		</g>
		<g>
			<defs>
				<ellipse id="SVGID_9_" cx="521.9" cy="515.4" rx="360.1" ry="364"/>
			</defs>
			<clipPath id="SVGID_10_">
				<use xlink:href="#SVGID_9_"  overflow="visible"/>
			</clipPath>
			<polygon clip-path="url(#SVGID_10_)" fill="#26322C" points="169.8,309.6 160.8,692.5 290,675.2 			"/>
		</g>
		<g>
			<defs>
				<ellipse id="SVGID_11_" cx="521.9" cy="515.4" rx="360.1" ry="364"/>
			</defs>
			<clipPath id="SVGID_12_">
				<use xlink:href="#SVGID_11_"  overflow="visible"/>
			</clipPath>
			<path clip-path="url(#SVGID_12_)" fill="#0B132D" d="M315.7,731.8"/>
		</g>
		<g>
			<defs>
				<ellipse id="SVGID_13_" cx="521.9" cy="515.4" rx="360.1" ry="364"/>
			</defs>
			<clipPath id="SVGID_14_">
				<use xlink:href="#SVGID_13_"  overflow="visible"/>
			</clipPath>
			<g clip-path="url(#SVGID_14_)">
				<g>
					<path fill="#0B132D" d="M560.7,802.3c0.9,0,2-1.3,0.7-1.3C560.5,801,559.4,802.3,560.7,802.3L560.7,802.3z"/>
				</g>
			</g>
		</g>
		<g>
			<defs>
				<ellipse id="SVGID_15_" cx="521.9" cy="515.4" rx="360.1" ry="364"/>
			</defs>
			<clipPath id="SVGID_16_">
				<use xlink:href="#SVGID_15_"  overflow="visible"/>
			</clipPath>
			<line clip-path="url(#SVGID_16_)" fill="none" x1="350.2" y1="296.4" x2="169.5" y2="310.2"/>
		</g>
		<g>
			<defs>
				<ellipse id="SVGID_17_" cx="521.9" cy="515.4" rx="360.1" ry="364"/>
			</defs>
			<clipPath id="SVGID_18_">
				<use xlink:href="#SVGID_17_"  overflow="visible"/>
			</clipPath>
			<polygon clip-path="url(#SVGID_18_)" fill="#929588" points="522.2,113.1 515.1,186.5 511.7,288.6 856,323.8 			"/>
		</g>
		<g>
			<defs>
				<ellipse id="SVGID_19_" cx="521.9" cy="515.4" rx="360.1" ry="364"/>
			</defs>
			<clipPath id="SVGID_20_">
				<use xlink:href="#SVGID_19_"  overflow="visible"/>
			</clipPath>
			<path clip-path="url(#SVGID_20_)" fill="#47452B" d="M170.7,311.5"/>
		</g>
		<g>
			<defs>
				<ellipse id="SVGID_21_" cx="521.9" cy="515.4" rx="360.1" ry="364"/>
			</defs>
			<clipPath id="SVGID_22_">
				<use xlink:href="#SVGID_21_"  overflow="visible"/>
			</clipPath>
			<polygon clip-path="url(#SVGID_22_)" fill="#71461F" points="515.1,285.7 859.4,320.9 721.1,678.9 			"/>
		</g>
		<g>
			<defs>
				<ellipse id="SVGID_23_" cx="521.9" cy="515.4" rx="360.1" ry="364"/>
			</defs>
			<clipPath id="SVGID_24_">
				<use xlink:href="#SVGID_23_"  overflow="visible"/>
			</clipPath>
			<polygon clip-path="url(#SVGID_24_)" fill="#956938" points="515.1,285.7 290.9,677.1 170.7,311.5 			"/>
		</g>
		<g>
			<defs>
				<ellipse id="SVGID_25_" cx="521.9" cy="515.4" rx="360.1" ry="364"/>
			</defs>
			<clipPath id="SVGID_26_">
				<use xlink:href="#SVGID_25_"  overflow="visible"/>
			</clipPath>
			<polygon clip-path="url(#SVGID_26_)" fill="#A4764A" points="290.9,677.1 348.7,572.2 515.1,285.7 666.8,572.7 721.1,678.9 			
				"/>
		</g>
		<g>
			<defs>
				<ellipse id="SVGID_27_" cx="521.9" cy="515.4" rx="360.1" ry="364"/>
			</defs>
			<clipPath id="SVGID_28_">
				<use xlink:href="#SVGID_27_"  overflow="visible"/>
			</clipPath>
			<polygon clip-path="url(#SVGID_28_)" fill="#C3D3D7" points="666.8,572.7 807.8,472.2 721.4,699.7 			"/>
		</g>
		<g>
			<defs>
				<ellipse id="SVGID_29_" cx="521.9" cy="515.4" rx="360.1" ry="364"/>
			</defs>
			<clipPath id="SVGID_30_">
				<use xlink:href="#SVGID_29_"  overflow="visible"/>
			</clipPath>
			<polygon clip-path="url(#SVGID_30_)" fill="#AFC0C6" points="170.7,311.5 161.8,694.4 290.9,677.1 			"/>
		</g>
		<g>
			<defs>
				<ellipse id="SVGID_31_" cx="521.9" cy="515.4" rx="360.1" ry="364"/>
			</defs>
			<clipPath id="SVGID_32_">
				<use xlink:href="#SVGID_31_"  overflow="visible"/>
			</clipPath>
			<polygon clip-path="url(#SVGID_32_)" fill="#9A988C" points="170.7,311.5 525.6,110.2 519.9,183.9 515.1,285.7 284.7,304.1 			
				"/>
		</g>
		<g>
			<defs>
				<ellipse id="SVGID_33_" cx="521.9" cy="515.4" rx="360.1" ry="364"/>
			</defs>
			<clipPath id="SVGID_34_">
				<use xlink:href="#SVGID_33_"  overflow="visible"/>
			</clipPath>
			<polygon clip-path="url(#SVGID_34_)" fill="#D3BCA0" points="859.4,320.9 905.1,539.8 828,780.3 721.1,678.9 			"/>
		</g>
		<g>
			<defs>
				<ellipse id="SVGID_35_" cx="521.9" cy="515.4" rx="360.1" ry="364"/>
			</defs>
			<clipPath id="SVGID_36_">
				<use xlink:href="#SVGID_35_"  overflow="visible"/>
			</clipPath>
			<path clip-path="url(#SVGID_36_)" fill="#0B132D" d="M316.7,733.7"/>
		</g>
		<g>
			<defs>
				<ellipse id="SVGID_37_" cx="521.9" cy="515.4" rx="360.1" ry="364"/>
			</defs>
			<clipPath id="SVGID_38_">
				<use xlink:href="#SVGID_37_"  overflow="visible"/>
			</clipPath>
			<polygon clip-path="url(#SVGID_38_)" fill="#808077" points="157.7,693 290.9,677.1 443.4,840.5 511.1,918.3 			"/>
		</g>
		<g>
			<defs>
				<ellipse id="SVGID_39_" cx="521.9" cy="515.4" rx="360.1" ry="364"/>
			</defs>
			<clipPath id="SVGID_40_">
				<use xlink:href="#SVGID_39_"  overflow="visible"/>
			</clipPath>
			<g clip-path="url(#SVGID_40_)">
				<g>
					<path fill="#0B132D" d="M561.6,804.2c0.9,0,2-1.3,0.7-1.3C561.5,802.9,560.3,804.2,561.6,804.2L561.6,804.2z"/>
				</g>
			</g>
		</g>
		<g>
			<defs>
				<ellipse id="SVGID_41_" cx="521.9" cy="515.4" rx="360.1" ry="364"/>
			</defs>
			<clipPath id="SVGID_42_">
				<use xlink:href="#SVGID_41_"  overflow="visible"/>
			</clipPath>
			<polygon clip-path="url(#SVGID_42_)" fill="#6F6B5F" points="290.9,677.1 513.7,669.2 721.1,678.9 511.1,918.3 440.9,842.5 			
				"/>
		</g>
		<g>
			<defs>
				<ellipse id="SVGID_43_" cx="521.9" cy="515.4" rx="360.1" ry="364"/>
			</defs>
			<clipPath id="SVGID_44_">
				<use xlink:href="#SVGID_43_"  overflow="visible"/>
			</clipPath>
			<polygon clip-path="url(#SVGID_44_)" fill="#7A7367" points="721.1,678.9 828,780.3 511.1,918.3 601.9,811.2 			"/>
		</g>
		<g>
			<defs>
				<ellipse id="SVGID_45_" cx="521.9" cy="515.4" rx="360.1" ry="364"/>
			</defs>
			<clipPath id="SVGID_46_">
				<use xlink:href="#SVGID_45_"  overflow="visible"/>
			</clipPath>
			<polygon clip-path="url(#SVGID_46_)" fill="#7B5338" points="129.9,495.9 170.2,309.2 233.1,500.8 			"/>
		</g>
		<g>
			<defs>
				<ellipse id="SVGID_47_" cx="521.9" cy="515.4" rx="360.1" ry="364"/>
			</defs>
			<clipPath id="SVGID_48_">
				<use xlink:href="#SVGID_47_"  overflow="visible"/>
			</clipPath>
			<polygon clip-path="url(#SVGID_48_)" fill="#BCC3C6" points="904.1,541.1 721.1,678.9 827.2,781.8 			"/>
		</g>
		<g>
			<defs>
				<ellipse id="SVGID_49_" cx="521.9" cy="515.4" rx="360.1" ry="364"/>
			</defs>
			<clipPath id="SVGID_50_">
				<use xlink:href="#SVGID_49_"  overflow="visible"/>
			</clipPath>
			<polygon clip-path="url(#SVGID_50_)" fill="#B1B8AD" points="290.9,677.1 484.3,634.7 667.5,662.6 721.1,678.9 513.8,673.5 			
				"/>
		</g>
		<g>
			<defs>
				<ellipse id="SVGID_51_" cx="521.9" cy="515.4" rx="360.1" ry="364"/>
			</defs>
			<clipPath id="SVGID_52_">
				<use xlink:href="#SVGID_51_"  overflow="visible"/>
			</clipPath>
			<polygon clip-path="url(#SVGID_52_)" fill="#959289" points="284.7,304.1 395.9,495 515.1,285.7 			"/>
		</g>
		<g>
			<defs>
				<ellipse id="SVGID_53_" cx="521.9" cy="515.4" rx="360.1" ry="364"/>
			</defs>
			<clipPath id="SVGID_54_">
				<use xlink:href="#SVGID_53_"  overflow="visible"/>
			</clipPath>
			<polygon clip-path="url(#SVGID_54_)" fill="#95877F" points="170.2,309.2 284.7,304.1 337.1,393.3 			"/>
		</g>
		<g>
			<defs>
				<ellipse id="SVGID_55_" cx="521.9" cy="515.4" rx="360.1" ry="364"/>
			</defs>
			<clipPath id="SVGID_56_">
				<use xlink:href="#SVGID_55_"  overflow="visible"/>
			</clipPath>
			<polygon clip-path="url(#SVGID_56_)" fill="#9A988C" points="337.1,393.3 223.3,471.4 170.2,309.2 			"/>
		</g>
		<g>
			<defs>
				<ellipse id="SVGID_57_" cx="521.9" cy="515.4" rx="360.1" ry="364"/>
			</defs>
			<clipPath id="SVGID_58_">
				<use xlink:href="#SVGID_57_"  overflow="visible"/>
			</clipPath>
			<polygon clip-path="url(#SVGID_58_)" fill="#9A988C" points="337.1,393.3 355.6,373.8 284.7,304.1 			"/>
		</g>
		<g>
			<defs>
				<ellipse id="SVGID_59_" cx="521.9" cy="515.4" rx="360.1" ry="364"/>
			</defs>
			<clipPath id="SVGID_60_">
				<use xlink:href="#SVGID_59_"  overflow="visible"/>
			</clipPath>
			<polygon clip-path="url(#SVGID_60_)" fill="#BCC3C6" points="355.6,373.8 515.1,285.7 284.7,304.1 			"/>
		</g>
		<g>
			<defs>
				<ellipse id="SVGID_61_" cx="521.9" cy="515.4" rx="360.1" ry="364"/>
			</defs>
			<clipPath id="SVGID_62_">
				<use xlink:href="#SVGID_61_"  overflow="visible"/>
			</clipPath>
			<polygon clip-path="url(#SVGID_62_)" fill="#808077" points="355.6,373.8 437.1,421.9 337.1,393.3 			"/>
		</g>
		<g>
			<defs>
				<ellipse id="SVGID_63_" cx="521.9" cy="515.4" rx="360.1" ry="364"/>
			</defs>
			<clipPath id="SVGID_64_">
				<use xlink:href="#SVGID_63_"  overflow="visible"/>
			</clipPath>
			<polygon clip-path="url(#SVGID_64_)" fill="#959289" points="355.6,373.8 437.1,421.9 458.8,316.5 			"/>
		</g>
		<g>
			<defs>
				<ellipse id="SVGID_65_" cx="521.9" cy="515.4" rx="360.1" ry="364"/>
			</defs>
			<clipPath id="SVGID_66_">
				<use xlink:href="#SVGID_65_"  overflow="visible"/>
			</clipPath>
			<polygon clip-path="url(#SVGID_66_)" fill="#A4764A" points="284.7,304.1 357.6,255.6 515.1,285.7 			"/>
		</g>
		<g>
			<defs>
				<ellipse id="SVGID_67_" cx="521.9" cy="515.4" rx="360.1" ry="364"/>
			</defs>
			<clipPath id="SVGID_68_">
				<use xlink:href="#SVGID_67_"  overflow="visible"/>
			</clipPath>
			<path clip-path="url(#SVGID_68_)" fill="#32311A" d="M168.1,309.7"/>
		</g>
		<g>
			<defs>
				<ellipse id="SVGID_69_" cx="521.9" cy="515.4" rx="360.1" ry="364"/>
			</defs>
			<clipPath id="SVGID_70_">
				<use xlink:href="#SVGID_69_"  overflow="visible"/>
			</clipPath>
			<path clip-path="url(#SVGID_70_)" fill="#38371F" d="M170.2,309.2"/>
		</g>
		<g>
			<defs>
				<ellipse id="SVGID_71_" cx="521.9" cy="515.4" rx="360.1" ry="364"/>
			</defs>
			<clipPath id="SVGID_72_">
				<use xlink:href="#SVGID_71_"  overflow="visible"/>
			</clipPath>
			<polygon clip-path="url(#SVGID_72_)" fill="#BC8044" points="284.7,304.1 170.2,309.2 357.6,255.6 			"/>
		</g>
		<g>
			<defs>
				<ellipse id="SVGID_73_" cx="521.9" cy="515.4" rx="360.1" ry="364"/>
			</defs>
			<clipPath id="SVGID_74_">
				<use xlink:href="#SVGID_73_"  overflow="visible"/>
			</clipPath>
			<polygon clip-path="url(#SVGID_74_)" fill="#ACB1AD" points="168.1,309.7 348.1,176.9 357.6,255.6 			"/>
		</g>
		<g>
			<defs>
				<ellipse id="SVGID_75_" cx="521.9" cy="515.4" rx="360.1" ry="364"/>
			</defs>
			<clipPath id="SVGID_76_">
				<use xlink:href="#SVGID_75_"  overflow="visible"/>
			</clipPath>
			<polygon clip-path="url(#SVGID_76_)" fill="#8C7761" points="525.6,107.8 348.1,176.9 345,202.7 			"/>
		</g>
		<g>
			<defs>
				<ellipse id="SVGID_77_" cx="521.9" cy="515.4" rx="360.1" ry="364"/>
			</defs>
			<clipPath id="SVGID_78_">
				<use xlink:href="#SVGID_77_"  overflow="visible"/>
			</clipPath>
			<polygon clip-path="url(#SVGID_78_)" fill="#D3BCA0" points="357.6,255.6 345,202.7 519.9,183.9 			"/>
		</g>
		<g>
			<defs>
				<ellipse id="SVGID_79_" cx="521.9" cy="515.4" rx="360.1" ry="364"/>
			</defs>
			<clipPath id="SVGID_80_">
				<use xlink:href="#SVGID_79_"  overflow="visible"/>
			</clipPath>
			<polygon clip-path="url(#SVGID_80_)" fill="#B5AB9C" points="519.9,183.9 523.7,108.5 345,202.7 			"/>
		</g>
		<g>
			<defs>
				<ellipse id="SVGID_81_" cx="521.9" cy="515.4" rx="360.1" ry="364"/>
			</defs>
			<clipPath id="SVGID_82_">
				<use xlink:href="#SVGID_81_"  overflow="visible"/>
			</clipPath>
			<polygon clip-path="url(#SVGID_82_)" fill="#877865" points="525.6,107.8 712.7,185.5 654,218.7 			"/>
		</g>
		<g>
			<defs>
				<ellipse id="SVGID_83_" cx="521.9" cy="515.4" rx="360.1" ry="364"/>
			</defs>
			<clipPath id="SVGID_84_">
				<use xlink:href="#SVGID_83_"  overflow="visible"/>
			</clipPath>
			<polygon clip-path="url(#SVGID_84_)" fill="#C3D1D7" points="857,318.9 711.5,184.3 654,218.7 			"/>
		</g>
		<g>
			<defs>
				<ellipse id="SVGID_85_" cx="521.9" cy="515.4" rx="360.1" ry="364"/>
			</defs>
			<clipPath id="SVGID_86_">
				<use xlink:href="#SVGID_85_"  overflow="visible"/>
			</clipPath>
			<polygon clip-path="url(#SVGID_86_)" fill="#686557" points="509.4,920.5 440.9,842.5 540.4,881.2 			"/>
		</g>
		<g>
			<defs>
				<ellipse id="SVGID_87_" cx="521.9" cy="515.4" rx="360.1" ry="364"/>
			</defs>
			<clipPath id="SVGID_88_">
				<use xlink:href="#SVGID_87_"  overflow="visible"/>
			</clipPath>
			<polygon clip-path="url(#SVGID_88_)" fill="#555A54" points="509.4,920.5 331.8,852.5 340.6,800.3 			"/>
		</g>
		<g>
			<defs>
				<ellipse id="SVGID_89_" cx="521.9" cy="515.4" rx="360.1" ry="364"/>
			</defs>
			<clipPath id="SVGID_90_">
				<use xlink:href="#SVGID_89_"  overflow="visible"/>
			</clipPath>
			<polygon clip-path="url(#SVGID_90_)" fill="#5F6662" points="340.6,800.3 440.9,842.5 509.4,920.5 			"/>
		</g>
		<g>
			<defs>
				<ellipse id="SVGID_91_" cx="521.9" cy="515.4" rx="360.1" ry="364"/>
			</defs>
			<clipPath id="SVGID_92_">
				<use xlink:href="#SVGID_91_"  overflow="visible"/>
			</clipPath>
			<polygon clip-path="url(#SVGID_92_)" fill="#645D52" points="336.1,853.1 285.4,773.7 340.6,800.3 			"/>
		</g>
		<g>
			<defs>
				<ellipse id="SVGID_93_" cx="521.9" cy="515.4" rx="360.1" ry="364"/>
			</defs>
			<clipPath id="SVGID_94_">
				<use xlink:href="#SVGID_93_"  overflow="visible"/>
			</clipPath>
			<polygon clip-path="url(#SVGID_94_)" fill="#84847A" points="340.6,800.3 378.7,772 440.9,842.5 			"/>
		</g>
		<g>
			<defs>
				<ellipse id="SVGID_95_" cx="521.9" cy="515.4" rx="360.1" ry="364"/>
			</defs>
			<clipPath id="SVGID_96_">
				<use xlink:href="#SVGID_95_"  overflow="visible"/>
			</clipPath>
			<polygon clip-path="url(#SVGID_96_)" fill="#5D6867" points="509.4,920.5 563.3,920.5 567.6,892.3 			"/>
		</g>
		<g>
			<defs>
				<ellipse id="SVGID_97_" cx="521.9" cy="515.4" rx="360.1" ry="364"/>
			</defs>
			<clipPath id="SVGID_98_">
				<use xlink:href="#SVGID_97_"  overflow="visible"/>
			</clipPath>
			<polygon clip-path="url(#SVGID_98_)" fill="#555A54" points="540.4,881.2 567.6,892.3 509.4,920.5 			"/>
		</g>
		<g>
			<defs>
				<ellipse id="SVGID_99_" cx="521.9" cy="515.4" rx="360.1" ry="364"/>
			</defs>
			<clipPath id="SVGID_100_">
				<use xlink:href="#SVGID_99_"  overflow="visible"/>
			</clipPath>
			<polygon clip-path="url(#SVGID_100_)" fill="#554C3F" points="160.7,693.6 298.6,780.1 336.1,853.1 			"/>
		</g>
		<g>
			<defs>
				<ellipse id="SVGID_101_" cx="521.9" cy="515.4" rx="360.1" ry="364"/>
			</defs>
			<clipPath id="SVGID_102_">
				<use xlink:href="#SVGID_101_"  overflow="visible"/>
			</clipPath>
			<polygon clip-path="url(#SVGID_102_)" fill="#686557" points="567.6,892.3 645.7,884.4 563.3,920.5 			"/>
		</g>
		<g>
			<defs>
				<ellipse id="SVGID_103_" cx="521.9" cy="515.4" rx="360.1" ry="364"/>
			</defs>
			<clipPath id="SVGID_104_">
				<use xlink:href="#SVGID_103_"  overflow="visible"/>
			</clipPath>
			<polygon clip-path="url(#SVGID_104_)" fill="#6C675B" points="828.2,780.5 645.7,884.4 651.1,856.2 			"/>
		</g>
		<g>
			<defs>
				<ellipse id="SVGID_105_" cx="521.9" cy="515.4" rx="360.1" ry="364"/>
			</defs>
			<clipPath id="SVGID_106_">
				<use xlink:href="#SVGID_105_"  overflow="visible"/>
			</clipPath>
			<polygon clip-path="url(#SVGID_106_)" fill="#6C553B" points="567.6,892.3 601.9,811.2 645.7,884.4 			"/>
		</g>
		<g>
			<defs>
				<ellipse id="SVGID_107_" cx="521.9" cy="515.4" rx="360.1" ry="364"/>
			</defs>
			<clipPath id="SVGID_108_">
				<use xlink:href="#SVGID_107_"  overflow="visible"/>
			</clipPath>
			<polygon clip-path="url(#SVGID_108_)" fill="#6B5E51" points="651.1,856.2 601.9,811.2 645.7,884.4 			"/>
		</g>
		<g>
			<defs>
				<ellipse id="SVGID_109_" cx="521.9" cy="515.4" rx="360.1" ry="364"/>
			</defs>
			<clipPath id="SVGID_110_">
				<use xlink:href="#SVGID_109_"  overflow="visible"/>
			</clipPath>
			<polygon clip-path="url(#SVGID_110_)" fill="#7C7364" points="440.9,842.5 601.9,811.2 540.4,881.2 			"/>
		</g>
		<g>
			<defs>
				<ellipse id="SVGID_111_" cx="521.9" cy="515.4" rx="360.1" ry="364"/>
			</defs>
			<clipPath id="SVGID_112_">
				<use xlink:href="#SVGID_111_"  overflow="visible"/>
			</clipPath>
			<polygon clip-path="url(#SVGID_112_)" fill="#655748" points="540.4,881.2 567.6,892.3 601.9,811.2 			"/>
		</g>
		<g>
			<defs>
				<ellipse id="SVGID_113_" cx="521.9" cy="515.4" rx="360.1" ry="364"/>
			</defs>
			<clipPath id="SVGID_114_">
				<use xlink:href="#SVGID_113_"  overflow="visible"/>
			</clipPath>
			<polygon clip-path="url(#SVGID_114_)" fill="#C0CCCF" points="721.1,678.9 666.8,572.7 668.2,665.2 			"/>
		</g>
		<g>
			<defs>
				<ellipse id="SVGID_115_" cx="521.9" cy="515.4" rx="360.1" ry="364"/>
			</defs>
			<clipPath id="SVGID_116_">
				<use xlink:href="#SVGID_115_"  overflow="visible"/>
			</clipPath>
			<polygon clip-path="url(#SVGID_116_)" fill="#6F6B5F" points="519.9,183.9 627,297.4 515.1,285.7 			"/>
		</g>
		<g>
			<defs>
				<ellipse id="SVGID_117_" cx="521.9" cy="515.4" rx="360.1" ry="364"/>
			</defs>
			<clipPath id="SVGID_118_">
				<use xlink:href="#SVGID_117_"  overflow="visible"/>
			</clipPath>
			<polygon clip-path="url(#SVGID_118_)" fill="#968B79" points="654,218.7 519.9,183.9 524.7,108.3 			"/>
		</g>
		<g>
			<defs>
				<ellipse id="SVGID_119_" cx="521.9" cy="515.4" rx="360.1" ry="364"/>
			</defs>
			<clipPath id="SVGID_120_">
				<use xlink:href="#SVGID_119_"  overflow="visible"/>
			</clipPath>
			<polygon clip-path="url(#SVGID_120_)" fill="#BC8044" points="515.1,285.7 664.6,272.9 861.1,321.6 			"/>
		</g>
		<g>
			<defs>
				<ellipse id="SVGID_121_" cx="521.9" cy="515.4" rx="360.1" ry="364"/>
			</defs>
			<clipPath id="SVGID_122_">
				<use xlink:href="#SVGID_121_"  overflow="visible"/>
			</clipPath>
			<polygon clip-path="url(#SVGID_122_)" fill="#8B7258" points="654,218.7 608.4,277.7 664.6,272.9 			"/>
		</g>
		<g>
			<defs>
				<ellipse id="SVGID_123_" cx="521.9" cy="515.4" rx="360.1" ry="364"/>
			</defs>
			<clipPath id="SVGID_124_">
				<use xlink:href="#SVGID_123_"  overflow="visible"/>
			</clipPath>
			<polygon clip-path="url(#SVGID_124_)" fill="#B3BBB8" points="906.5,541.6 812,496.5 721.1,678.9 			"/>
		</g>
		<g>
			<defs>
				<ellipse id="SVGID_125_" cx="521.9" cy="515.4" rx="360.1" ry="364"/>
			</defs>
			<clipPath id="SVGID_126_">
				<use xlink:href="#SVGID_125_"  overflow="visible"/>
			</clipPath>
			<polygon clip-path="url(#SVGID_126_)" fill="#8B7258" points="484.4,635 515.1,285.7 437.4,422.6 395.9,494.9 			"/>
		</g>
		<g>
			<defs>
				<ellipse id="SVGID_127_" cx="521.9" cy="515.4" rx="360.1" ry="364"/>
			</defs>
			<clipPath id="SVGID_128_">
				<use xlink:href="#SVGID_127_"  overflow="visible"/>
			</clipPath>
			<polygon clip-path="url(#SVGID_128_)" fill="#C8CFC9" points="485.6,635.8 674,666.7 666.8,572.7 485.7,635.7 513.8,673.5 
				292.2,678.2 			"/>
		</g>
		<g>
			<defs>
				<ellipse id="SVGID_129_" cx="521.9" cy="515.4" rx="360.1" ry="364"/>
			</defs>
			<clipPath id="SVGID_130_">
				<use xlink:href="#SVGID_129_"  overflow="visible"/>
			</clipPath>
			<polygon clip-path="url(#SVGID_130_)" fill="#6F6B5F" points="593.5,434.6 861.1,321.6 515.1,285.7 			"/>
		</g>
		<g>
			<defs>
				<ellipse id="SVGID_131_" cx="521.9" cy="515.4" rx="360.1" ry="364"/>
			</defs>
			<clipPath id="SVGID_132_">
				<use xlink:href="#SVGID_131_"  overflow="visible"/>
			</clipPath>
			<polygon clip-path="url(#SVGID_132_)" fill="#959289" points="440.9,842.5 513.8,673.5 290.9,677.1 			"/>
		</g>
		<g>
			<defs>
				<ellipse id="SVGID_133_" cx="521.9" cy="515.4" rx="360.1" ry="364"/>
			</defs>
			<clipPath id="SVGID_134_">
				<use xlink:href="#SVGID_133_"  overflow="visible"/>
			</clipPath>
			<polygon clip-path="url(#SVGID_134_)" fill="#624D36" points="223.3,471.4 395.8,494.5 337.1,393.3 			"/>
		</g>
		<g>
			<defs>
				<ellipse id="SVGID_135_" cx="521.9" cy="515.4" rx="360.1" ry="364"/>
			</defs>
			<clipPath id="SVGID_136_">
				<use xlink:href="#SVGID_135_"  overflow="visible"/>
			</clipPath>
			<polygon clip-path="url(#SVGID_136_)" fill="#95877F" points="223.3,471.4 144.8,423.4 169.8,309.6 			"/>
		</g>
		<g>
			<defs>
				<ellipse id="SVGID_137_" cx="521.9" cy="515.4" rx="360.1" ry="364"/>
			</defs>
			<clipPath id="SVGID_138_">
				<use xlink:href="#SVGID_137_"  overflow="visible"/>
			</clipPath>
			<polygon clip-path="url(#SVGID_138_)" fill="#C3D3D7" points="593.5,434.6 799.6,475.7 861.1,321.6 724.2,377.8 			"/>
		</g>
		<g>
			<defs>
				<ellipse id="SVGID_139_" cx="521.9" cy="515.4" rx="360.1" ry="364"/>
			</defs>
			<clipPath id="SVGID_140_">
				<use xlink:href="#SVGID_139_"  overflow="visible"/>
			</clipPath>
			<polygon clip-path="url(#SVGID_140_)" fill="#7B6851" points="799.6,475.7 878.3,413.1 859.4,320.9 			"/>
		</g>
		<g>
			<defs>
				<ellipse id="SVGID_141_" cx="521.9" cy="515.4" rx="360.1" ry="364"/>
			</defs>
			<clipPath id="SVGID_142_">
				<use xlink:href="#SVGID_141_"  overflow="visible"/>
			</clipPath>
			<polygon clip-path="url(#SVGID_142_)" fill="#BCC3C6" points="395.8,494.5 593.5,434.6 515.1,285.7 437.1,421.9 			"/>
		</g>
		<g>
			<defs>
				<ellipse id="SVGID_143_" cx="521.9" cy="515.4" rx="360.1" ry="364"/>
			</defs>
			<clipPath id="SVGID_144_">
				<use xlink:href="#SVGID_143_"  overflow="visible"/>
			</clipPath>
			<polygon clip-path="url(#SVGID_144_)" fill="#B1B8AD" points="484.2,634.9 348.7,572.2 288,677.9 			"/>
		</g>
		<g>
			<defs>
				<ellipse id="SVGID_145_" cx="521.9" cy="515.4" rx="360.1" ry="364"/>
			</defs>
			<clipPath id="SVGID_146_">
				<use xlink:href="#SVGID_145_"  overflow="visible"/>
			</clipPath>
			<polygon clip-path="url(#SVGID_146_)" fill="#9A988C" points="440.9,842.5 408,675.5 290.7,677.3 			"/>
		</g>
		<g>
			<defs>
				<ellipse id="SVGID_147_" cx="521.9" cy="515.4" rx="360.1" ry="364"/>
			</defs>
			<clipPath id="SVGID_148_">
				<use xlink:href="#SVGID_147_"  overflow="visible"/>
			</clipPath>
			<polygon clip-path="url(#SVGID_148_)" fill="#B4BEC0" points="408,675.5 484.3,634.7 290.7,677.3 			"/>
		</g>
		<g>
			<defs>
				<ellipse id="SVGID_149_" cx="521.9" cy="515.4" rx="360.1" ry="364"/>
			</defs>
			<clipPath id="SVGID_150_">
				<use xlink:href="#SVGID_149_"  overflow="visible"/>
			</clipPath>
			<polygon clip-path="url(#SVGID_150_)" fill="#B3C2C8" points="196.1,596.3 290.7,677.3 160.8,692.5 			"/>
		</g>
		<g>
			<defs>
				<ellipse id="SVGID_151_" cx="521.9" cy="515.4" rx="360.1" ry="364"/>
			</defs>
			<clipPath id="SVGID_152_">
				<use xlink:href="#SVGID_151_"  overflow="visible"/>
			</clipPath>
			<polygon clip-path="url(#SVGID_152_)" fill="#87989E" points="129.9,495.9 196.1,596.3 160.8,692.5 			"/>
		</g>
		<g>
			<defs>
				<ellipse id="SVGID_153_" cx="521.9" cy="515.4" rx="360.1" ry="364"/>
			</defs>
			<clipPath id="SVGID_154_">
				<use xlink:href="#SVGID_153_"  overflow="visible"/>
			</clipPath>
			<polygon clip-path="url(#SVGID_154_)" fill="#CBC9BC" points="348.7,572.2 233.1,500.8 290,675.2 			"/>
		</g>
		<g>
			<defs>
				<ellipse id="SVGID_155_" cx="521.9" cy="515.4" rx="360.1" ry="364"/>
			</defs>
			<clipPath id="SVGID_156_">
				<use xlink:href="#SVGID_155_"  overflow="visible"/>
			</clipPath>
			<polygon clip-path="url(#SVGID_156_)" fill="#68473A" points="233.1,500.8 318.8,483.8 223.3,471.4 			"/>
		</g>
		<g>
			<defs>
				<ellipse id="SVGID_157_" cx="521.9" cy="515.4" rx="360.1" ry="364"/>
			</defs>
			<clipPath id="SVGID_158_">
				<use xlink:href="#SVGID_157_"  overflow="visible"/>
			</clipPath>
			<polygon clip-path="url(#SVGID_158_)" fill="#95877F" points="316.9,484.5 337.1,393.3 223.3,471.4 			"/>
		</g>
		<g>
			<defs>
				<ellipse id="SVGID_159_" cx="521.9" cy="515.4" rx="360.1" ry="364"/>
			</defs>
			<clipPath id="SVGID_160_">
				<use xlink:href="#SVGID_159_"  overflow="visible"/>
			</clipPath>
			<polygon clip-path="url(#SVGID_160_)" fill="#F8D9B5" points="337.1,393.3 193.4,383.4 223.3,471.4 			"/>
		</g>
		<g>
			<defs>
				<ellipse id="SVGID_161_" cx="521.9" cy="515.4" rx="360.1" ry="364"/>
			</defs>
			<clipPath id="SVGID_162_">
				<use xlink:href="#SVGID_161_"  overflow="visible"/>
			</clipPath>
			<polygon clip-path="url(#SVGID_162_)" fill="#7D5E44" points="144.8,423.4 193.4,383.4 223.3,471.4 			"/>
		</g>
		<g>
			<defs>
				<ellipse id="SVGID_163_" cx="521.9" cy="515.4" rx="360.1" ry="364"/>
			</defs>
			<clipPath id="SVGID_164_">
				<use xlink:href="#SVGID_163_"  overflow="visible"/>
			</clipPath>
			<polygon clip-path="url(#SVGID_164_)" fill="#5A4431" points="437.1,421.9 499.1,463.6 395.8,494.5 			"/>
		</g>
		<g>
			<defs>
				<ellipse id="SVGID_165_" cx="521.9" cy="515.4" rx="360.1" ry="364"/>
			</defs>
			<clipPath id="SVGID_166_">
				<use xlink:href="#SVGID_165_"  overflow="visible"/>
			</clipPath>
			<polygon clip-path="url(#SVGID_166_)" fill="#959289" points="437.1,421.9 499.1,463.6 593.5,434.6 			"/>
		</g>
		<g>
			<defs>
				<ellipse id="SVGID_167_" cx="521.9" cy="515.4" rx="360.1" ry="364"/>
			</defs>
			<clipPath id="SVGID_168_">
				<use xlink:href="#SVGID_167_"  overflow="visible"/>
			</clipPath>
			<polygon clip-path="url(#SVGID_168_)" fill="#9F7C5E" points="484.3,634.7 593.5,434.6 499.1,463.6 			"/>
		</g>
		<g>
			<defs>
				<ellipse id="SVGID_169_" cx="521.9" cy="515.4" rx="360.1" ry="364"/>
			</defs>
			<clipPath id="SVGID_170_">
				<use xlink:href="#SVGID_169_"  overflow="visible"/>
			</clipPath>
			<polygon clip-path="url(#SVGID_170_)" fill="#8D725C" points="799.6,475.7 724.2,377.8 859.4,320.9 			"/>
		</g>
		<g>
			<defs>
				<ellipse id="SVGID_171_" cx="521.9" cy="515.4" rx="360.1" ry="364"/>
			</defs>
			<clipPath id="SVGID_172_">
				<use xlink:href="#SVGID_171_"  overflow="visible"/>
			</clipPath>
			<polygon clip-path="url(#SVGID_172_)" fill="#7A7367" points="724.2,377.8 515.1,285.7 685.6,300.4 859.4,320.9 			"/>
		</g>
		<g>
			<defs>
				<ellipse id="SVGID_173_" cx="521.9" cy="515.4" rx="360.1" ry="364"/>
			</defs>
			<clipPath id="SVGID_174_">
				<use xlink:href="#SVGID_173_"  overflow="visible"/>
			</clipPath>
			<polygon clip-path="url(#SVGID_174_)" fill="#5B4D3E" points="515.1,285.7 685.6,300.4 724.2,377.8 			"/>
		</g>
		<g>
			<defs>
				<ellipse id="SVGID_175_" cx="521.9" cy="515.4" rx="360.1" ry="364"/>
			</defs>
			<clipPath id="SVGID_176_">
				<use xlink:href="#SVGID_175_"  overflow="visible"/>
			</clipPath>
			<polygon clip-path="url(#SVGID_176_)" fill="#947F68" points="160.7,693.6 129.9,495.9 232.9,499.1 			"/>
		</g>
		<g>
			<defs>
				<ellipse id="SVGID_177_" cx="521.9" cy="515.4" rx="360.1" ry="364"/>
			</defs>
			<clipPath id="SVGID_178_">
				<use xlink:href="#SVGID_177_"  overflow="visible"/>
			</clipPath>
			<polygon clip-path="url(#SVGID_178_)" fill="#7B6851" points="348.7,572.2 129.9,495.9 232.9,499.1 			"/>
		</g>
		<g>
			<defs>
				<ellipse id="SVGID_179_" cx="521.9" cy="515.4" rx="360.1" ry="364"/>
			</defs>
			<clipPath id="SVGID_180_">
				<use xlink:href="#SVGID_179_"  overflow="visible"/>
			</clipPath>
			<polygon clip-path="url(#SVGID_180_)" fill="#8B7258" points="666.8,572.7 884.5,530.3 812,496.3 			"/>
		</g>
		<g>
			<defs>
				<ellipse id="SVGID_181_" cx="521.9" cy="515.4" rx="360.1" ry="364"/>
			</defs>
			<clipPath id="SVGID_182_">
				<use xlink:href="#SVGID_181_"  overflow="visible"/>
			</clipPath>
			<polygon clip-path="url(#SVGID_182_)" fill="#BC8044" points="666.8,572.7 812,496.3 799.8,475.7 			"/>
		</g>
		<g>
			<defs>
				<ellipse id="SVGID_183_" cx="521.9" cy="515.4" rx="360.1" ry="364"/>
			</defs>
			<clipPath id="SVGID_184_">
				<use xlink:href="#SVGID_183_"  overflow="visible"/>
			</clipPath>
			
				<ellipse opacity="0.3" clip-path="url(#SVGID_184_)" fill="#BC8044" enable-background="new    " cx="417.4" cy="632.4" rx="84.5" ry="39.8"/>
		</g>
		<g>
			<defs>
				<ellipse id="SVGID_185_" cx="521.9" cy="515.4" rx="360.1" ry="364"/>
			</defs>
			<clipPath id="SVGID_186_">
				<use xlink:href="#SVGID_185_"  overflow="visible"/>
			</clipPath>
			<path opacity="0.4" clip-path="url(#SVGID_186_)" fill="#FFFFE3" enable-background="new    " d="M432.9,593.3
				c0,0,106.9,10.1,30.8,66.2C386.1,716.7,166.6,687,166.6,687l18.3,101.8C184.8,788.8,725.9,618.3,432.9,593.3z"/>
		</g>
		<g>
			<defs>
				<ellipse id="SVGID_187_" cx="521.9" cy="515.4" rx="360.1" ry="364"/>
			</defs>
			<clipPath id="SVGID_188_">
				<use xlink:href="#SVGID_187_"  overflow="visible"/>
			</clipPath>
			<path opacity="0.4" clip-path="url(#SVGID_188_)" fill="#FFFFE3" enable-background="new    " d="M404.3,672.1
				c0,0-105.7-17.9-38.3-66.3c89.1-64,545.6-83.2,545.6-83.2l-47.8-167.9C863.8,354.8,71,643.7,404.3,672.1z"/>
		</g>
	</g>
</g>
</svg>
