<?xml version="1.0" encoding="utf-8"?>
<!-- Generator: Adobe Illustrator 15.0.2, SVG Export Plug-In . SVG Version: 6.00 Build 0)  -->
<!DOCTYPE svg PUBLIC "-//W3C//DTD SVG 1.1//EN" "http://www.w3.org/Graphics/SVG/1.1/DTD/svg11.dtd">
<svg version="1.1" id="Layer_1" xmlns="http://www.w3.org/2000/svg" xmlns:xlink="http://www.w3.org/1999/xlink" x="0px" y="0px"
	 width="284.2px" height="280.5px" viewBox="374.4 375.7 284.2 280.5" enable-background="new 374.4 375.7 284.2 280.5"
	 xml:space="preserve">
<rect x="-4341.1" y="-1389.8" display="none" width="4781" height="2764.8"/>
<g id="Planet__x2B__Rings">
	<g>
		<g>
			<defs>
				<ellipse id="SVGID_1_" cx="516.5" cy="515.9" rx="142.1" ry="140.2"/>
			</defs>
			<clipPath id="SVGID_2_">
				<use xlink:href="#SVGID_1_"  overflow="visible"/>
			</clipPath>
			<path clip-path="url(#SVGID_2_)" fill="#894920" d="M375.8,515.9c0-76.7,63-138.9,140.8-138.9c77.7,0,140.8,62.2,140.8,138.9
				c0,76.7-63,138.9-140.8,138.9C438.8,654.8,375.8,592.7,375.8,515.9z"/>
		</g>
		<g>
			<defs>
				<ellipse id="SVGID_3_" cx="516.5" cy="515.9" rx="142.1" ry="140.2"/>
			</defs>
			<clipPath id="SVGID_4_">
				<use xlink:href="#SVGID_3_"  overflow="visible"/>
			</clipPath>
			<polygon clip-path="url(#SVGID_4_)" fill="#2F2113" points="433.1,656.6 582,658.2 575.8,606.5 506.4,631.2 			"/>
		</g>
		<g>
			<defs>
				<ellipse id="SVGID_5_" cx="516.5" cy="515.9" rx="142.1" ry="140.2"/>
			</defs>
			<clipPath id="SVGID_6_">
				<use xlink:href="#SVGID_5_"  overflow="visible"/>
			</clipPath>
			<polygon clip-path="url(#SVGID_6_)" fill="#473321" points="646.1,592 609.6,613.2 625.8,588.8 			"/>
		</g>
		<g>
			<defs>
				<ellipse id="SVGID_7_" cx="516.5" cy="515.9" rx="142.1" ry="140.2"/>
			</defs>
			<clipPath id="SVGID_8_">
				<use xlink:href="#SVGID_7_"  overflow="visible"/>
			</clipPath>
			<polygon clip-path="url(#SVGID_8_)" fill="#8C5D3A" points="580.1,658.1 611.3,609.6 646.1,592 			"/>
		</g>
		<g>
			<defs>
				<ellipse id="SVGID_9_" cx="516.5" cy="515.9" rx="142.1" ry="140.2"/>
			</defs>
			<clipPath id="SVGID_10_">
				<use xlink:href="#SVGID_9_"  overflow="visible"/>
			</clipPath>
			<polygon clip-path="url(#SVGID_10_)" fill="#624D36" points="670.6,522.4 646.1,592 624.1,589.4 			"/>
		</g>
		<g>
			<defs>
				<ellipse id="SVGID_11_" cx="516.5" cy="515.9" rx="142.1" ry="140.2"/>
			</defs>
			<clipPath id="SVGID_12_">
				<use xlink:href="#SVGID_11_"  overflow="visible"/>
			</clipPath>
			<polygon clip-path="url(#SVGID_12_)" fill="#46442D" points="421.3,520.5 435,386 574.7,440 			"/>
		</g>
		<g>
			<defs>
				<ellipse id="SVGID_13_" cx="516.5" cy="515.9" rx="142.1" ry="140.2"/>
			</defs>
			<clipPath id="SVGID_14_">
				<use xlink:href="#SVGID_13_"  overflow="visible"/>
			</clipPath>
			<polygon clip-path="url(#SVGID_14_)" fill="#6B6331" points="353.3,516.1 421.3,520.5 435,386 			"/>
		</g>
		<g>
			<defs>
				<ellipse id="SVGID_15_" cx="516.5" cy="515.9" rx="142.1" ry="140.2"/>
			</defs>
			<clipPath id="SVGID_16_">
				<use xlink:href="#SVGID_15_"  overflow="visible"/>
			</clipPath>
			<path clip-path="url(#SVGID_16_)" fill="#26322C" d="M574.7,440"/>
		</g>
		<g>
			<defs>
				<ellipse id="SVGID_17_" cx="516.5" cy="515.9" rx="142.1" ry="140.2"/>
			</defs>
			<clipPath id="SVGID_18_">
				<use xlink:href="#SVGID_17_"  overflow="visible"/>
			</clipPath>
			<line clip-path="url(#SVGID_18_)" fill="none" x1="353.3" y1="516.1" x2="421.3" y2="520.5"/>
		</g>
		<g>
			<defs>
				<ellipse id="SVGID_19_" cx="516.5" cy="515.9" rx="142.1" ry="140.2"/>
			</defs>
			<clipPath id="SVGID_20_">
				<use xlink:href="#SVGID_19_"  overflow="visible"/>
			</clipPath>
			<polygon clip-path="url(#SVGID_20_)" fill="#292F32" points="435,386 614.9,398.3 574.7,440 			"/>
		</g>
		<g>
			<defs>
				<ellipse id="SVGID_21_" cx="516.5" cy="515.9" rx="142.1" ry="140.2"/>
			</defs>
			<clipPath id="SVGID_22_">
				<use xlink:href="#SVGID_21_"  overflow="visible"/>
			</clipPath>
			<path clip-path="url(#SVGID_22_)" fill="#0B132D" d="M596.7,598.1"/>
		</g>
		<g>
			<defs>
				<ellipse id="SVGID_23_" cx="516.5" cy="515.9" rx="142.1" ry="140.2"/>
			</defs>
			<clipPath id="SVGID_24_">
				<use xlink:href="#SVGID_23_"  overflow="visible"/>
			</clipPath>
			<g clip-path="url(#SVGID_24_)">
				<g>
					<path fill="#0B132D" d="M623.7,502.9c0.9,0,2-1.3,0.7-1.3C623.5,501.6,622.4,502.9,623.7,502.9L623.7,502.9z"/>
				</g>
			</g>
		</g>
		<g>
			<defs>
				<ellipse id="SVGID_25_" cx="516.5" cy="515.9" rx="142.1" ry="140.2"/>
			</defs>
			<clipPath id="SVGID_26_">
				<use xlink:href="#SVGID_25_"  overflow="visible"/>
			</clipPath>
			<polygon clip-path="url(#SVGID_26_)" fill="#0D1321" points="574.7,440 614.9,398.3 669,522.1 			"/>
		</g>
		<g>
			<defs>
				<ellipse id="SVGID_27_" cx="516.5" cy="515.9" rx="142.1" ry="140.2"/>
			</defs>
			<clipPath id="SVGID_28_">
				<use xlink:href="#SVGID_27_"  overflow="visible"/>
			</clipPath>
			<polygon clip-path="url(#SVGID_28_)" fill="#DB6B27" points="422,520.2 435.8,385.7 575.4,439.6 			"/>
		</g>
		<g>
			<defs>
				<ellipse id="SVGID_29_" cx="516.5" cy="515.9" rx="142.1" ry="140.2"/>
			</defs>
			<clipPath id="SVGID_30_">
				<use xlink:href="#SVGID_29_"  overflow="visible"/>
			</clipPath>
			<polygon clip-path="url(#SVGID_30_)" fill="#984221" points="353.3,516.1 422,520.2 435.8,385.7 			"/>
		</g>
		<g>
			<defs>
				<ellipse id="SVGID_31_" cx="516.5" cy="515.9" rx="142.1" ry="140.2"/>
			</defs>
			<clipPath id="SVGID_32_">
				<use xlink:href="#SVGID_31_"  overflow="visible"/>
			</clipPath>
			<path clip-path="url(#SVGID_32_)" fill="#47452B" d="M432.1,654.7"/>
		</g>
		<g>
			<defs>
				<ellipse id="SVGID_33_" cx="516.5" cy="515.9" rx="142.1" ry="140.2"/>
			</defs>
			<clipPath id="SVGID_34_">
				<use xlink:href="#SVGID_33_"  overflow="visible"/>
			</clipPath>
			<polygon clip-path="url(#SVGID_34_)" fill="#5E3419" points="433.1,656.6 422,520.2 575.3,607.8 506.4,631.2 			"/>
		</g>
		<g>
			<defs>
				<ellipse id="SVGID_35_" cx="516.5" cy="515.9" rx="142.1" ry="140.2"/>
			</defs>
			<clipPath id="SVGID_36_">
				<use xlink:href="#SVGID_35_"  overflow="visible"/>
			</clipPath>
			<path clip-path="url(#SVGID_36_)" fill="#26322C" d="M575.4,439.6"/>
		</g>
		<g>
			<defs>
				<ellipse id="SVGID_37_" cx="516.5" cy="515.9" rx="142.1" ry="140.2"/>
			</defs>
			<clipPath id="SVGID_38_">
				<use xlink:href="#SVGID_37_"  overflow="visible"/>
			</clipPath>
			<polygon clip-path="url(#SVGID_38_)" fill="#894920" points="575.3,607.8 503.7,566.9 422,520.2 480.3,489.6 575.4,439.6 			"/>
		</g>
		<g>
			<defs>
				<ellipse id="SVGID_39_" cx="516.5" cy="515.9" rx="142.1" ry="140.2"/>
			</defs>
			<clipPath id="SVGID_40_">
				<use xlink:href="#SVGID_39_"  overflow="visible"/>
			</clipPath>
			<polygon clip-path="url(#SVGID_40_)" fill="#9D5324" points="433.1,656.6 353.3,516.1 381.6,517.8 422,520.2 			"/>
		</g>
		<g>
			<defs>
				<ellipse id="SVGID_41_" cx="516.5" cy="515.9" rx="142.1" ry="140.2"/>
			</defs>
			<clipPath id="SVGID_42_">
				<use xlink:href="#SVGID_41_"  overflow="visible"/>
			</clipPath>
			<polygon clip-path="url(#SVGID_42_)" fill="#D37E40" points="435.8,385.7 521.5,367.8 615.7,397.9 575.4,439.6 			"/>
		</g>
		<g>
			<defs>
				<ellipse id="SVGID_43_" cx="516.5" cy="515.9" rx="142.1" ry="140.2"/>
			</defs>
			<clipPath id="SVGID_44_">
				<use xlink:href="#SVGID_43_"  overflow="visible"/>
			</clipPath>
			<path clip-path="url(#SVGID_44_)" fill="#0B132D" d="M597.4,597.7"/>
		</g>
		<g>
			<defs>
				<ellipse id="SVGID_45_" cx="516.5" cy="515.9" rx="142.1" ry="140.2"/>
			</defs>
			<clipPath id="SVGID_46_">
				<use xlink:href="#SVGID_45_"  overflow="visible"/>
			</clipPath>
			<polygon clip-path="url(#SVGID_46_)" fill="#603E1F" points="582,658.2 575.3,607.8 669.8,521.8 626.1,589.6 613,610.1 			"/>
		</g>
		<g>
			<defs>
				<ellipse id="SVGID_47_" cx="516.5" cy="515.9" rx="142.1" ry="140.2"/>
			</defs>
			<clipPath id="SVGID_48_">
				<use xlink:href="#SVGID_47_"  overflow="visible"/>
			</clipPath>
			<g clip-path="url(#SVGID_48_)">
				<g>
					<path fill="#0B132D" d="M624.4,502.5c0.9,0,2-1.3,0.7-1.3C624.3,501.2,623.1,502.5,624.4,502.5L624.4,502.5z"/>
				</g>
			</g>
		</g>
		<g>
			<defs>
				<ellipse id="SVGID_49_" cx="516.5" cy="515.9" rx="142.1" ry="140.2"/>
			</defs>
			<clipPath id="SVGID_50_">
				<use xlink:href="#SVGID_49_"  overflow="visible"/>
			</clipPath>
			<polygon clip-path="url(#SVGID_50_)" fill="#39281B" points="575.3,607.8 575.4,439.6 669.8,521.8 			"/>
		</g>
		<g>
			<defs>
				<ellipse id="SVGID_51_" cx="516.5" cy="515.9" rx="142.1" ry="140.2"/>
			</defs>
			<clipPath id="SVGID_52_">
				<use xlink:href="#SVGID_51_"  overflow="visible"/>
			</clipPath>
			<polygon clip-path="url(#SVGID_52_)" fill="#E78439" points="575.4,439.6 615.7,397.9 669.8,521.8 			"/>
		</g>
		<g>
			<defs>
				<ellipse id="SVGID_53_" cx="516.5" cy="515.9" rx="142.1" ry="140.2"/>
			</defs>
			<clipPath id="SVGID_54_">
				<use xlink:href="#SVGID_53_"  overflow="visible"/>
			</clipPath>
			<polygon clip-path="url(#SVGID_54_)" fill="#442F24" points="581.8,658.6 504.3,670.6 506.4,631.2 			"/>
		</g>
		<g>
			<defs>
				<ellipse id="SVGID_55_" cx="516.5" cy="515.9" rx="142.1" ry="140.2"/>
			</defs>
			<clipPath id="SVGID_56_">
				<use xlink:href="#SVGID_55_"  overflow="visible"/>
			</clipPath>
			<polygon clip-path="url(#SVGID_56_)" fill="#613815" points="504.3,670.6 433.1,656.6 506.4,631.2 			"/>
		</g>
		<g>
			<defs>
				<ellipse id="SVGID_57_" cx="516.5" cy="515.9" rx="142.1" ry="140.2"/>
			</defs>
			<clipPath id="SVGID_58_">
				<use xlink:href="#SVGID_57_"  overflow="visible"/>
			</clipPath>
			<polygon clip-path="url(#SVGID_58_)" fill="#F0994D" points="521.5,367.8 575.4,439.6 615.8,397.9 			"/>
		</g>
		<g>
			<defs>
				<ellipse id="SVGID_59_" cx="516.5" cy="515.9" rx="142.1" ry="140.2"/>
			</defs>
			<clipPath id="SVGID_60_">
				<use xlink:href="#SVGID_59_"  overflow="visible"/>
			</clipPath>
			<polygon clip-path="url(#SVGID_60_)" fill="#482C1D" points="575.3,607.8 558.7,532.2 571.6,460.7 575.4,439.6 			"/>
		</g>
		<g>
			<defs>
				<ellipse id="SVGID_61_" cx="516.5" cy="515.9" rx="142.1" ry="140.2"/>
			</defs>
			<clipPath id="SVGID_62_">
				<use xlink:href="#SVGID_61_"  overflow="visible"/>
			</clipPath>
			<polygon clip-path="url(#SVGID_62_)" fill="#D36027" points="428.8,610.8 464.4,589.9 503.7,566.9 422,520.2 			"/>
		</g>
		<g>
			<defs>
				<ellipse id="SVGID_63_" cx="516.5" cy="515.9" rx="142.1" ry="140.2"/>
			</defs>
			<clipPath id="SVGID_64_">
				<use xlink:href="#SVGID_63_"  overflow="visible"/>
			</clipPath>
			<polygon clip-path="url(#SVGID_64_)" fill="#AA5125" points="433.1,656.6 428.8,610.8 464.4,589.9 			"/>
		</g>
		<g>
			<defs>
				<ellipse id="SVGID_65_" cx="516.5" cy="515.9" rx="142.1" ry="140.2"/>
			</defs>
			<clipPath id="SVGID_66_">
				<use xlink:href="#SVGID_65_"  overflow="visible"/>
			</clipPath>
			<polygon clip-path="url(#SVGID_66_)" fill="#7F431D" points="464.4,589.9 506.4,631.2 433.1,656.6 			"/>
		</g>
		<g>
			<defs>
				<ellipse id="SVGID_67_" cx="516.5" cy="515.9" rx="142.1" ry="140.2"/>
			</defs>
			<clipPath id="SVGID_68_">
				<use xlink:href="#SVGID_67_"  overflow="visible"/>
			</clipPath>
			<polygon clip-path="url(#SVGID_68_)" fill="#8B401E" points="464.4,589.9 456.5,582.5 428.8,610.8 			"/>
		</g>
		<g>
			<defs>
				<ellipse id="SVGID_69_" cx="516.5" cy="515.9" rx="142.1" ry="140.2"/>
			</defs>
			<clipPath id="SVGID_70_">
				<use xlink:href="#SVGID_69_"  overflow="visible"/>
			</clipPath>
			<polygon clip-path="url(#SVGID_70_)" fill="#6E3B17" points="456.5,582.5 422,520.2 428.8,610.8 			"/>
		</g>
		<g>
			<defs>
				<ellipse id="SVGID_71_" cx="516.5" cy="515.9" rx="142.1" ry="140.2"/>
			</defs>
			<clipPath id="SVGID_72_">
				<use xlink:href="#SVGID_71_"  overflow="visible"/>
			</clipPath>
			<polygon clip-path="url(#SVGID_72_)" fill="#9A5529" points="456.5,582.5 475.3,550.7 464.4,589.9 			"/>
		</g>
		<g>
			<defs>
				<ellipse id="SVGID_73_" cx="516.5" cy="515.9" rx="142.1" ry="140.2"/>
			</defs>
			<clipPath id="SVGID_74_">
				<use xlink:href="#SVGID_73_"  overflow="visible"/>
			</clipPath>
			<polygon clip-path="url(#SVGID_74_)" fill="#974D22" points="456.5,582.5 475.3,550.7 434,542.2 			"/>
		</g>
		<g>
			<defs>
				<ellipse id="SVGID_75_" cx="516.5" cy="515.9" rx="142.1" ry="140.2"/>
			</defs>
			<clipPath id="SVGID_76_">
				<use xlink:href="#SVGID_75_"  overflow="visible"/>
			</clipPath>
			<polygon clip-path="url(#SVGID_76_)" fill="#904B21" points="428.8,610.8 408.4,587.9 422,520.2 			"/>
		</g>
		<g>
			<defs>
				<ellipse id="SVGID_77_" cx="516.5" cy="515.9" rx="142.1" ry="140.2"/>
			</defs>
			<clipPath id="SVGID_78_">
				<use xlink:href="#SVGID_77_"  overflow="visible"/>
			</clipPath>
			<path clip-path="url(#SVGID_78_)" fill="#32311A" d="M431.4,655.7"/>
		</g>
		<g>
			<defs>
				<ellipse id="SVGID_79_" cx="516.5" cy="515.9" rx="142.1" ry="140.2"/>
			</defs>
			<clipPath id="SVGID_80_">
				<use xlink:href="#SVGID_79_"  overflow="visible"/>
			</clipPath>
			<polygon clip-path="url(#SVGID_80_)" fill="#624D36" points="428.8,610.8 433.1,656.6 410.2,581.7 			"/>
		</g>
		<g>
			<defs>
				<ellipse id="SVGID_81_" cx="516.5" cy="515.9" rx="142.1" ry="140.2"/>
			</defs>
			<clipPath id="SVGID_82_">
				<use xlink:href="#SVGID_81_"  overflow="visible"/>
			</clipPath>
			<polygon clip-path="url(#SVGID_82_)" fill="#39281B" points="433.1,656.6 379.4,585.4 410.2,581.7 			"/>
		</g>
		<g>
			<defs>
				<ellipse id="SVGID_83_" cx="516.5" cy="515.9" rx="142.1" ry="140.2"/>
			</defs>
			<clipPath id="SVGID_84_">
				<use xlink:href="#SVGID_83_"  overflow="visible"/>
			</clipPath>
			<polygon clip-path="url(#SVGID_84_)" fill="#DB6B27" points="353.3,516.1 379.4,585.4 389.5,586.6 			"/>
		</g>
		<g>
			<defs>
				<ellipse id="SVGID_85_" cx="516.5" cy="515.9" rx="142.1" ry="140.2"/>
			</defs>
			<clipPath id="SVGID_86_">
				<use xlink:href="#SVGID_85_"  overflow="visible"/>
			</clipPath>
			<polygon clip-path="url(#SVGID_86_)" fill="#703616" points="410.2,581.7 389.5,586.6 381.6,517.8 			"/>
		</g>
		<g>
			<defs>
				<ellipse id="SVGID_87_" cx="516.5" cy="515.9" rx="142.1" ry="140.2"/>
			</defs>
			<clipPath id="SVGID_88_">
				<use xlink:href="#SVGID_87_"  overflow="visible"/>
			</clipPath>
			<polygon clip-path="url(#SVGID_88_)" fill="#7D411E" points="381.6,517.8 353.3,516.1 389.5,586.6 			"/>
		</g>
		<g>
			<defs>
				<ellipse id="SVGID_89_" cx="516.5" cy="515.9" rx="142.1" ry="140.2"/>
			</defs>
			<clipPath id="SVGID_90_">
				<use xlink:href="#SVGID_89_"  overflow="visible"/>
			</clipPath>
			<polygon clip-path="url(#SVGID_90_)" fill="#82331B" points="353.3,516.1 382.8,443 395.7,465.9 			"/>
		</g>
		<g>
			<defs>
				<ellipse id="SVGID_91_" cx="516.5" cy="515.9" rx="142.1" ry="140.2"/>
			</defs>
			<clipPath id="SVGID_92_">
				<use xlink:href="#SVGID_91_"  overflow="visible"/>
			</clipPath>
			<polygon clip-path="url(#SVGID_92_)" fill="#652C13" points="435,386.6 382.3,443.5 395.7,465.9 			"/>
		</g>
		<g>
			<defs>
				<ellipse id="SVGID_93_" cx="516.5" cy="515.9" rx="142.1" ry="140.2"/>
			</defs>
			<clipPath id="SVGID_94_">
				<use xlink:href="#SVGID_93_"  overflow="visible"/>
			</clipPath>
			<polygon clip-path="url(#SVGID_94_)" fill="#452F1E" points="670.6,522.4 639.6,550 655.2,510.3 			"/>
		</g>
		<g>
			<defs>
				<ellipse id="SVGID_95_" cx="516.5" cy="515.9" rx="142.1" ry="140.2"/>
			</defs>
			<clipPath id="SVGID_96_">
				<use xlink:href="#SVGID_95_"  overflow="visible"/>
			</clipPath>
			<polygon clip-path="url(#SVGID_96_)" fill="#654128" points="626.1,589.6 639.6,550 670.6,522.4 			"/>
		</g>
		<g>
			<defs>
				<ellipse id="SVGID_97_" cx="516.5" cy="515.9" rx="142.1" ry="140.2"/>
			</defs>
			<clipPath id="SVGID_98_">
				<use xlink:href="#SVGID_97_"  overflow="visible"/>
			</clipPath>
			<polygon clip-path="url(#SVGID_98_)" fill="#493317" points="626.1,589.6 612.5,573.5 639.6,550 			"/>
		</g>
		<g>
			<defs>
				<ellipse id="SVGID_99_" cx="516.5" cy="515.9" rx="142.1" ry="140.2"/>
			</defs>
			<clipPath id="SVGID_100_">
				<use xlink:href="#SVGID_99_"  overflow="visible"/>
			</clipPath>
			<polygon clip-path="url(#SVGID_100_)" fill="#CE6C28" points="670.6,522.4 670.6,501.3 659.6,499.7 			"/>
		</g>
		<g>
			<defs>
				<ellipse id="SVGID_101_" cx="516.5" cy="515.9" rx="142.1" ry="140.2"/>
			</defs>
			<clipPath id="SVGID_102_">
				<use xlink:href="#SVGID_101_"  overflow="visible"/>
			</clipPath>
			<polygon clip-path="url(#SVGID_102_)" fill="#A76533" points="655.2,510.3 659.6,499.7 670.6,522.4 			"/>
		</g>
		<g>
			<defs>
				<ellipse id="SVGID_103_" cx="516.5" cy="515.9" rx="142.1" ry="140.2"/>
			</defs>
			<clipPath id="SVGID_104_">
				<use xlink:href="#SVGID_103_"  overflow="visible"/>
			</clipPath>
			<polygon clip-path="url(#SVGID_104_)" fill="#6C451B" points="659.6,499.7 656.5,469.2 670.6,501.3 			"/>
		</g>
		<g>
			<defs>
				<ellipse id="SVGID_105_" cx="516.5" cy="515.9" rx="142.1" ry="140.2"/>
			</defs>
			<clipPath id="SVGID_106_">
				<use xlink:href="#SVGID_105_"  overflow="visible"/>
			</clipPath>
			<polygon clip-path="url(#SVGID_106_)" fill="#EC9C54" points="615.8,397.9 656.5,469.2 645.4,467.1 			"/>
		</g>
		<g>
			<defs>
				<ellipse id="SVGID_107_" cx="516.5" cy="515.9" rx="142.1" ry="140.2"/>
			</defs>
			<clipPath id="SVGID_108_">
				<use xlink:href="#SVGID_107_"  overflow="visible"/>
			</clipPath>
			<polygon clip-path="url(#SVGID_108_)" fill="#EA8432" points="659.6,499.7 627.8,486.1 656.5,469.2 			"/>
		</g>
		<g>
			<defs>
				<ellipse id="SVGID_109_" cx="516.5" cy="515.9" rx="142.1" ry="140.2"/>
			</defs>
			<clipPath id="SVGID_110_">
				<use xlink:href="#SVGID_109_"  overflow="visible"/>
			</clipPath>
			<polygon clip-path="url(#SVGID_110_)" fill="#614328" points="645.4,467.1 627.8,486.1 656.5,469.2 			"/>
		</g>
		<g>
			<defs>
				<ellipse id="SVGID_111_" cx="516.5" cy="515.9" rx="142.1" ry="140.2"/>
			</defs>
			<clipPath id="SVGID_112_">
				<use xlink:href="#SVGID_111_"  overflow="visible"/>
			</clipPath>
			<polygon clip-path="url(#SVGID_112_)" fill="#C07F48" points="639.6,550 627.8,486.1 655.2,510.3 			"/>
		</g>
		<g>
			<defs>
				<ellipse id="SVGID_113_" cx="516.5" cy="515.9" rx="142.1" ry="140.2"/>
			</defs>
			<clipPath id="SVGID_114_">
				<use xlink:href="#SVGID_113_"  overflow="visible"/>
			</clipPath>
			<polygon clip-path="url(#SVGID_114_)" fill="#80491E" points="655.2,510.3 659.6,499.7 627.8,486.1 			"/>
		</g>
		<g>
			<defs>
				<ellipse id="SVGID_115_" cx="516.5" cy="515.9" rx="142.1" ry="140.2"/>
			</defs>
			<clipPath id="SVGID_116_">
				<use xlink:href="#SVGID_115_"  overflow="visible"/>
			</clipPath>
			<g clip-path="url(#SVGID_116_)">
				<g>
					<path fill="#6A6230" d="M696.1,517.1c0.8,0,2-1.2,0.7-1.2C696,516,694.7,517.1,696.1,517.1L696.1,517.1z"/>
				</g>
			</g>
		</g>
		<g>
			<defs>
				<ellipse id="SVGID_117_" cx="516.5" cy="515.9" rx="142.1" ry="140.2"/>
			</defs>
			<clipPath id="SVGID_118_">
				<use xlink:href="#SVGID_117_"  overflow="visible"/>
			</clipPath>
			<polygon clip-path="url(#SVGID_118_)" fill="#B97036" points="575.4,439.6 533.7,461.5 571.6,460.7 			"/>
		</g>
		<g>
			<defs>
				<ellipse id="SVGID_119_" cx="516.5" cy="515.9" rx="142.1" ry="140.2"/>
			</defs>
			<clipPath id="SVGID_120_">
				<use xlink:href="#SVGID_119_"  overflow="visible"/>
			</clipPath>
			<polygon clip-path="url(#SVGID_120_)" fill="#D47C28" points="533.7,461.5 496.4,409 575.4,439.6 			"/>
		</g>
		<g>
			<defs>
				<ellipse id="SVGID_121_" cx="516.5" cy="515.9" rx="142.1" ry="140.2"/>
			</defs>
			<clipPath id="SVGID_122_">
				<use xlink:href="#SVGID_121_"  overflow="visible"/>
			</clipPath>
			<polygon clip-path="url(#SVGID_122_)" fill="#F79745" points="435.8,385.7 503.8,404.8 575.4,439.6 			"/>
		</g>
		<g>
			<defs>
				<ellipse id="SVGID_123_" cx="516.5" cy="515.9" rx="142.1" ry="140.2"/>
			</defs>
			<clipPath id="SVGID_124_">
				<use xlink:href="#SVGID_123_"  overflow="visible"/>
			</clipPath>
			<polygon clip-path="url(#SVGID_124_)" fill="#A94F25" points="381.6,517.8 426.6,476.5 422,520.2 			"/>
		</g>
		<g>
			<defs>
				<ellipse id="SVGID_125_" cx="516.5" cy="515.9" rx="142.1" ry="140.2"/>
			</defs>
			<clipPath id="SVGID_126_">
				<use xlink:href="#SVGID_125_"  overflow="visible"/>
			</clipPath>
			<polygon clip-path="url(#SVGID_126_)" fill="#512D13" points="395.7,465.9 381.6,517.8 353.3,516.1 			"/>
		</g>
		<g>
			<defs>
				<ellipse id="SVGID_127_" cx="516.5" cy="515.9" rx="142.1" ry="140.2"/>
			</defs>
			<clipPath id="SVGID_128_">
				<use xlink:href="#SVGID_127_"  overflow="visible"/>
			</clipPath>
			<polygon clip-path="url(#SVGID_128_)" fill="#652C13" points="422,520.2 417,457.1 436.1,385 			"/>
		</g>
		<g>
			<defs>
				<ellipse id="SVGID_129_" cx="516.5" cy="515.9" rx="142.1" ry="140.2"/>
			</defs>
			<clipPath id="SVGID_130_">
				<use xlink:href="#SVGID_129_"  overflow="visible"/>
			</clipPath>
			<polygon clip-path="url(#SVGID_130_)" fill="#D35827" points="417,457.1 426.6,476.5 395.7,465.9 			"/>
		</g>
		<g>
			<defs>
				<ellipse id="SVGID_131_" cx="516.5" cy="515.9" rx="142.1" ry="140.2"/>
			</defs>
			<clipPath id="SVGID_132_">
				<use xlink:href="#SVGID_131_"  overflow="visible"/>
			</clipPath>
			<polygon clip-path="url(#SVGID_132_)" fill="#B97036" points="521.5,367.8 503.8,404.8 575.4,439.6 			"/>
		</g>
		<g>
			<defs>
				<ellipse id="SVGID_133_" cx="516.5" cy="515.9" rx="142.1" ry="140.2"/>
			</defs>
			<clipPath id="SVGID_134_">
				<use xlink:href="#SVGID_133_"  overflow="visible"/>
			</clipPath>
			<polygon clip-path="url(#SVGID_134_)" fill="#9A5529" points="558.7,532.2 422,520.2 503.7,566.9 			"/>
		</g>
		<g>
			<defs>
				<ellipse id="SVGID_135_" cx="516.5" cy="515.9" rx="142.1" ry="140.2"/>
			</defs>
			<clipPath id="SVGID_136_">
				<use xlink:href="#SVGID_135_"  overflow="visible"/>
			</clipPath>
			<polygon clip-path="url(#SVGID_136_)" fill="#DB6B27" points="558.7,532.2 571.6,460.7 533.7,461.5 			"/>
		</g>
		<g>
			<defs>
				<ellipse id="SVGID_137_" cx="516.5" cy="515.9" rx="142.1" ry="140.2"/>
			</defs>
			<clipPath id="SVGID_138_">
				<use xlink:href="#SVGID_137_"  overflow="visible"/>
			</clipPath>
			<polygon clip-path="url(#SVGID_138_)" fill="#984221" points="480.3,489.6 436.1,385 422,520.2 			"/>
		</g>
	</g>
</g>
</svg>
