<?xml version="1.0" encoding="utf-8"?>
<!-- Generator: Adobe Illustrator 15.0.2, SVG Export Plug-In . SVG Version: 6.00 Build 0)  -->
<!DOCTYPE svg PUBLIC "-//W3C//DTD SVG 1.1//EN" "http://www.w3.org/Graphics/SVG/1.1/DTD/svg11.dtd">
<svg version="1.1" id="Layer_1" xmlns="http://www.w3.org/2000/svg" xmlns:xlink="http://www.w3.org/1999/xlink" x="0px" y="0px"
	 width="398.7px" height="405px" viewBox="316.7 313.1 398.7 405" enable-background="new 316.7 313.1 398.7 405"
	 xml:space="preserve">
<rect x="-1104.6" y="-1389.8" display="none" width="4781" height="2764.8"/>
<g>
	<g>
		<g>
		</g>
		<g id="Planet__x2B__Rings_1_">
			<g>
				<g>
					<defs>
						<path id="SVGID_1_" d="M400.7,350.5c89.8-64.7,214.2-43.2,277.9,48c63.7,91.2,42.5,217.6-47.3,282.3
							c-89.8,64.7-214.2,43.2-277.9-48C289.8,541.5,310.9,415.2,400.7,350.5z"/>
					</defs>
					<clipPath id="SVGID_2_">
						<use xlink:href="#SVGID_1_"  overflow="visible"/>
					</clipPath>
					<path clip-path="url(#SVGID_2_)" fill="#9CBBE2" d="M400.7,350.5c89.8-64.7,214.2-43.2,277.9,48
						c63.7,91.2,42.5,217.6-47.3,282.3c-89.8,64.7-214.2,43.2-277.9-48C289.8,541.5,310.9,415.2,400.7,350.5z"/>
				</g>
				<g>
					<defs>
						<path id="SVGID_3_" d="M400.7,350.5c89.8-64.7,214.2-43.2,277.9,48c63.7,91.2,42.5,217.6-47.3,282.3
							c-89.8,64.7-214.2,43.2-277.9-48C289.8,541.5,310.9,415.2,400.7,350.5z"/>
					</defs>
					<clipPath id="SVGID_4_">
						<use xlink:href="#SVGID_3_"  overflow="visible"/>
					</clipPath>
					<polygon clip-path="url(#SVGID_4_)" fill="#BBC8E6" points="728.1,507.9 698.5,560.8 697.7,515.6 					"/>
				</g>
				<g>
					<defs>
						<path id="SVGID_5_" d="M400.7,350.5c89.8-64.7,214.2-43.2,277.9,48c63.7,91.2,42.5,217.6-47.3,282.3
							c-89.8,64.7-214.2,43.2-277.9-48C289.8,541.5,310.9,415.2,400.7,350.5z"/>
					</defs>
					<clipPath id="SVGID_6_">
						<use xlink:href="#SVGID_5_"  overflow="visible"/>
					</clipPath>
					<path clip-path="url(#SVGID_6_)" fill="#26322C" d="M533.7,370"/>
				</g>
				<g>
					<defs>
						<path id="SVGID_7_" d="M400.7,350.5c89.8-64.7,214.2-43.2,277.9,48c63.7,91.2,42.5,217.6-47.3,282.3
							c-89.8,64.7-214.2,43.2-277.9-48C289.8,541.5,310.9,415.2,400.7,350.5z"/>
					</defs>
					<clipPath id="SVGID_8_">
						<use xlink:href="#SVGID_7_"  overflow="visible"/>
					</clipPath>
					<path clip-path="url(#SVGID_8_)" fill="#736D2E" d="M409.2,579.2"/>
				</g>
				<g>
					<defs>
						<path id="SVGID_9_" d="M400.7,350.5c89.8-64.7,214.2-43.2,277.9,48c63.7,91.2,42.5,217.6-47.3,282.3
							c-89.8,64.7-214.2,43.2-277.9-48C289.8,541.5,310.9,415.2,400.7,350.5z"/>
					</defs>
					<clipPath id="SVGID_10_">
						<use xlink:href="#SVGID_9_"  overflow="visible"/>
					</clipPath>
					<polygon clip-path="url(#SVGID_10_)" fill="#292F32" points="328.8,402.4 551.6,289.6 533.7,370 					"/>
				</g>
				<g>
					<defs>
						<path id="SVGID_11_" d="M400.7,350.5c89.8-64.7,214.2-43.2,277.9,48c63.7,91.2,42.5,217.6-47.3,282.3
							c-89.8,64.7-214.2,43.2-277.9-48C289.8,541.5,310.9,415.2,400.7,350.5z"/>
					</defs>
					<clipPath id="SVGID_12_">
						<use xlink:href="#SVGID_11_"  overflow="visible"/>
					</clipPath>
					<path clip-path="url(#SVGID_12_)" fill="#0B132D" d="M673.7,550.5"/>
				</g>
				<g>
					<defs>
						<path id="SVGID_13_" d="M400.7,350.5c89.8-64.7,214.2-43.2,277.9,48c63.7,91.2,42.5,217.6-47.3,282.3
							c-89.8,64.7-214.2,43.2-277.9-48C289.8,541.5,310.9,415.2,400.7,350.5z"/>
					</defs>
					<clipPath id="SVGID_14_">
						<use xlink:href="#SVGID_13_"  overflow="visible"/>
					</clipPath>
					<g clip-path="url(#SVGID_14_)">
						<g>
							<path fill="#0B132D" d="M636.9,412.8c0.9,0,2-1.3,0.7-1.3C636.7,411.5,635.6,412.8,636.9,412.8L636.9,412.8z"/>
						</g>
					</g>
				</g>
				<g>
					<defs>
						<path id="SVGID_15_" d="M400.7,350.5c89.8-64.7,214.2-43.2,277.9,48c63.7,91.2,42.5,217.6-47.3,282.3
							c-89.8,64.7-214.2,43.2-277.9-48C289.8,541.5,310.9,415.2,400.7,350.5z"/>
					</defs>
					<clipPath id="SVGID_16_">
						<use xlink:href="#SVGID_15_"  overflow="visible"/>
					</clipPath>
					<polygon clip-path="url(#SVGID_16_)" fill="#0D1321" points="533.7,370 551.6,289.6 705,404.8 					"/>
				</g>
				<g>
					<defs>
						<path id="SVGID_17_" d="M400.7,350.5c89.8-64.7,214.2-43.2,277.9,48c63.7,91.2,42.5,217.6-47.3,282.3
							c-89.8,64.7-214.2,43.2-277.9-48C289.8,541.5,310.9,415.2,400.7,350.5z"/>
					</defs>
					<clipPath id="SVGID_18_">
						<use xlink:href="#SVGID_17_"  overflow="visible"/>
					</clipPath>
					<line clip-path="url(#SVGID_18_)" fill="none" x1="461.2" y1="655.2" x2="518.4" y2="739"/>
				</g>
				<g>
					<defs>
						<path id="SVGID_19_" d="M400.7,350.5c89.8-64.7,214.2-43.2,277.9,48c63.7,91.2,42.5,217.6-47.3,282.3
							c-89.8,64.7-214.2,43.2-277.9-48C289.8,541.5,310.9,415.2,400.7,350.5z"/>
					</defs>
					<clipPath id="SVGID_20_">
						<use xlink:href="#SVGID_19_"  overflow="visible"/>
					</clipPath>
					<polygon clip-path="url(#SVGID_20_)" fill="#C7EFFF" points="410.1,579.4 329.4,401.4 534.3,369 					"/>
				</g>
				<g>
					<defs>
						<path id="SVGID_21_" d="M400.7,350.5c89.8-64.7,214.2-43.2,277.9,48c63.7,91.2,42.5,217.6-47.3,282.3
							c-89.8,64.7-214.2,43.2-277.9-48C289.8,541.5,310.9,415.2,400.7,350.5z"/>
					</defs>
					<clipPath id="SVGID_22_">
						<use xlink:href="#SVGID_21_"  overflow="visible"/>
					</clipPath>
					<polygon clip-path="url(#SVGID_22_)" fill="#546F96" points="325.1,622 410.1,579.4 329.4,401.4 					"/>
				</g>
				<g>
					<defs>
						<path id="SVGID_23_" d="M400.7,350.5c89.8-64.7,214.2-43.2,277.9,48c63.7,91.2,42.5,217.6-47.3,282.3
							c-89.8,64.7-214.2,43.2-277.9-48C289.8,541.5,310.9,415.2,400.7,350.5z"/>
					</defs>
					<clipPath id="SVGID_24_">
						<use xlink:href="#SVGID_23_"  overflow="visible"/>
					</clipPath>
					<polygon clip-path="url(#SVGID_24_)" fill="#8CACDA" points="410.1,579.4 655.2,577.8 518.7,738 					"/>
				</g>
				<g>
					<defs>
						<path id="SVGID_25_" d="M400.7,350.5c89.8-64.7,214.2-43.2,277.9,48c63.7,91.2,42.5,217.6-47.3,282.3
							c-89.8,64.7-214.2,43.2-277.9-48C289.8,541.5,310.9,415.2,400.7,350.5z"/>
					</defs>
					<clipPath id="SVGID_26_">
						<use xlink:href="#SVGID_25_"  overflow="visible"/>
					</clipPath>
					<path clip-path="url(#SVGID_26_)" fill="#26322C" d="M534.3,369"/>
				</g>
				<g>
					<defs>
						<path id="SVGID_27_" d="M400.7,350.5c89.8-64.7,214.2-43.2,277.9,48c63.7,91.2,42.5,217.6-47.3,282.3
							c-89.8,64.7-214.2,43.2-277.9-48C289.8,541.5,310.9,415.2,400.7,350.5z"/>
					</defs>
					<clipPath id="SVGID_28_">
						<use xlink:href="#SVGID_27_"  overflow="visible"/>
					</clipPath>
					<polygon clip-path="url(#SVGID_28_)" fill="#D1E3F4" points="655.2,577.8 541.5,578.6 410.1,579.4 534.3,369 580,496 					"/>
				</g>
				<g>
					<defs>
						<path id="SVGID_29_" d="M400.7,350.5c89.8-64.7,214.2-43.2,277.9,48c63.7,91.2,42.5,217.6-47.3,282.3
							c-89.8,64.7-214.2,43.2-277.9-48C289.8,541.5,310.9,415.2,400.7,350.5z"/>
					</defs>
					<clipPath id="SVGID_30_">
						<use xlink:href="#SVGID_29_"  overflow="visible"/>
					</clipPath>
					<polygon clip-path="url(#SVGID_30_)" fill="#5C7785" points="518.7,738 699.6,635.6 655.2,577.8 578.2,667 					"/>
				</g>
				<g>
					<defs>
						<path id="SVGID_31_" d="M400.7,350.5c89.8-64.7,214.2-43.2,277.9,48c63.7,91.2,42.5,217.6-47.3,282.3
							c-89.8,64.7-214.2,43.2-277.9-48C289.8,541.5,310.9,415.2,400.7,350.5z"/>
					</defs>
					<clipPath id="SVGID_32_">
						<use xlink:href="#SVGID_31_"  overflow="visible"/>
					</clipPath>
					<polygon clip-path="url(#SVGID_32_)" fill="#40546E" points="518.7,738 325.1,622 361.7,602.4 410.1,579.4 					"/>
				</g>
				<g>
					<defs>
						<path id="SVGID_33_" d="M400.7,350.5c89.8-64.7,214.2-43.2,277.9,48c63.7,91.2,42.5,217.6-47.3,282.3
							c-89.8,64.7-214.2,43.2-277.9-48C289.8,541.5,310.9,415.2,400.7,350.5z"/>
					</defs>
					<clipPath id="SVGID_34_">
						<use xlink:href="#SVGID_33_"  overflow="visible"/>
					</clipPath>
					<polygon clip-path="url(#SVGID_34_)" fill="#C4D6EE" points="329.4,401.4 418.5,318.3 552.2,288.6 534.3,369 					"/>
				</g>
				<g>
					<defs>
						<path id="SVGID_35_" d="M400.7,350.5c89.8-64.7,214.2-43.2,277.9,48c63.7,91.2,42.5,217.6-47.3,282.3
							c-89.8,64.7-214.2,43.2-277.9-48C289.8,541.5,310.9,415.2,400.7,350.5z"/>
					</defs>
					<clipPath id="SVGID_36_">
						<use xlink:href="#SVGID_35_"  overflow="visible"/>
					</clipPath>
					<path clip-path="url(#SVGID_36_)" fill="#0B132D" d="M674.3,549.6"/>
				</g>
				<g>
					<defs>
						<path id="SVGID_37_" d="M400.7,350.5c89.8-64.7,214.2-43.2,277.9,48c63.7,91.2,42.5,217.6-47.3,282.3
							c-89.8,64.7-214.2,43.2-277.9-48C289.8,541.5,310.9,415.2,400.7,350.5z"/>
					</defs>
					<clipPath id="SVGID_38_">
						<use xlink:href="#SVGID_37_"  overflow="visible"/>
					</clipPath>
					<polygon clip-path="url(#SVGID_38_)" fill="#B5D5F0" points="699.6,635.6 655.2,577.8 705.7,403.8 					"/>
				</g>
				<g>
					<defs>
						<path id="SVGID_39_" d="M400.7,350.5c89.8-64.7,214.2-43.2,277.9,48c63.7,91.2,42.5,217.6-47.3,282.3
							c-89.8,64.7-214.2,43.2-277.9-48C289.8,541.5,310.9,415.2,400.7,350.5z"/>
					</defs>
					<clipPath id="SVGID_40_">
						<use xlink:href="#SVGID_39_"  overflow="visible"/>
					</clipPath>
					<g clip-path="url(#SVGID_40_)">
						<g>
							<path fill="#0B132D" d="M637.5,411.8c0.9,0,2-1.3,0.7-1.3C637.4,410.5,636.2,411.8,637.5,411.8L637.5,411.8z"/>
						</g>
					</g>
				</g>
				<g>
					<defs>
						<path id="SVGID_41_" d="M400.7,350.5c89.8-64.7,214.2-43.2,277.9,48c63.7,91.2,42.5,217.6-47.3,282.3
							c-89.8,64.7-214.2,43.2-277.9-48C289.8,541.5,310.9,415.2,400.7,350.5z"/>
					</defs>
					<clipPath id="SVGID_42_">
						<use xlink:href="#SVGID_41_"  overflow="visible"/>
					</clipPath>
					<polygon clip-path="url(#SVGID_42_)" fill="#C4D6EE" points="655.2,577.8 579.5,496.9 534.3,369 705.7,403.8 689.4,459.9 
						677.6,509.9 					"/>
				</g>
				<g>
					<defs>
						<path id="SVGID_43_" d="M400.7,350.5c89.8-64.7,214.2-43.2,277.9,48c63.7,91.2,42.5,217.6-47.3,282.3
							c-89.8,64.7-214.2,43.2-277.9-48C289.8,541.5,310.9,415.2,400.7,350.5z"/>
					</defs>
					<clipPath id="SVGID_44_">
						<use xlink:href="#SVGID_43_"  overflow="visible"/>
					</clipPath>
					<polygon clip-path="url(#SVGID_44_)" fill="#DEF2FC" points="533.3,369.8 552.2,288.6 705.7,403.8 630.6,393.3 					"/>
				</g>
				<g>
					<defs>
						<path id="SVGID_45_" d="M400.7,350.5c89.8-64.7,214.2-43.2,277.9,48c63.7,91.2,42.5,217.6-47.3,282.3
							c-89.8,64.7-214.2,43.2-277.9-48C289.8,541.5,310.9,415.2,400.7,350.5z"/>
					</defs>
					<clipPath id="SVGID_46_">
						<use xlink:href="#SVGID_45_"  overflow="visible"/>
					</clipPath>
					<line clip-path="url(#SVGID_46_)" fill="none" x1="461.8" y1="654.2" x2="519" y2="738"/>
				</g>
				<g>
					<defs>
						<path id="SVGID_47_" d="M400.7,350.5c89.8-64.7,214.2-43.2,277.9,48c63.7,91.2,42.5,217.6-47.3,282.3
							c-89.8,64.7-214.2,43.2-277.9-48C289.8,541.5,310.9,415.2,400.7,350.5z"/>
					</defs>
					<clipPath id="SVGID_48_">
						<use xlink:href="#SVGID_47_"  overflow="visible"/>
					</clipPath>
					<polygon clip-path="url(#SVGID_48_)" fill="#364154" points="699.5,636.4 616.1,706.4 578.2,667 					"/>
				</g>
				<g>
					<defs>
						<path id="SVGID_49_" d="M400.7,350.5c89.8-64.7,214.2-43.2,277.9,48c63.7,91.2,42.5,217.6-47.3,282.3
							c-89.8,64.7-214.2,43.2-277.9-48C289.8,541.5,310.9,415.2,400.7,350.5z"/>
					</defs>
					<clipPath id="SVGID_50_">
						<use xlink:href="#SVGID_49_"  overflow="visible"/>
					</clipPath>
					<polygon clip-path="url(#SVGID_50_)" fill="#657F9C" points="616.1,706.4 517.8,738.9 578.2,667 					"/>
				</g>
				<g>
					<defs>
						<path id="SVGID_51_" d="M400.7,350.5c89.8-64.7,214.2-43.2,277.9,48c63.7,91.2,42.5,217.6-47.3,282.3
							c-89.8,64.7-214.2,43.2-277.9-48C289.8,541.5,310.9,415.2,400.7,350.5z"/>
					</defs>
					<clipPath id="SVGID_52_">
						<use xlink:href="#SVGID_51_"  overflow="visible"/>
					</clipPath>
					<polygon clip-path="url(#SVGID_52_)" fill="#D9F6FF" points="418.4,319.7 533.5,370.2 552.1,289.9 					"/>
				</g>
				<g>
					<defs>
						<path id="SVGID_53_" d="M400.7,350.5c89.8-64.7,214.2-43.2,277.9,48c63.7,91.2,42.5,217.6-47.3,282.3
							c-89.8,64.7-214.2,43.2-277.9-48C289.8,541.5,310.9,415.2,400.7,350.5z"/>
					</defs>
					<clipPath id="SVGID_54_">
						<use xlink:href="#SVGID_53_"  overflow="visible"/>
					</clipPath>
					<polygon clip-path="url(#SVGID_54_)" fill="#9CB4D6" points="483.2,685.8 541.5,578.6 410.1,579.4 					"/>
				</g>
				<g>
					<defs>
						<path id="SVGID_55_" d="M400.7,350.5c89.8-64.7,214.2-43.2,277.9,48c63.7,91.2,42.5,217.6-47.3,282.3
							c-89.8,64.7-214.2,43.2-277.9-48C289.8,541.5,310.9,415.2,400.7,350.5z"/>
					</defs>
					<clipPath id="SVGID_56_">
						<use xlink:href="#SVGID_55_"  overflow="visible"/>
					</clipPath>
					<polygon clip-path="url(#SVGID_56_)" fill="#657F9C" points="517.8,738.9 483.2,685.8 510,634.6 					"/>
				</g>
				<g>
					<defs>
						<path id="SVGID_57_" d="M400.7,350.5c89.8-64.7,214.2-43.2,277.9,48c63.7,91.2,42.5,217.6-47.3,282.3
							c-89.8,64.7-214.2,43.2-277.9-48C289.8,541.5,310.9,415.2,400.7,350.5z"/>
					</defs>
					<clipPath id="SVGID_58_">
						<use xlink:href="#SVGID_57_"  overflow="visible"/>
					</clipPath>
					<polygon clip-path="url(#SVGID_58_)" fill="#7D9EC8" points="510,634.6 578.2,667 517.8,738.9 					"/>
				</g>
				<g>
					<defs>
						<path id="SVGID_59_" d="M400.7,350.5c89.8-64.7,214.2-43.2,277.9,48c63.7,91.2,42.5,217.6-47.3,282.3
							c-89.8,64.7-214.2,43.2-277.9-48C289.8,541.5,310.9,415.2,400.7,350.5z"/>
					</defs>
					<clipPath id="SVGID_60_">
						<use xlink:href="#SVGID_59_"  overflow="visible"/>
					</clipPath>
					<polygon clip-path="url(#SVGID_60_)" fill="#BBC8E6" points="483.2,685.8 440.1,663 410.1,579.4 					"/>
				</g>
				<g>
					<defs>
						<path id="SVGID_61_" d="M400.7,350.5c89.8-64.7,214.2-43.2,277.9,48c63.7,91.2,42.5,217.6-47.3,282.3
							c-89.8,64.7-214.2,43.2-277.9-48C289.8,541.5,310.9,415.2,400.7,350.5z"/>
					</defs>
					<clipPath id="SVGID_62_">
						<use xlink:href="#SVGID_61_"  overflow="visible"/>
					</clipPath>
					<polygon clip-path="url(#SVGID_62_)" fill="#849DBA" points="483.2,685.8 517.8,738.9 440.1,663 					"/>
				</g>
				<g>
					<defs>
						<path id="SVGID_63_" d="M400.7,350.5c89.8-64.7,214.2-43.2,277.9,48c63.7,91.2,42.5,217.6-47.3,282.3
							c-89.8,64.7-214.2,43.2-277.9-48C289.8,541.5,310.9,415.2,400.7,350.5z"/>
					</defs>
					<clipPath id="SVGID_64_">
						<use xlink:href="#SVGID_63_"  overflow="visible"/>
					</clipPath>
					<polygon clip-path="url(#SVGID_64_)" fill="#40546E" points="518.6,739.8 406.1,689.5 440.1,663 					"/>
				</g>
				<g>
					<defs>
						<path id="SVGID_65_" d="M400.7,350.5c89.8-64.7,214.2-43.2,277.9,48c63.7,91.2,42.5,217.6-47.3,282.3
							c-89.8,64.7-214.2,43.2-277.9-48C289.8,541.5,310.9,415.2,400.7,350.5z"/>
					</defs>
					<clipPath id="SVGID_66_">
						<use xlink:href="#SVGID_65_"  overflow="visible"/>
					</clipPath>
					<polygon clip-path="url(#SVGID_66_)" fill="#40546E" points="325.1,622 406.1,689.5 419,683.8 					"/>
				</g>
				<g>
					<defs>
						<path id="SVGID_67_" d="M400.7,350.5c89.8-64.7,214.2-43.2,277.9,48c63.7,91.2,42.5,217.6-47.3,282.3
							c-89.8,64.7-214.2,43.2-277.9-48C289.8,541.5,310.9,415.2,400.7,350.5z"/>
					</defs>
					<clipPath id="SVGID_68_">
						<use xlink:href="#SVGID_67_"  overflow="visible"/>
					</clipPath>
					<polygon clip-path="url(#SVGID_68_)" fill="#849DBA" points="440.1,663 422.7,688.5 361.7,602.4 					"/>
				</g>
				<g>
					<defs>
						<path id="SVGID_69_" d="M400.7,350.5c89.8-64.7,214.2-43.2,277.9,48c63.7,91.2,42.5,217.6-47.3,282.3
							c-89.8,64.7-214.2,43.2-277.9-48C289.8,541.5,310.9,415.2,400.7,350.5z"/>
					</defs>
					<clipPath id="SVGID_70_">
						<use xlink:href="#SVGID_69_"  overflow="visible"/>
					</clipPath>
					<polygon clip-path="url(#SVGID_70_)" fill="#5C7785" points="361.7,602.4 325.1,622 422.7,688.5 					"/>
				</g>
				<g>
					<defs>
						<path id="SVGID_71_" d="M400.7,350.5c89.8-64.7,214.2-43.2,277.9,48c63.7,91.2,42.5,217.6-47.3,282.3
							c-89.8,64.7-214.2,43.2-277.9-48C289.8,541.5,310.9,415.2,400.7,350.5z"/>
					</defs>
					<clipPath id="SVGID_72_">
						<use xlink:href="#SVGID_71_"  overflow="visible"/>
					</clipPath>
					<polygon clip-path="url(#SVGID_72_)" fill="#40546E" points="325.1,622 307.6,510.3 339.5,529.5 					"/>
				</g>
				<g>
					<defs>
						<path id="SVGID_73_" d="M400.7,350.5c89.8-64.7,214.2-43.2,277.9,48c63.7,91.2,42.5,217.6-47.3,282.3
							c-89.8,64.7-214.2,43.2-277.9-48C289.8,541.5,310.9,415.2,400.7,350.5z"/>
					</defs>
					<clipPath id="SVGID_74_">
						<use xlink:href="#SVGID_73_"  overflow="visible"/>
					</clipPath>
					<polygon clip-path="url(#SVGID_74_)" fill="#5D6677" points="329.1,403.2 307.4,511.2 339.5,529.5 					"/>
				</g>
				<g>
					<defs>
						<path id="SVGID_75_" d="M400.7,350.5c89.8-64.7,214.2-43.2,277.9,48c63.7,91.2,42.5,217.6-47.3,282.3
							c-89.8,64.7-214.2,43.2-277.9-48C289.8,541.5,310.9,415.2,400.7,350.5z"/>
					</defs>
					<clipPath id="SVGID_76_">
						<use xlink:href="#SVGID_75_"  overflow="visible"/>
					</clipPath>
					<polygon clip-path="url(#SVGID_76_)" fill="#9CBBE2" points="707.2,404 689.4,459.9 680.1,400 					"/>
				</g>
				<g>
					<defs>
						<path id="SVGID_77_" d="M400.7,350.5c89.8-64.7,214.2-43.2,277.9,48c63.7,91.2,42.5,217.6-47.3,282.3
							c-89.8,64.7-214.2,43.2-277.9-48C289.8,541.5,310.9,415.2,400.7,350.5z"/>
					</defs>
					<clipPath id="SVGID_78_">
						<use xlink:href="#SVGID_77_"  overflow="visible"/>
					</clipPath>
					<polygon clip-path="url(#SVGID_78_)" fill="#849DBA" points="707.2,404 728.1,507.9 702.7,519.8 					"/>
				</g>
				<g>
					<defs>
						<path id="SVGID_79_" d="M400.7,350.5c89.8-64.7,214.2-43.2,277.9,48c63.7,91.2,42.5,217.6-47.3,282.3
							c-89.8,64.7-214.2,43.2-277.9-48C289.8,541.5,310.9,415.2,400.7,350.5z"/>
					</defs>
					<clipPath id="SVGID_80_">
						<use xlink:href="#SVGID_79_"  overflow="visible"/>
					</clipPath>
					<polygon clip-path="url(#SVGID_80_)" fill="#B5D5F0" points="702.7,519.8 689.4,459.9 707.2,404 					"/>
				</g>
				<g>
					<defs>
						<path id="SVGID_81_" d="M400.7,350.5c89.8-64.7,214.2-43.2,277.9,48c63.7,91.2,42.5,217.6-47.3,282.3
							c-89.8,64.7-214.2,43.2-277.9-48C289.8,541.5,310.9,415.2,400.7,350.5z"/>
					</defs>
					<clipPath id="SVGID_82_">
						<use xlink:href="#SVGID_81_"  overflow="visible"/>
					</clipPath>
					<polygon clip-path="url(#SVGID_82_)" fill="#DEF2FC" points="702.7,519.8 677.6,509.9 689.4,459.9 					"/>
				</g>
				<g>
					<defs>
						<path id="SVGID_83_" d="M400.7,350.5c89.8-64.7,214.2-43.2,277.9,48c63.7,91.2,42.5,217.6-47.3,282.3
							c-89.8,64.7-214.2,43.2-277.9-48C289.8,541.5,310.9,415.2,400.7,350.5z"/>
					</defs>
					<clipPath id="SVGID_84_">
						<use xlink:href="#SVGID_83_"  overflow="visible"/>
					</clipPath>
					<polygon clip-path="url(#SVGID_84_)" fill="#BBC8E6" points="707.2,404 692,377.9 677.7,383.7 					"/>
				</g>
				<g>
					<defs>
						<path id="SVGID_85_" d="M400.7,350.5c89.8-64.7,214.2-43.2,277.9,48c63.7,91.2,42.5,217.6-47.3,282.3
							c-89.8,64.7-214.2,43.2-277.9-48C289.8,541.5,310.9,415.2,400.7,350.5z"/>
					</defs>
					<clipPath id="SVGID_86_">
						<use xlink:href="#SVGID_85_"  overflow="visible"/>
					</clipPath>
					<polygon clip-path="url(#SVGID_86_)" fill="#5C7785" points="680.1,400 677.7,383.7 707.2,404 					"/>
				</g>
				<g>
					<defs>
						<path id="SVGID_87_" d="M400.7,350.5c89.8-64.7,214.2-43.2,277.9,48c63.7,91.2,42.5,217.6-47.3,282.3
							c-89.8,64.7-214.2,43.2-277.9-48C289.8,541.5,310.9,415.2,400.7,350.5z"/>
					</defs>
					<clipPath id="SVGID_88_">
						<use xlink:href="#SVGID_87_"  overflow="visible"/>
					</clipPath>
					<polygon clip-path="url(#SVGID_88_)" fill="#40546E" points="699.5,636.4 701.7,553.6 728.1,507.9 					"/>
				</g>
				<g>
					<defs>
						<path id="SVGID_89_" d="M400.7,350.5c89.8-64.7,214.2-43.2,277.9,48c63.7,91.2,42.5,217.6-47.3,282.3
							c-89.8,64.7-214.2,43.2-277.9-48C289.8,541.5,310.9,415.2,400.7,350.5z"/>
					</defs>
					<clipPath id="SVGID_90_">
						<use xlink:href="#SVGID_89_"  overflow="visible"/>
					</clipPath>
					<polygon clip-path="url(#SVGID_90_)" fill="#7697C8" points="677.7,383.7 652,348 692,377.9 					"/>
				</g>
				<g>
					<defs>
						<path id="SVGID_91_" d="M400.7,350.5c89.8-64.7,214.2-43.2,277.9,48c63.7,91.2,42.5,217.6-47.3,282.3
							c-89.8,64.7-214.2,43.2-277.9-48C289.8,541.5,310.9,415.2,400.7,350.5z"/>
					</defs>
					<clipPath id="SVGID_92_">
						<use xlink:href="#SVGID_91_"  overflow="visible"/>
					</clipPath>
					<polygon clip-path="url(#SVGID_92_)" fill="#DEF2FC" points="552.3,288.5 652,348 637.3,353.3 					"/>
				</g>
				<g>
					<defs>
						<path id="SVGID_93_" d="M400.7,350.5c89.8-64.7,214.2-43.2,277.9,48c63.7,91.2,42.5,217.6-47.3,282.3
							c-89.8,64.7-214.2,43.2-277.9-48C289.8,541.5,310.9,415.2,400.7,350.5z"/>
					</defs>
					<clipPath id="SVGID_94_">
						<use xlink:href="#SVGID_93_"  overflow="visible"/>
					</clipPath>
					<polygon clip-path="url(#SVGID_94_)" fill="#C7EFFF" points="677.7,383.7 630.6,393.3 652,348 					"/>
				</g>
				<g>
					<defs>
						<path id="SVGID_95_" d="M400.7,350.5c89.8-64.7,214.2-43.2,277.9,48c63.7,91.2,42.5,217.6-47.3,282.3
							c-89.8,64.7-214.2,43.2-277.9-48C289.8,541.5,310.9,415.2,400.7,350.5z"/>
					</defs>
					<clipPath id="SVGID_96_">
						<use xlink:href="#SVGID_95_"  overflow="visible"/>
					</clipPath>
					<polygon clip-path="url(#SVGID_96_)" fill="#BBC8E6" points="637.3,353.3 630.6,393.3 652,348 					"/>
				</g>
				<g>
					<defs>
						<path id="SVGID_97_" d="M400.7,350.5c89.8-64.7,214.2-43.2,277.9,48c63.7,91.2,42.5,217.6-47.3,282.3
							c-89.8,64.7-214.2,43.2-277.9-48C289.8,541.5,310.9,415.2,400.7,350.5z"/>
					</defs>
					<clipPath id="SVGID_98_">
						<use xlink:href="#SVGID_97_"  overflow="visible"/>
					</clipPath>
					<polygon clip-path="url(#SVGID_98_)" fill="#DEF2FC" points="689.4,459.9 630.6,393.3 680.1,400 					"/>
				</g>
				<g>
					<defs>
						<path id="SVGID_99_" d="M400.7,350.5c89.8-64.7,214.2-43.2,277.9,48c63.7,91.2,42.5,217.6-47.3,282.3
							c-89.8,64.7-214.2,43.2-277.9-48C289.8,541.5,310.9,415.2,400.7,350.5z"/>
					</defs>
					<clipPath id="SVGID_100_">
						<use xlink:href="#SVGID_99_"  overflow="visible"/>
					</clipPath>
					<polygon clip-path="url(#SVGID_100_)" fill="#D1E3F4" points="680.1,400 677.7,383.7 630.6,393.3 					"/>
				</g>
				<g>
					<defs>
						<path id="SVGID_101_" d="M400.7,350.5c89.8-64.7,214.2-43.2,277.9,48c63.7,91.2,42.5,217.6-47.3,282.3
							c-89.8,64.7-214.2,43.2-277.9-48C289.8,541.5,310.9,415.2,400.7,350.5z"/>
					</defs>
					<clipPath id="SVGID_102_">
						<use xlink:href="#SVGID_101_"  overflow="visible"/>
					</clipPath>
					<polygon clip-path="url(#SVGID_102_)" fill="#C7EFFF" points="533.7,368.8 500.5,425.8 544.5,397.9 					"/>
				</g>
				<g>
					<defs>
						<path id="SVGID_103_" d="M400.7,350.5c89.8-64.7,214.2-43.2,277.9,48c63.7,91.2,42.5,217.6-47.3,282.3
							c-89.8,64.7-214.2,43.2-277.9-48C289.8,541.5,310.9,415.2,400.7,350.5z"/>
					</defs>
					<clipPath id="SVGID_104_">
						<use xlink:href="#SVGID_103_"  overflow="visible"/>
					</clipPath>
					<polygon clip-path="url(#SVGID_104_)" fill="#BDD6EF" points="500.5,425.8 418.3,387.3 533.7,368.8 					"/>
				</g>
				<g>
					<defs>
						<path id="SVGID_105_" d="M400.7,350.5c89.8-64.7,214.2-43.2,277.9,48c63.7,91.2,42.5,217.6-47.3,282.3
							c-89.8,64.7-214.2,43.2-277.9-48C289.8,541.5,310.9,415.2,400.7,350.5z"/>
					</defs>
					<clipPath id="SVGID_106_">
						<use xlink:href="#SVGID_105_"  overflow="visible"/>
					</clipPath>
					<polygon clip-path="url(#SVGID_106_)" fill="#C4D6EE" points="329.4,401.4 424.1,376.7 533.7,368.8 					"/>
				</g>
				<g>
					<defs>
						<path id="SVGID_107_" d="M400.7,350.5c89.8-64.7,214.2-43.2,277.9,48c63.7,91.2,42.5,217.6-47.3,282.3
							c-89.8,64.7-214.2,43.2-277.9-48C289.8,541.5,310.9,415.2,400.7,350.5z"/>
					</defs>
					<clipPath id="SVGID_108_">
						<use xlink:href="#SVGID_107_"  overflow="visible"/>
					</clipPath>
					<polygon clip-path="url(#SVGID_108_)" fill="#B5D5F0" points="361.7,602.4 379.6,536.7 383.8,520.7 410.1,579.4 					"/>
				</g>
				<g>
					<defs>
						<path id="SVGID_109_" d="M400.7,350.5c89.8-64.7,214.2-43.2,277.9,48c63.7,91.2,42.5,217.6-47.3,282.3
							c-89.8,64.7-214.2,43.2-277.9-48C289.8,541.5,310.9,415.2,400.7,350.5z"/>
					</defs>
					<clipPath id="SVGID_110_">
						<use xlink:href="#SVGID_109_"  overflow="visible"/>
					</clipPath>
					<polygon clip-path="url(#SVGID_110_)" fill="#7697C8" points="339.5,529.5 361.7,602.4 325.1,622 					"/>
				</g>
				<g>
					<defs>
						<path id="SVGID_111_" d="M400.7,350.5c89.8-64.7,214.2-43.2,277.9,48c63.7,91.2,42.5,217.6-47.3,282.3
							c-89.8,64.7-214.2,43.2-277.9-48C289.8,541.5,310.9,415.2,400.7,350.5z"/>
					</defs>
					<clipPath id="SVGID_112_">
						<use xlink:href="#SVGID_111_"  overflow="visible"/>
					</clipPath>
					<polygon clip-path="url(#SVGID_112_)" fill="#BDCFEB" points="410.1,579.4 379.6,536.7 362,509.6 329.3,400.4 					"/>
				</g>
				<g>
					<defs>
						<path id="SVGID_113_" d="M400.7,350.5c89.8-64.7,214.2-43.2,277.9,48c63.7,91.2,42.5,217.6-47.3,282.3
							c-89.8,64.7-214.2,43.2-277.9-48C289.8,541.5,310.9,415.2,400.7,350.5z"/>
					</defs>
					<clipPath id="SVGID_114_">
						<use xlink:href="#SVGID_113_"  overflow="visible"/>
					</clipPath>
					<polygon clip-path="url(#SVGID_114_)" fill="#849DBA" points="362,509.6 379.6,536.7 339.5,529.5 					"/>
				</g>
				<g>
					<defs>
						<path id="SVGID_115_" d="M400.7,350.5c89.8-64.7,214.2-43.2,277.9,48c63.7,91.2,42.5,217.6-47.3,282.3
							c-89.8,64.7-214.2,43.2-277.9-48C289.8,541.5,310.9,415.2,400.7,350.5z"/>
					</defs>
					<clipPath id="SVGID_116_">
						<use xlink:href="#SVGID_115_"  overflow="visible"/>
					</clipPath>
					<polygon clip-path="url(#SVGID_116_)" fill="#DEF2FC" points="418.5,318.3 424.1,376.7 533.7,368.8 					"/>
				</g>
				<g>
					<defs>
						<path id="SVGID_117_" d="M400.7,350.5c89.8-64.7,214.2-43.2,277.9,48c63.7,91.2,42.5,217.6-47.3,282.3
							c-89.8,64.7-214.2,43.2-277.9-48C289.8,541.5,310.9,415.2,400.7,350.5z"/>
					</defs>
					<clipPath id="SVGID_118_">
						<use xlink:href="#SVGID_117_"  overflow="visible"/>
					</clipPath>
					<polygon clip-path="url(#SVGID_118_)" fill="#D9F6FF" points="579.5,496.9 410.1,579.4 541.5,578.6 					"/>
				</g>
				<g>
					<defs>
						<path id="SVGID_119_" d="M400.7,350.5c89.8-64.7,214.2-43.2,277.9,48c63.7,91.2,42.5,217.6-47.3,282.3
							c-89.8,64.7-214.2,43.2-277.9-48C289.8,541.5,310.9,415.2,400.7,350.5z"/>
					</defs>
					<clipPath id="SVGID_120_">
						<use xlink:href="#SVGID_119_"  overflow="visible"/>
					</clipPath>
					<polygon clip-path="url(#SVGID_120_)" fill="#DEF2FC" points="545.8,397.4 500.5,425.8 579.5,496.9 					"/>
				</g>
				<g>
					<defs>
						<path id="SVGID_121_" d="M400.7,350.5c89.8-64.7,214.2-43.2,277.9,48c63.7,91.2,42.5,217.6-47.3,282.3
							c-89.8,64.7-214.2,43.2-277.9-48C289.8,541.5,310.9,415.2,400.7,350.5z"/>
					</defs>
					<clipPath id="SVGID_122_">
						<use xlink:href="#SVGID_121_"  overflow="visible"/>
					</clipPath>
					<polygon clip-path="url(#SVGID_122_)" fill="#9CBBE2" points="457.2,498.7 329.3,400.4 410.1,579.4 					"/>
				</g>
				<g>
					<defs>
						<path id="SVGID_123_" d="M400.7,350.5c89.8-64.7,214.2-43.2,277.9,48c63.7,91.2,42.5,217.6-47.3,282.3
							c-89.8,64.7-214.2,43.2-277.9-48C289.8,541.5,310.9,415.2,400.7,350.5z"/>
					</defs>
					<clipPath id="SVGID_124_">
						<use xlink:href="#SVGID_123_"  overflow="visible"/>
					</clipPath>
					<polygon clip-path="url(#SVGID_124_)" fill="#C7EFFF" points="579.5,496.9 689.4,459.9 630.6,393.3 					"/>
				</g>
				<g>
					<defs>
						<path id="SVGID_125_" d="M400.7,350.5c89.8-64.7,214.2-43.2,277.9,48c63.7,91.2,42.5,217.6-47.3,282.3
							c-89.8,64.7-214.2,43.2-277.9-48C289.8,541.5,310.9,415.2,400.7,350.5z"/>
					</defs>
					<clipPath id="SVGID_126_">
						<use xlink:href="#SVGID_125_"  overflow="visible"/>
					</clipPath>
					<polygon clip-path="url(#SVGID_126_)" fill="#D1E3F4" points="533.7,368.8 630.6,393.3 544.5,397.9 					"/>
				</g>
				<g>
					<defs>
						<path id="SVGID_127_" d="M400.7,350.5c89.8-64.7,214.2-43.2,277.9,48c63.7,91.2,42.5,217.6-47.3,282.3
							c-89.8,64.7-214.2,43.2-277.9-48C289.8,541.5,310.9,415.2,400.7,350.5z"/>
					</defs>
					<clipPath id="SVGID_128_">
						<use xlink:href="#SVGID_127_"  overflow="visible"/>
					</clipPath>
					<polygon clip-path="url(#SVGID_128_)" fill="#D9F6FF" points="457.2,498.7 418.3,387.3 500.5,425.8 					"/>
				</g>
				<g>
					<defs>
						<path id="SVGID_129_" d="M400.7,350.5c89.8-64.7,214.2-43.2,277.9,48c63.7,91.2,42.5,217.6-47.3,282.3
							c-89.8,64.7-214.2,43.2-277.9-48C289.8,541.5,310.9,415.2,400.7,350.5z"/>
					</defs>
					<clipPath id="SVGID_130_">
						<use xlink:href="#SVGID_129_"  overflow="visible"/>
					</clipPath>
					<polygon clip-path="url(#SVGID_130_)" fill="#C4D6EE" points="418.3,387.3 333.6,415.5 353.3,397.9 					"/>
				</g>
				<g>
					<defs>
						<path id="SVGID_131_" d="M400.7,350.5c89.8-64.7,214.2-43.2,277.9,48c63.7,91.2,42.5,217.6-47.3,282.3
							c-89.8,64.7-214.2,43.2-277.9-48C289.8,541.5,310.9,415.2,400.7,350.5z"/>
					</defs>
					<clipPath id="SVGID_132_">
						<use xlink:href="#SVGID_131_"  overflow="visible"/>
					</clipPath>
					<polygon clip-path="url(#SVGID_132_)" fill="#7697C8" points="510,634.6 410.1,579.4 483.2,685.8 					"/>
				</g>
				<g>
					<defs>
						<path id="SVGID_133_" d="M400.7,350.5c89.8-64.7,214.2-43.2,277.9,48c63.7,91.2,42.5,217.6-47.3,282.3
							c-89.8,64.7-214.2,43.2-277.9-48C289.8,541.5,310.9,415.2,400.7,350.5z"/>
					</defs>
					<clipPath id="SVGID_134_">
						<use xlink:href="#SVGID_133_"  overflow="visible"/>
					</clipPath>
					<polygon clip-path="url(#SVGID_134_)" fill="#84ACD6" points="578.2,667 541.5,578.6 510,634.6 					"/>
				</g>
				<g>
					<defs>
						<path id="SVGID_135_" d="M400.7,350.5c89.8-64.7,214.2-43.2,277.9,48c63.7,91.2,42.5,217.6-47.3,282.3
							c-89.8,64.7-214.2,43.2-277.9-48C289.8,541.5,310.9,415.2,400.7,350.5z"/>
					</defs>
					<clipPath id="SVGID_136_">
						<use xlink:href="#SVGID_135_"  overflow="visible"/>
					</clipPath>
					<polygon clip-path="url(#SVGID_136_)" fill="#DEF2FC" points="541.5,578.6 480.7,544.1 410.1,579.4 					"/>
				</g>
				<g>
					<defs>
						<path id="SVGID_137_" d="M400.7,350.5c89.8-64.7,214.2-43.2,277.9,48c63.7,91.2,42.5,217.6-47.3,282.3
							c-89.8,64.7-214.2,43.2-277.9-48C289.8,541.5,310.9,415.2,400.7,350.5z"/>
					</defs>
					<clipPath id="SVGID_138_">
						<use xlink:href="#SVGID_137_"  overflow="visible"/>
					</clipPath>
					<polygon clip-path="url(#SVGID_138_)" fill="#C3DCF2" points="480.7,544.1 500.5,425.8 457.2,498.7 					"/>
				</g>
			</g>
		</g>
	</g>
</g>
</svg>
