<svg xmlns="http://www.w3.org/2000/svg" xmlns:xlink="http://www.w3.org/1999/xlink" viewBox="358.9 356.1 316.8 316.8" enable-background="new 358.9 356.1 316.8 316.8"><defs><circle id="1" cx="517.27" cy="514.45" r="158.4"/><clipPath id="0"><use xlink:href="#1"/></clipPath></defs><circle clip-path="url(#0)" fill="#e89624" cx="517.27" cy="514.45" r="158.4"/><path clip-path="url(#0)" fill="#fbb03a" d="m517.34 402.01l163.87 21.26-70.45 166.76-25.01-51.6z"/><path clip-path="url(#0)" fill="#ffce49" d="m523.53 321.25l-6.19 80.76 163.87 21.26z"/><path clip-path="url(#0)" fill="#c17129" d="m517.34 402.01l-53.66 104.16-52.1 74.86-39.56-72.68-21.37-102.14z"/><path clip-path="url(#0)" fill="#e89624" d="m411.12 574.02l46.55-74.66 59.67-97.35 68.41 136.42 25.01 51.6z"/><path clip-path="url(#0)" fill="#a4742a" d="m352.63 410.09l-5.1 200.27 63.59-36.34-31.59-73.97z"/><path clip-path="url(#0)" fill="#f6aa37" d="m352.63 410.09l173.49-66.07-8.78 57.99z"/><path clip-path="url(#0)" fill="#ed8e22" d="m681.21 423.27l19.03 103.96-39.82 112.57-49.66-49.77z"/><path clip-path="url(#0)" fill="#9d6627" d="m343.53 590.76l67.59-16.74 35.77 57.27 60.54 69.67z"/><path clip-path="url(#0)" fill="#c28b2d" d="m411.12 574.02l215.75 10.93-119.44 116.01-36.05-37.47-25.98-31.86z"/><path clip-path="url(#0)" fill="#b4742a" d="m610.76 590.03l49.66 49.77-152.99 61.16 44.91-49.4z"/><path clip-path="url(#0)" fill="#b0792b" d="m343.53 590.76l-12.69-94.12 48.69 3.41z"/><path clip-path="url(#0)" fill="#a16e29" d="m330.84 496.64l21.57-87.65 27.12 91.06z"/><path clip-path="url(#0)" fill="#d78727" d="m700.24 527.23l-89.48 62.8 49.66 49.77z"/><path clip-path="url(#0)" fill="#e29d31" d="m411.12 574.02l86.43-7.03 113.21 23.04z"/><path clip-path="url(#0)" fill="#fbb136" d="m406.43 407.57l24.57 43.24 26.67 48.55 59.67-97.35z"/><path clip-path="url(#0)" fill="#f6aa37" d="m352.41 408.99l54.02-1.42 24.57 43.24z"/><path clip-path="url(#0)" fill="#c47c2a" d="m431 450.81l-51.47 49.24-27.12-91.06z"/><path clip-path="url(#0)" fill="#ed8e22" d="m431 450.81l9.09-8.94-33.66-34.3z"/><path clip-path="url(#0)" fill="#ffc549" d="m440.09 441.87l77.25-39.86-110.91 5.56z"/><path clip-path="url(#0)" fill="#ffce49" d="m440.09 441.87l38.26 23.73-47.35-14.79z"/><path clip-path="url(#0)" fill="#f4a634" d="m440.09 441.87l38.26 23.73 11.73-49.51z"/><path clip-path="url(#0)" fill="#f39b27" d="m406.43 407.57l36.1-21.51 74.81 15.95z"/><path clip-path="url(#0)" fill="#ffce49" d="m406.43 407.57l-54.02 1.42 90.12-22.93z"/><path clip-path="url(#0)" fill="#cd7f29" d="m352.41 408.99l86.55-60.22 3.57 37.29z"/><path clip-path="url(#0)" fill="#db6b27" d="m523.53 321.25l-84.57 27.52-1.79 12.16z"/><path clip-path="url(#0)" fill="#f39726" d="m442.53 386.06l-5.36-25.13 85.15-17.43z"/><path clip-path="url(#0)" fill="#ffc549" d="m522.32 343.5l1.21-22.25-86.36 39.68z"/><path clip-path="url(#0)" fill="#ffda4d" d="m523.53 321.25l89.34 36.25-28.41 14.89z"/><path clip-path="url(#0)" fill="#f58723" d="m681.21 423.27l-68.88-66.35-27.87 15.47z"/><g fill="#8e5523"><path clip-path="url(#0)" d="m506.6 701.97l-32.76-38.31 48.05 20.13z"/><path clip-path="url(#0)" d="m506.6 701.97l-84.23-31.82 3.05-24.26z"/></g><path clip-path="url(#0)" fill="#a4742a" d="m425.42 645.89l48.42 17.77 32.76 38.31z"/><path clip-path="url(#0)" fill="#473321" d="m422.37 670.15l-20.84-40.37 23.89 16.11z"/><path clip-path="url(#0)" fill="#8e5523" d="m425.42 645.89l19.98-14.26 28.44 32.03z"/><path clip-path="url(#0)" fill="#8c5d3a" d="m343.53 590.76l58 39.02 20.84 40.37z"/><path clip-path="url(#0)" fill="#ec9c54" d="m660.42 639.8l-88.32 46.83 2.93-13.24z"/><path clip-path="url(#0)" fill="#ae6e29" d="m534.72 689.41l17.62-37.85 19.76 35.07z"/><path clip-path="url(#0)" fill="#9d6627" d="m575.03 673.39l-22.69-21.83 19.76 35.07z"/><path clip-path="url(#0)" fill="#a16e29" d="m473.84 663.66l78.5-12.1-30.45 32.23z"/><path clip-path="url(#0)" fill="#8e5523" d="m521.89 683.79l12.83 5.62 17.62-37.85z"/><path clip-path="url(#0)" fill="#cc7629" d="m610.76 590.03l-25.01-51.6-.34 45.8z"/><path clip-path="url(#0)" fill="#e47d25" d="m681.21 423.27l-25.52 81.45-44.93 85.31z"/><path clip-path="url(#0)" fill="#f39b27" d="m522.32 343.5l42.69 55.12-47.67 3.39z"/><path clip-path="url(#0)" fill="#fbb136" d="m584.46 372.39l-62.14-28.89 1.21-22.25z"/><path clip-path="url(#0)" fill="#f58723" d="m517.34 402.01l47.67-3.39 23.48-.47 94.96 27.64z"/><path clip-path="url(#0)" fill="#f9a22d" d="m588.49 398.15l-4.03-25.76-19.45 26.23z"/><path clip-path="url(#0)" fill="#f6aa37" d="m700.24 527.23l-44.55-22.51-44.93 85.31z"/><path clip-path="url(#0)" fill="#ed8e22" d="m497.55 566.99l19.79-164.98-59.67 97.35z"/><path clip-path="url(#0)" fill="#da8427" d="m585.75 538.43l-.34 45.8-87.86-17.24z"/><path clip-path="url(#0)" fill="#ffce49" d="m517.34 402.01l138.15 52.28-44.73 135.74-25.01-51.6z"/><path clip-path="url(#0)" fill="#ed8e22" d="m585.75 538.43l95.46-115.16-70.45 166.76z"/></svg>