<svg xmlns="http://www.w3.org/2000/svg" xmlns:xlink="http://www.w3.org/1999/xlink" viewBox="406.9 404.1 220.8 220.8" enable-background="new 406.9 404.1 220.8 220.8"><defs><circle id="1" cx="517.27" cy="514.45" r="110.38"/><clipPath id="0"><use xlink:href="#1"/></clipPath></defs><circle clip-path="url(#0)" fill="#6c5229" cx="517.27" cy="514.45" r="110.38"/><g clip-path="url(#0)"><path fill="#0b132d" d="m511.23 428.24c.857 0 2-1.303.695-1.303-.858.0001-2 1.303-.695 1.303"/></g><path clip-path="url(#0)" fill="#0d1321" d="m458.56 458.67l-28-34.92 100.93-28.3z"/><path clip-path="url(#0)" fill="#90744d" d="m504.74 583.08l-101.94-24.35 23.9-43.74 31.94-56.87z"/><path clip-path="url(#0)" fill="#281e0f" d="m494.89 635.37l4.04-21.79 5.81-30.5-101.94-24.35z"/><path clip-path="url(#0)" fill="#6c5229" d="m504.74 583.08l83.15-107.47 10.34 54.85 11.26 59.59z"/><path clip-path="url(#0)" fill="#c2a380" d="m587.89 475.61l-83.15 107.47-46.39-125.01z"/><path clip-path="url(#0)" fill="#977037" d="m609.49 590.05l18.16-114.35-39.76-.09 10.34 54.85z"/><path clip-path="url(#0)" fill="#0d1511" d="m609.49 590.05l-114.6 45.32 4.04-21.79 5.81-30.5z"/><path clip-path="url(#0)" fill="#6a4b1d" d="m402.8 558.73l-5.59-67.94 32.84-68.5 27.98 34.93z"/><path clip-path="url(#0)" fill="#8b6226" d="m627.65 475.7l-39.76-.09-56.61-80.75z"/><g clip-path="url(#0)"><path fill="#0b132d" d="m511.02 427.65c.857 0 2-1.303.695-1.303-.858.0001-2 1.303-.695 1.303"/></g><path clip-path="url(#0)" fill="#e3c498" d="m587.89 475.61l-129.54-17.54 72.93-63.21 18.72 25.87z"/><path clip-path="url(#0)" fill="#b18a5d" d="m458.35 458.07l-27.98-34.93 100.91-28.28-31.76 28.19z"/><path clip-path="url(#0)" fill="#674a1c" d="m627.65 475.7l1.45 60.38-30.87-5.62z"/><path clip-path="url(#0)" fill="#3d3020" d="m629.1 536.08l-19.61 53.97-11.26-59.59z"/><path clip-path="url(#0)" fill="#8e6b29" d="m397.53 491.63l60.82-33.56-28.04-35.01z"/><path clip-path="url(#0)" fill="#482c1d" d="m587.89 475.61l-59.92 4.8-69.62-22.34z"/><path clip-path="url(#0)" fill="#503919" d="m575.23 587.28l-12.6-29.02-13.63-32.53-44.26 57.35z"/><path clip-path="url(#0)" fill="#58442b" d="m609.49 590.05l-34.26-2.77-12.6-29.02z"/><path clip-path="url(#0)" fill="#573e1a" d="m562.63 558.26l35.6-27.8 11.26 59.59z"/><path clip-path="url(#0)" fill="#7e6846" d="m562.63 558.26l-6.36 5.04 18.96 23.98z"/><path clip-path="url(#0)" fill="#503815" d="m556.27 563.3l-49.51 19.17 68.47 4.81z"/><path clip-path="url(#0)" fill="#9c805d" d="m556.27 563.3l-22.66-17.64 29.02 12.6z"/><path clip-path="url(#0)" fill="#785a24" d="m556.27 563.3l-22.66-17.64-10.71 30.55z"/><path clip-path="url(#0)" fill="#1f130a" d="m575.23 587.28l-24.29 11.15-46.2-15.35z"/><path clip-path="url(#0)" fill="#624d36" d="m575.23 587.28l34.26 2.77-58.55 8.38z"/><path clip-path="url(#0)" fill="#39281b" d="m609.49 590.05l-58.83 32.21.28-23.83z"/><path clip-path="url(#0)" fill="#2a3934" d="m494.89 635.37l56.39-12.23 1.34-8.46z"/><path clip-path="url(#0)" fill="#2d1f10" d="m550.94 598.43l1.68 16.25-53.69-1.1z"/><path clip-path="url(#0)" fill="#0a1d14" d="m498.93 613.58l-4.04 21.79 57.73-20.69z"/><path clip-path="url(#0)" fill="#0c160f" d="m494.89 635.37l-53.63-30.45 18.98-7.49z"/><path clip-path="url(#0)" fill="#493923" d="m402.8 558.73l38.76 46.59 18.68-7.89z"/><path clip-path="url(#0)" fill="#452f1e" d="m531.87 394.27l18.13 26.46-29.03-16.01z"/><path clip-path="url(#0)" fill="#624d36" d="m531.87 394.27l51.12 25.85-3.6 15.17z"/><path clip-path="url(#0)" fill="#654128" d="m579.39 435.29l-29.39-14.56-18.13-26.46z"/><path clip-path="url(#0)" fill="#473321" d="m582.99 420.12l10.21 26.78-13.81-11.61z"/><path clip-path="url(#0)" fill="#493317" d="m579.39 435.29l-13.67 8.21-15.72-22.77z"/><path clip-path="url(#0)" fill="#a76533" d="m520.97 404.72l-7.74-4.42 18.64-6.03z"/><path clip-path="url(#0)" fill="#8c5d3a" d="m627.65 475.7l-34.45-28.8-10.21-26.78z"/><path clip-path="url(#0)" fill="#ec9c54" d="m430.31 423.06l59.11-23.55-2.77 8.19z"/><path clip-path="url(#0)" fill="#caa57b" d="m513.23 400.3l-13.71 22.75-10.1-23.54z"/><path clip-path="url(#0)" fill="#614328" d="m486.65 407.7l12.87 15.35-10.1-23.54z"/><path clip-path="url(#0)" fill="#b28a50" d="m550 420.73l-50.48 2.32 21.45-18.33z"/><path clip-path="url(#0)" fill="#946a37" d="m520.97 404.72l-7.74-4.42-13.71 22.75z"/><g clip-path="url(#0)"/><path clip-path="url(#0)" fill="#c9a67e" d="m458.35 458.07l12.57 33.97 3.11-28.66z"/><path clip-path="url(#0)" fill="#936b30" d="m470.92 492.04l-44.22 22.95 31.65-56.92z"/><path clip-path="url(#0)" fill="#a07e52" d="m402.8 558.73l21.37-49.84 34.18-50.82-31.65 56.92z"/><path clip-path="url(#0)" fill="#422e17" d="m498.93 613.58l-22.59-31.86 28.4 1.36z"/><path clip-path="url(#0)" fill="#020202" d="m460.96 598.25l37.97 15.33-4.04 21.79z"/><path clip-path="url(#0)" fill="#231a0e" d="m504.74 583.08l-44.41-2.41-56.36-22.15z"/><path clip-path="url(#0)" fill="#23110a" d="m459.16 580.88l1.08 16.55 16.1-15.71-16.9-.86"/><path clip-path="url(#0)" fill="#997a48" d="m397.53 491.63l26.64 17.26 34.18-50.82z"/><path clip-path="url(#0)" fill="#a98a63" d="m527.97 480.41l-23.23 102.67 28.87-37.42 15.39-19.93z"/><path clip-path="url(#0)" fill="#946d33" d="m470.92 492.04l3.11-28.66 53.94 17.03z"/><path clip-path="url(#0)" fill="#503215" d="m487.12 535.56l-84.32 23.17 101.94 24.35z"/></svg>