<svg xmlns="http://www.w3.org/2000/svg" xmlns:xlink="http://www.w3.org/1999/xlink" viewBox="161.7 151.4 720.2 727.9" enable-background="new 161.7 151.4 720.2 727.9"><defs><clipPath id="k"><use xlink:href="#2G"/></clipPath><clipPath id="z"><use xlink:href="#2V"/></clipPath><clipPath id="x"><use xlink:href="#2T"/></clipPath><clipPath id="y"><use xlink:href="#2U"/></clipPath><clipPath id="10"><use xlink:href="#2W"/></clipPath><clipPath id="15"><use xlink:href="#2b"/></clipPath><clipPath id="11"><use xlink:href="#2X"/></clipPath><clipPath id="14"><use xlink:href="#2a"/></clipPath><clipPath id="12"><use xlink:href="#2Y"/></clipPath><clipPath id="13"><use xlink:href="#2Z"/></clipPath><clipPath id="w"><use xlink:href="#2S"/></clipPath><clipPath id="o"><use xlink:href="#2K"/></clipPath><clipPath id="v"><use xlink:href="#2R"/></clipPath><clipPath id="n"><use xlink:href="#2J"/></clipPath><clipPath id="l"><use xlink:href="#2H"/></clipPath><clipPath id="m"><use xlink:href="#2I"/></clipPath><clipPath id="p"><use xlink:href="#2L"/></clipPath><clipPath id="u"><use xlink:href="#2Q"/></clipPath><clipPath id="q"><use xlink:href="#2M"/></clipPath><clipPath id="t"><use xlink:href="#2P"/></clipPath><clipPath id="r"><use xlink:href="#2N"/></clipPath><clipPath id="s"><use xlink:href="#2O"/></clipPath><clipPath id="16"><use xlink:href="#2c"/></clipPath><clipPath id="1O"><use xlink:href="#2u"/></clipPath><clipPath id="18"><use xlink:href="#2e"/></clipPath><clipPath id="1N"><use xlink:href="#2t"/></clipPath><clipPath id="1L"><use xlink:href="#2r"/></clipPath><clipPath id="1M"><use xlink:href="#2s"/></clipPath><clipPath id="1P"><use xlink:href="#2v"/></clipPath><clipPath id="1U"><use xlink:href="#30"/></clipPath><clipPath id="1Q"><use xlink:href="#2w"/></clipPath><clipPath id="1T"><use xlink:href="#2z"/></clipPath><clipPath id="1R"><use xlink:href="#2x"/></clipPath><clipPath id="1S"><use xlink:href="#2y"/></clipPath><clipPath id="1K"><use xlink:href="#2q"/></clipPath><clipPath id="1C"><use xlink:href="#2i"/></clipPath><clipPath id="1J"><use xlink:href="#2p"/></clipPath><clipPath id="1B"><use xlink:href="#2h"/></clipPath><clipPath id="19"><use xlink:href="#2f"/></clipPath><clipPath id="1A"><use xlink:href="#2g"/></clipPath><clipPath id="1D"><use xlink:href="#2j"/></clipPath><clipPath id="1I"><use xlink:href="#2o"/></clipPath><clipPath id="1E"><use xlink:href="#2k"/></clipPath><clipPath id="1H"><use xlink:href="#2n"/></clipPath><clipPath id="1F"><use xlink:href="#2l"/></clipPath><clipPath id="1G"><use xlink:href="#2m"/></clipPath><clipPath id="17"><use xlink:href="#2d"/></clipPath><clipPath id="E"><use xlink:href="#1k"/></clipPath><clipPath id="L"><use xlink:href="#1r"/></clipPath><clipPath id="D"><use xlink:href="#1j"/></clipPath><clipPath id="B"><use xlink:href="#1h"/></clipPath><clipPath id="C"><use xlink:href="#1i"/></clipPath><clipPath id="F"><use xlink:href="#1l"/></clipPath><clipPath id="K"><use xlink:href="#1q"/></clipPath><clipPath id="G"><use xlink:href="#1m"/></clipPath><clipPath id="J"><use xlink:href="#1p"/></clipPath><clipPath id="H"><use xlink:href="#1n"/></clipPath><clipPath id="I"><use xlink:href="#1o"/></clipPath><clipPath id="A"><use xlink:href="#1g"/></clipPath><clipPath id="3"><use xlink:href="#1Y"/></clipPath><clipPath id="9"><use xlink:href="#1f"/></clipPath><clipPath id="2"><use xlink:href="#1X"/></clipPath><clipPath id="j"><use xlink:href="#2F"/></clipPath><clipPath id="1"><use xlink:href="#1W"/></clipPath><clipPath id="4"><use xlink:href="#1Z"/></clipPath><clipPath id="8"><use xlink:href="#1e"/></clipPath><clipPath id="5"><use xlink:href="#1a"/></clipPath><clipPath id="7"><use xlink:href="#1d"/></clipPath><clipPath id="6"><use xlink:href="#1b"/></clipPath><clipPath><use xlink:href="#1c"/></clipPath><clipPath id="0"><use xlink:href="#1V"/></clipPath><clipPath id="b"><use xlink:href="#27"/></clipPath><clipPath id="X"><use xlink:href="#23"/></clipPath><clipPath id="a"><use xlink:href="#26"/></clipPath><clipPath id="Y"><use xlink:href="#24"/></clipPath><clipPath id="Z"><use xlink:href="#25"/></clipPath><clipPath id="c"><use xlink:href="#28"/></clipPath><clipPath id="h"><use xlink:href="#2D"/></clipPath><clipPath id="d"><use xlink:href="#29"/></clipPath><clipPath id="g"><use xlink:href="#2C"/></clipPath><clipPath id="e"><use xlink:href="#2A"/></clipPath><clipPath id="f"><use xlink:href="#2B"/></clipPath><clipPath id="i"><use xlink:href="#2E"/></clipPath><clipPath id="P"><use xlink:href="#1v"/></clipPath><clipPath id="Q"><use xlink:href="#1w"/></clipPath><clipPath id="O"><use xlink:href="#1u"/></clipPath><clipPath id="M"><use xlink:href="#1s"/></clipPath><clipPath id="N"><use xlink:href="#1t"/></clipPath><clipPath id="W"><use xlink:href="#22"/></clipPath><clipPath id="V"><use xlink:href="#21"/></clipPath><clipPath id="U"><use xlink:href="#20"/></clipPath><clipPath id="R"><use xlink:href="#1x"/></clipPath><clipPath id="T"><use xlink:href="#1z"/></clipPath><clipPath id="S"><use xlink:href="#1y"/></clipPath><ellipse id="2V" cx="521.9" cy="515.4" rx="360.1" ry="364"/><ellipse id="2U" cx="521.9" cy="515.4" rx="360.1" ry="364"/><ellipse id="2T" cx="521.9" cy="515.4" rx="360.1" ry="364"/><ellipse id="2W" cx="521.9" cy="515.4" rx="360.1" ry="364"/><ellipse id="2X" cx="521.9" cy="515.4" rx="360.1" ry="364"/><ellipse id="2b" cx="521.9" cy="515.4" rx="360.1" ry="364"/><ellipse id="2S" cx="521.9" cy="515.4" rx="360.1" ry="364"/><ellipse id="2a" cx="521.9" cy="515.4" rx="360.1" ry="364"/><ellipse id="2Y" cx="521.9" cy="515.4" rx="360.1" ry="364"/><ellipse id="2Z" cx="521.9" cy="515.4" rx="360.1" ry="364"/><ellipse id="2R" cx="521.9" cy="515.4" rx="360.1" ry="364"/><ellipse id="2K" cx="521.9" cy="515.4" rx="360.1" ry="364"/><ellipse id="2c" cx="521.9" cy="515.4" rx="360.1" ry="364"/><ellipse id="2J" cx="521.9" cy="515.4" rx="360.1" ry="364"/><ellipse id="2H" cx="521.9" cy="515.4" rx="360.1" ry="364"/><ellipse id="2I" cx="521.9" cy="515.4" rx="360.1" ry="364"/><ellipse id="2L" cx="521.9" cy="515.4" rx="360.1" ry="364"/><ellipse id="2Q" cx="521.9" cy="515.4" rx="360.1" ry="364"/><ellipse id="2M" cx="521.9" cy="515.4" rx="360.1" ry="364"/><ellipse id="2P" cx="521.9" cy="515.4" rx="360.1" ry="364"/><ellipse id="2N" cx="521.9" cy="515.4" rx="360.1" ry="364"/><ellipse id="2O" cx="521.9" cy="515.4" rx="360.1" ry="364"/><ellipse id="2o" cx="521.9" cy="515.4" rx="360.1" ry="364"/><ellipse id="2t" cx="521.9" cy="515.4" rx="360.1" ry="364"/><ellipse id="2d" cx="521.9" cy="515.4" rx="360.1" ry="364"/><ellipse id="2s" cx="521.9" cy="515.4" rx="360.1" ry="364"/><ellipse id="2q" cx="521.9" cy="515.4" rx="360.1" ry="364"/><ellipse id="2r" cx="521.9" cy="515.4" rx="360.1" ry="364"/><ellipse id="2u" cx="521.9" cy="515.4" rx="360.1" ry="364"/><ellipse id="2z" cx="521.9" cy="515.4" rx="360.1" ry="364"/><ellipse id="2v" cx="521.9" cy="515.4" rx="360.1" ry="364"/><ellipse id="2y" cx="521.9" cy="515.4" rx="360.1" ry="364"/><ellipse id="2w" cx="521.9" cy="515.4" rx="360.1" ry="364"/><ellipse id="2x" cx="521.9" cy="515.4" rx="360.1" ry="364"/><ellipse id="2p" cx="521.9" cy="515.4" rx="360.1" ry="364"/><ellipse id="2h" cx="521.9" cy="515.4" rx="360.1" ry="364"/><ellipse id="2G" cx="521.9" cy="515.4" rx="360.1" ry="364"/><ellipse id="2g" cx="521.9" cy="515.4" rx="360.1" ry="364"/><ellipse id="2e" cx="521.9" cy="515.4" rx="360.1" ry="364"/><ellipse id="2f" cx="521.9" cy="515.4" rx="360.1" ry="364"/><ellipse id="2i" cx="521.9" cy="515.4" rx="360.1" ry="364"/><ellipse id="2n" cx="521.9" cy="515.4" rx="360.1" ry="364"/><ellipse id="2j" cx="521.9" cy="515.4" rx="360.1" ry="364"/><ellipse id="2m" cx="521.9" cy="515.4" rx="360.1" ry="364"/><ellipse id="2k" cx="521.9" cy="515.4" rx="360.1" ry="364"/><ellipse id="2l" cx="521.9" cy="515.4" rx="360.1" ry="364"/><ellipse id="1V" cx="521.9" cy="515.4" rx="360.1" ry="364"/><ellipse id="1k" cx="521.9" cy="515.4" rx="360.1" ry="364"/><ellipse id="2F" cx="521.9" cy="515.4" rx="360.1" ry="364"/><ellipse id="1j" cx="521.9" cy="515.4" rx="360.1" ry="364"/><ellipse id="1h" cx="521.9" cy="515.4" rx="360.1" ry="364"/><ellipse id="1i" cx="521.9" cy="515.4" rx="360.1" ry="364"/><ellipse id="1l" cx="521.9" cy="515.4" rx="360.1" ry="364"/><ellipse id="1q" cx="521.9" cy="515.4" rx="360.1" ry="364"/><ellipse id="1m" cx="521.9" cy="515.4" rx="360.1" ry="364"/><ellipse id="1p" cx="521.9" cy="515.4" rx="360.1" ry="364"/><ellipse id="1n" cx="521.9" cy="515.4" rx="360.1" ry="364"/><ellipse id="1o" cx="521.9" cy="515.4" rx="360.1" ry="364"/><ellipse id="1g" cx="521.9" cy="515.4" rx="360.1" ry="364"/><ellipse id="1Y" cx="521.9" cy="515.4" rx="360.1" ry="364"/><ellipse id="1f" cx="521.9" cy="515.4" rx="360.1" ry="364"/><ellipse id="1X" cx="521.9" cy="515.4" rx="360.1" ry="364"/><ellipse id="30" cx="521.9" cy="515.4" rx="360.1" ry="364"/><ellipse id="1W" cx="521.9" cy="515.4" rx="360.1" ry="364"/><ellipse id="1Z" cx="521.9" cy="515.4" rx="360.1" ry="364"/><ellipse id="1e" cx="521.9" cy="515.4" rx="360.1" ry="364"/><ellipse id="1a" cx="521.9" cy="515.4" rx="360.1" ry="364"/><ellipse id="1d" cx="521.9" cy="515.4" rx="360.1" ry="364"/><ellipse id="1b" cx="521.9" cy="515.4" rx="360.1" ry="364"/><ellipse id="1c" cx="521.9" cy="515.4" rx="360.1" ry="364"/><ellipse id="1r" cx="521.9" cy="515.4" rx="360.1" ry="364"/><ellipse id="28" cx="521.9" cy="515.4" rx="360.1" ry="364"/><ellipse id="1s" cx="521.9" cy="515.4" rx="360.1" ry="364"/><ellipse id="27" cx="521.9" cy="515.4" rx="360.1" ry="364"/><ellipse id="25" cx="521.9" cy="515.4" rx="360.1" ry="364"/><ellipse id="26" cx="521.9" cy="515.4" rx="360.1" ry="364"/><ellipse id="29" cx="521.9" cy="515.4" rx="360.1" ry="364"/><ellipse id="2E" cx="521.9" cy="515.4" rx="360.1" ry="364"/><ellipse id="2A" cx="521.9" cy="515.4" rx="360.1" ry="364"/><ellipse id="2D" cx="521.9" cy="515.4" rx="360.1" ry="364"/><ellipse id="2B" cx="521.9" cy="515.4" rx="360.1" ry="364"/><ellipse id="2C" cx="521.9" cy="515.4" rx="360.1" ry="364"/><ellipse id="24" cx="521.9" cy="515.4" rx="360.1" ry="364"/><ellipse id="1w" cx="521.9" cy="515.4" rx="360.1" ry="364"/><ellipse id="23" cx="521.9" cy="515.4" rx="360.1" ry="364"/><ellipse id="1v" cx="521.9" cy="515.4" rx="360.1" ry="364"/><ellipse id="1t" cx="521.9" cy="515.4" rx="360.1" ry="364"/><ellipse id="1u" cx="521.9" cy="515.4" rx="360.1" ry="364"/><ellipse id="1x" cx="521.9" cy="515.4" rx="360.1" ry="364"/><ellipse id="22" cx="521.9" cy="515.4" rx="360.1" ry="364"/><ellipse id="1y" cx="521.9" cy="515.4" rx="360.1" ry="364"/><ellipse id="21" cx="521.9" cy="515.4" rx="360.1" ry="364"/><ellipse id="1z" cx="521.9" cy="515.4" rx="360.1" ry="364"/><ellipse id="20" cx="521.9" cy="515.4" rx="360.1" ry="364"/></defs><ellipse clip-path="url(#0)" fill="#c8cfc9" cx="521.9" cy="515.4" rx="360.1" ry="364"/><g clip-path="url(#1)"><path fill="#6a6230" d="m316.3 569.9c1.1 0 1.5-1.5.2-1.5-1.2 0-1.5 1.5-.2 1.5"/></g><path clip-path="url(#4)" fill="#26322c" d="m169.8 309.6l-9 382.9 129.2-17.3z"/><g clip-path="url(#6)"><path fill="#0b132d" d="m560.7 802.3c.9 0 2-1.3.7-1.3-.9 0-2 1.3-.7 1.3"/></g><path clip-path="url(#7)" fill="#929588" d="m522.2 113.1l-7.1 73.4-3.4 102.1 344.3 35.2z"/><path clip-path="url(#9)" fill="#71461f" d="m515.1 285.7l344.3 35.2-138.3 358z"/><path clip-path="url(#A)" fill="#956938" d="M515.1 285.7 290.9 677.1 170.7 311.5z"/><path clip-path="url(#B)" fill="#a4764a" d="m290.9 677.1l57.8-104.9 166.4-286.5 151.7 287 54.3 106.2z"/><path clip-path="url(#C)" fill="#c3d3d7" d="m666.8 572.7l141-100.5-86.4 227.5z"/><path clip-path="url(#D)" fill="#afc0c6" d="m170.7 311.5l-8.9 382.9 129.1-17.3z"/><path clip-path="url(#E)" fill="#9a988c" d="m170.7 311.5l354.9-201.3-5.7 73.7-4.8 101.8-230.4 18.4z"/><path clip-path="url(#F)" fill="#d3bca0" d="m859.4 320.9l45.7 218.9-77.1 240.5-106.9-101.4z"/><path clip-path="url(#H)" fill="#808077" d="m157.7 693l133.2-15.9 152.5 163.4 67.7 77.8z"/><g clip-path="url(#I)"><path fill="#0b132d" d="m561.6 804.2c.9 0 2-1.3.7-1.3-.8 0-2 1.3-.7 1.3"/></g><path clip-path="url(#J)" fill="#6f6b5f" d="m290.9 677.1l222.8-7.9 207.4 9.7-210 239.4-70.2-75.8z"/><path clip-path="url(#K)" fill="#7a7367" d="m721.1 678.9l106.9 101.4-316.9 138 90.8-107.1z"/><path clip-path="url(#L)" fill="#7b5338" d="m129.9 495.9l40.3-186.7 62.9 191.6z"/><path clip-path="url(#M)" fill="#bcc3c6" d="m904.1 541.1l-183 137.8 106.1 102.9z"/><path clip-path="url(#N)" fill="#b1b8ad" d="m290.9 677.1l193.4-42.4 183.2 27.9 53.6 16.3-207.3-5.4z"/><path clip-path="url(#O)" fill="#959289" d="M284.7 304.1 395.9 495 515.1 285.7z"/><path clip-path="url(#P)" fill="#95877f" d="m170.2 309.2l114.5-5.1 52.4 89.2z"/><path clip-path="url(#Q)" fill="#9a988c" d="m337.1 393.3l-113.8 78.1-53.1-162.2z"/><path clip-path="url(#R)" fill="#9a988c" d="m337.1 393.3l18.5-19.5-70.9-69.7z"/><path clip-path="url(#S)" fill="#bcc3c6" d="m355.6 373.8l159.5-88.1-230.4 18.4z"/><path clip-path="url(#T)" fill="#808077" d="m355.6 373.8l81.5 48.1-100-28.6z"/><path clip-path="url(#U)" fill="#959289" d="m355.6 373.8l81.5 48.1 21.7-105.4z"/><path clip-path="url(#V)" fill="#a4764a" d="m284.7 304.1l72.9-48.5 157.5 30.1z"/><path clip-path="url(#Y)" fill="#bc8044" d="m284.7 304.1l-114.5 5.1 187.4-53.6z"/><path clip-path="url(#Z)" fill="#acb1ad" d="m168.1 309.7l180-132.8 9.5 78.7z"/><path clip-path="url(#a)" fill="#8c7761" d="m525.6 107.8l-177.5 69.1-3.1 25.8z"/><path clip-path="url(#b)" fill="#d3bca0" d="m357.6 255.6l-12.6-52.9 174.9-18.8z"/><path clip-path="url(#c)" fill="#b5ab9c" d="m519.9 183.9l3.8-75.4-178.7 94.2z"/><path clip-path="url(#d)" fill="#877865" d="m525.6 107.8l187.1 77.7-58.7 33.2z"/><path clip-path="url(#e)" fill="#c3d1d7" d="M857 318.9 711.5 184.3 654 218.7z"/><path clip-path="url(#f)" fill="#686557" d="m509.4 920.5l-68.5-78 99.5 38.7z"/><path clip-path="url(#g)" fill="#555a54" d="m509.4 920.5l-177.6-68 8.8-52.2z"/><path clip-path="url(#h)" fill="#5f6662" d="m340.6 800.3l100.3 42.2 68.5 78z"/><path clip-path="url(#i)" fill="#645d52" d="m336.1 853.1l-50.7-79.4 55.2 26.6z"/><path clip-path="url(#j)" fill="#84847a" d="m340.6 800.3l38.1-28.3 62.2 70.5z"/><path clip-path="url(#m)" fill="#554c3f" d="m160.7 693.6l137.9 86.5 37.5 73z"/><path clip-path="url(#o)" fill="#6c675b" d="m828.2 780.5l-182.5 103.9 5.4-28.2z"/><path clip-path="url(#p)" fill="#6c553b" d="m567.6 892.3l34.3-81.1 43.8 73.2z"/><path clip-path="url(#q)" fill="#6b5e51" d="m651.1 856.2l-49.2-45 43.8 73.2z"/><path clip-path="url(#r)" fill="#7c7364" d="m440.9 842.5l161-31.3-61.5 70z"/><path clip-path="url(#s)" fill="#655748" d="m540.4 881.2l27.2 11.1 34.3-81.1z"/><path clip-path="url(#t)" fill="#c0cccf" d="m721.1 678.9l-54.3-106.2 1.4 92.5z"/><path clip-path="url(#u)" fill="#6f6b5f" d="M519.9 183.9 627 297.4 515.1 285.7z"/><path clip-path="url(#v)" fill="#968b79" d="m654 218.7l-134.1-34.8 4.8-75.6z"/><path clip-path="url(#w)" fill="#bc8044" d="m515.1 285.7l149.5-12.8 196.5 48.7z"/><path clip-path="url(#x)" fill="#8b7258" d="m654 218.7l-45.6 59 56.2-4.8z"/><path clip-path="url(#y)" fill="#b3bbb8" d="m906.5 541.6l-94.5-45.1-90.9 182.4z"/><path clip-path="url(#z)" fill="#8b7258" d="m484.4 635l30.7-349.3-77.7 136.9-41.5 72.3z"/><path clip-path="url(#10)" fill="#c8cfc9" d="m485.6 635.8l188.4 30.9-7.2-94-181.1 63 28.1 37.8-221.6 4.7z"/><path clip-path="url(#11)" fill="#6f6b5f" d="m593.5 434.6l267.6-113-346-35.9z"/><path clip-path="url(#12)" fill="#959289" d="m440.9 842.5l72.9-169-222.9 3.6z"/><path clip-path="url(#13)" fill="#624d36" d="m223.3 471.4l172.5 23.1-58.7-101.2z"/><path clip-path="url(#14)" fill="#95877f" d="m223.3 471.4l-78.5-48 25-113.8z"/><path clip-path="url(#15)" fill="#c3d3d7" d="m593.5 434.6l206.1 41.1 61.5-154.1-136.9 56.2z"/><path clip-path="url(#16)" fill="#7b6851" d="m799.6 475.7l78.7-62.6-18.9-92.2z"/><path clip-path="url(#17)" fill="#bcc3c6" d="m395.8 494.5l197.7-59.9-78.4-148.9-78 136.2z"/><path clip-path="url(#18)" fill="#b1b8ad" d="M484.2 634.9 348.7 572.2 288 677.9z"/><path clip-path="url(#19)" fill="#9a988c" d="m440.9 842.5l-32.9-167-117.3 1.8z"/><path clip-path="url(#1A)" fill="#b4bec0" d="m408 675.5l76.3-40.8-193.6 42.6z"/><path clip-path="url(#1B)" fill="#b3c2c8" d="m196.1 596.3l94.6 81-129.9 15.2z"/><path clip-path="url(#1C)" fill="#87989e" d="m129.9 495.9l66.2 100.4-35.3 96.2z"/><path clip-path="url(#1D)" fill="#cbc9bc" d="M348.7 572.2 233.1 500.8 290 675.2z"/><path clip-path="url(#1E)" fill="#68473a" d="m233.1 500.8l85.7-17-95.5-12.4z"/><path clip-path="url(#1F)" fill="#95877f" d="m316.9 484.5l20.2-91.2-113.8 78.1z"/><path clip-path="url(#1G)" fill="#f8d9b5" d="m337.1 393.3l-143.7-9.9 29.9 88z"/><path clip-path="url(#1H)" fill="#7d5e44" d="m144.8 423.4l48.6-40 29.9 88z"/><path clip-path="url(#1I)" fill="#5a4431" d="m437.1 421.9l62 41.7-103.3 30.9z"/><path clip-path="url(#1J)" fill="#959289" d="m437.1 421.9l62 41.7 94.4-29z"/><path clip-path="url(#1K)" fill="#9f7c5e" d="m484.3 634.7l109.2-200.1-94.4 29z"/><path clip-path="url(#1L)" fill="#8d725c" d="m799.6 475.7l-75.4-97.9 135.2-56.9z"/><path clip-path="url(#1M)" fill="#7a7367" d="m724.2 377.8l-209.1-92.1 170.5 14.7 173.8 20.5z"/><path clip-path="url(#1N)" fill="#5b4d3e" d="m515.1 285.7l170.5 14.7 38.6 77.4z"/><path clip-path="url(#1O)" fill="#947f68" d="m160.7 693.6l-30.8-197.7 103 3.2z"/><path clip-path="url(#1P)" fill="#7b6851" d="m348.7 572.2l-218.8-76.3 103 3.2z"/><path clip-path="url(#1Q)" fill="#8b7258" d="m666.8 572.7l217.7-42.4-72.5-34z"/><path clip-path="url(#1R)" fill="#bc8044" d="m666.8 572.7l145.2-76.4-12.2-20.6z"/><ellipse opacity=".3" clip-path="url(#1S)" fill="#bc8044" cx="417.4" cy="632.4" rx="84.5" ry="39.8"/><path opacity=".4" clip-path="url(#1T)" fill="#ffffe3" d="m432.9 593.3c0 0 106.9 10.1 30.8 66.2-77.6 57.2-297.1 27.5-297.1 27.5l18.3 101.8c-.1 0 541-170.5 248-195.5"/><path opacity=".4" clip-path="url(#1U)" fill="#ffffe3" d="m404.3 672.1c0 0-105.7-17.9-38.3-66.3 89.1-64 545.6-83.2 545.6-83.2l-47.8-167.9c0 .1-792.8 289-459.5 317.4"/></svg>