<?xml version="1.0" encoding="utf-8"?>
<!-- Generator: Adobe Illustrator 15.0.2, SVG Export Plug-In . SVG Version: 6.00 Build 0)  -->
<!DOCTYPE svg PUBLIC "-//W3C//DTD SVG 1.1//EN" "http://www.w3.org/Graphics/SVG/1.1/DTD/svg11.dtd">
<svg version="1.1" id="Layer_1" xmlns="http://www.w3.org/2000/svg" xmlns:xlink="http://www.w3.org/1999/xlink" x="0px" y="0px"
	 width="1250.5px" height="1250.5px" viewBox="0 0 1250.5 1250.5" enable-background="new 0 0 1250.5 1250.5" xml:space="preserve">
<g>
	<g id="Planet">
		<g>
			<defs>
				<circle id="SVGID_1_" cx="640.2" cy="632.8" r="265"/>
			</defs>
			<clipPath id="SVGID_2_">
				<use xlink:href="#SVGID_1_"  overflow="visible"/>
			</clipPath>
			<path clip-path="url(#SVGID_2_)" fill="#C59857" d="M836.4,803.4c-94.3,108.3-258.5,119.7-366.9,25.5
				c-108.3-94.3-119.7-258.5-25.5-366.9c94.3-108.3,258.5-119.7,366.9-25.5C919.3,530.9,930.7,695.1,836.4,803.4z"/>
		</g>
		<g>
			<defs>
				<circle id="SVGID_3_" cx="640.2" cy="632.8" r="265"/>
			</defs>
			<clipPath id="SVGID_4_">
				<use xlink:href="#SVGID_3_"  overflow="visible"/>
			</clipPath>
			<polygon clip-path="url(#SVGID_4_)" fill="#ECBC68" points="462.7,669.5 354.4,679.6 431.9,436.9 450.5,538.5 			"/>
		</g>
		<g>
			<defs>
				<circle id="SVGID_5_" cx="640.2" cy="632.8" r="265"/>
			</defs>
			<clipPath id="SVGID_6_">
				<use xlink:href="#SVGID_5_"  overflow="visible"/>
			</clipPath>
			<path clip-path="url(#SVGID_6_)" fill="#26322C" d="M464.2,669.9"/>
		</g>
		<g>
			<defs>
				<circle id="SVGID_7_" cx="640.2" cy="632.8" r="265"/>
			</defs>
			<clipPath id="SVGID_8_">
				<use xlink:href="#SVGID_7_"  overflow="visible"/>
			</clipPath>
			<polygon clip-path="url(#SVGID_8_)" fill="#8F715D" points="549.1,363.9 625.5,381.4 577.7,395.3 			"/>
		</g>
		<g>
			<defs>
				<circle id="SVGID_9_" cx="640.2" cy="632.8" r="265"/>
			</defs>
			<clipPath id="SVGID_10_">
				<use xlink:href="#SVGID_9_"  overflow="visible"/>
			</clipPath>
			<path clip-path="url(#SVGID_10_)" fill="#0B132D" d="M629.3,417.5"/>
		</g>
		<g>
			<defs>
				<circle id="SVGID_11_" cx="640.2" cy="632.8" r="265"/>
			</defs>
			<clipPath id="SVGID_12_">
				<use xlink:href="#SVGID_11_"  overflow="visible"/>
			</clipPath>
			<g clip-path="url(#SVGID_12_)">
				<g>
					<path fill="#0B132D" d="M471.6,521.3c0.8,0,2-1.3,0.7-1.3C471.5,520,470.3,521.3,471.6,521.3L471.6,521.3z"/>
				</g>
			</g>
		</g>
		<g>
			<defs>
				<circle id="SVGID_13_" cx="640.2" cy="632.8" r="265"/>
			</defs>
			<clipPath id="SVGID_14_">
				<use xlink:href="#SVGID_13_"  overflow="visible"/>
			</clipPath>
			<line clip-path="url(#SVGID_14_)" fill="none" x1="852.5" y1="645.5" x2="932.5" y2="538.2"/>
		</g>
		<g>
			<defs>
				<circle id="SVGID_15_" cx="640.2" cy="632.8" r="265"/>
			</defs>
			<clipPath id="SVGID_16_">
				<use xlink:href="#SVGID_15_"  overflow="visible"/>
			</clipPath>
			<polygon clip-path="url(#SVGID_16_)" fill="#D0A772" points="778.5,742.4 592.3,917.3 462.7,669.5 548.5,689.4 			"/>
		</g>
		<g>
			<defs>
				<circle id="SVGID_17_" cx="640.2" cy="632.8" r="265"/>
			</defs>
			<clipPath id="SVGID_18_">
				<use xlink:href="#SVGID_17_"  overflow="visible"/>
			</clipPath>
			<polygon clip-path="url(#SVGID_18_)" fill="#BD997D" points="870.1,832.4 778.5,742.4 592.3,917.3 			"/>
		</g>
		<g>
			<defs>
				<circle id="SVGID_19_" cx="640.2" cy="632.8" r="265"/>
			</defs>
			<clipPath id="SVGID_20_">
				<use xlink:href="#SVGID_19_"  overflow="visible"/>
			</clipPath>
			<polygon clip-path="url(#SVGID_20_)" fill="#E4B462" points="778.5,742.4 671.5,429.9 931.2,538.3 			"/>
		</g>
		<g>
			<defs>
				<circle id="SVGID_21_" cx="640.2" cy="632.8" r="265"/>
			</defs>
			<clipPath id="SVGID_22_">
				<use xlink:href="#SVGID_21_"  overflow="visible"/>
			</clipPath>
			<path clip-path="url(#SVGID_22_)" fill="#26322C" d="M462.9,669.5"/>
		</g>
		<g>
			<defs>
				<circle id="SVGID_23_" cx="640.2" cy="632.8" r="265"/>
			</defs>
			<clipPath id="SVGID_24_">
				<use xlink:href="#SVGID_23_"  overflow="visible"/>
			</clipPath>
			<polygon clip-path="url(#SVGID_24_)" fill="#D3A45C" points="671.5,429.9 722.3,575.8 778.5,742.4 548.5,689.4 462.7,669.5 			
				"/>
		</g>
		<g>
			<defs>
				<circle id="SVGID_25_" cx="640.2" cy="632.8" r="265"/>
			</defs>
			<clipPath id="SVGID_26_">
				<use xlink:href="#SVGID_25_"  overflow="visible"/>
			</clipPath>
			<polygon clip-path="url(#SVGID_26_)" fill="#AA875B" points="931.2,538.3 724.5,349.7 671.5,429.9 797.7,485.2 817.8,493.1 			
				"/>
		</g>
		<g>
			<defs>
				<circle id="SVGID_27_" cx="640.2" cy="632.8" r="265"/>
			</defs>
			<clipPath id="SVGID_28_">
				<use xlink:href="#SVGID_27_"  overflow="visible"/>
			</clipPath>
			<polygon clip-path="url(#SVGID_28_)" fill="#D1A571" points="931.2,538.3 870.1,832.4 831.8,794.8 778.5,742.4 			"/>
		</g>
		<g>
			<defs>
				<circle id="SVGID_29_" cx="640.2" cy="632.8" r="265"/>
			</defs>
			<clipPath id="SVGID_30_">
				<use xlink:href="#SVGID_29_"  overflow="visible"/>
			</clipPath>
			<polygon clip-path="url(#SVGID_30_)" fill="#DAAF61" points="592.3,917.3 449.5,837.8 354.4,679.6 462.7,669.5 			"/>
		</g>
		<g>
			<defs>
				<circle id="SVGID_31_" cx="640.2" cy="632.8" r="265"/>
			</defs>
			<clipPath id="SVGID_32_">
				<use xlink:href="#SVGID_31_"  overflow="visible"/>
			</clipPath>
			<path clip-path="url(#SVGID_32_)" fill="#0B132D" d="M627.8,417.2"/>
		</g>
		<g>
			<defs>
				<circle id="SVGID_33_" cx="640.2" cy="632.8" r="265"/>
			</defs>
			<clipPath id="SVGID_34_">
				<use xlink:href="#SVGID_33_"  overflow="visible"/>
			</clipPath>
			<polygon clip-path="url(#SVGID_34_)" fill="#C39A60" points="724.5,349.7 671.5,429.9 576.4,433.6 431.9,436.9 578.2,393.2 			
				"/>
		</g>
		<g>
			<defs>
				<circle id="SVGID_35_" cx="640.2" cy="632.8" r="265"/>
			</defs>
			<clipPath id="SVGID_36_">
				<use xlink:href="#SVGID_35_"  overflow="visible"/>
			</clipPath>
			<polygon clip-path="url(#SVGID_36_)" fill="#846F61" points="578.2,393.2 509,434.9 431.5,434.9 			"/>
		</g>
		<g>
			<defs>
				<circle id="SVGID_37_" cx="640.2" cy="632.8" r="265"/>
			</defs>
			<clipPath id="SVGID_38_">
				<use xlink:href="#SVGID_37_"  overflow="visible"/>
			</clipPath>
			<g clip-path="url(#SVGID_38_)">
				<g>
					<path fill="#0B132D" d="M470.1,520.9c0.8,0,2-1.2,0.7-1.2C470,519.7,468.8,520.9,470.1,520.9L470.1,520.9z"/>
				</g>
			</g>
		</g>
		<g>
			<defs>
				<circle id="SVGID_39_" cx="640.2" cy="632.8" r="265"/>
			</defs>
			<clipPath id="SVGID_40_">
				<use xlink:href="#SVGID_39_"  overflow="visible"/>
			</clipPath>
			<polygon clip-path="url(#SVGID_40_)" fill="#E0B463" points="671.5,429.9 462.7,669.5 446.6,539.1 431.9,436.9 509,433.7 
				576.4,433.6 			"/>
		</g>
		<g>
			<defs>
				<circle id="SVGID_41_" cx="640.2" cy="632.8" r="265"/>
			</defs>
			<clipPath id="SVGID_42_">
				<use xlink:href="#SVGID_41_"  overflow="visible"/>
			</clipPath>
			<line clip-path="url(#SVGID_42_)" fill="none" x1="851" y1="645.1" x2="931" y2="537.8"/>
		</g>
		<g>
			<defs>
				<circle id="SVGID_43_" cx="640.2" cy="632.8" r="265"/>
			</defs>
			<clipPath id="SVGID_44_">
				<use xlink:href="#SVGID_43_"  overflow="visible"/>
			</clipPath>
			<polygon clip-path="url(#SVGID_44_)" fill="#634647" points="724.5,349.7 849.3,427.1 797.7,485.2 			"/>
		</g>
		<g>
			<defs>
				<circle id="SVGID_45_" cx="640.2" cy="632.8" r="265"/>
			</defs>
			<clipPath id="SVGID_46_">
				<use xlink:href="#SVGID_45_"  overflow="visible"/>
			</clipPath>
			<polygon clip-path="url(#SVGID_46_)" fill="#A17D55" points="849.3,427.1 932.7,539.1 797.7,485.2 			"/>
		</g>
		<g>
			<defs>
				<circle id="SVGID_47_" cx="640.2" cy="632.8" r="265"/>
			</defs>
			<clipPath id="SVGID_48_">
				<use xlink:href="#SVGID_47_"  overflow="visible"/>
			</clipPath>
			<polygon clip-path="url(#SVGID_48_)" fill="#A1826A" points="449.5,837.8 462.7,669.5 354.1,679.6 			"/>
		</g>
		<g>
			<defs>
				<circle id="SVGID_49_" cx="640.2" cy="632.8" r="265"/>
			</defs>
			<clipPath id="SVGID_50_">
				<use xlink:href="#SVGID_49_"  overflow="visible"/>
			</clipPath>
			<polygon clip-path="url(#SVGID_50_)" fill="#DFB262" points="671.5,429.9 601.1,558 494.4,644.7 462.7,669.5 			"/>
		</g>
		<g>
			<defs>
				<circle id="SVGID_51_" cx="640.2" cy="632.8" r="265"/>
			</defs>
			<clipPath id="SVGID_52_">
				<use xlink:href="#SVGID_51_"  overflow="visible"/>
			</clipPath>
			<polygon clip-path="url(#SVGID_52_)" fill="#CD9F5F" points="881.2,604.9 722.3,575.8 778.5,742.4 			"/>
		</g>
		<g>
			<defs>
				<circle id="SVGID_53_" cx="640.2" cy="632.8" r="265"/>
			</defs>
			<clipPath id="SVGID_54_">
				<use xlink:href="#SVGID_53_"  overflow="visible"/>
			</clipPath>
			<polygon clip-path="url(#SVGID_54_)" fill="#CCA26C" points="932.7,539.1 881.2,604.9 805.5,591.7 			"/>
		</g>
		<g>
			<defs>
				<circle id="SVGID_55_" cx="640.2" cy="632.8" r="265"/>
			</defs>
			<clipPath id="SVGID_56_">
				<use xlink:href="#SVGID_55_"  overflow="visible"/>
			</clipPath>
			<polygon clip-path="url(#SVGID_56_)" fill="#D7AA5D" points="805.5,591.7 817.8,493.1 932.7,539.1 			"/>
		</g>
		<g>
			<defs>
				<circle id="SVGID_57_" cx="640.2" cy="632.8" r="265"/>
			</defs>
			<clipPath id="SVGID_58_">
				<use xlink:href="#SVGID_57_"  overflow="visible"/>
			</clipPath>
			<polygon clip-path="url(#SVGID_58_)" fill="#D7AA5D" points="805.5,591.7 807.2,611.4 881.2,604.9 			"/>
		</g>
		<g>
			<defs>
				<circle id="SVGID_59_" cx="640.2" cy="632.8" r="265"/>
			</defs>
			<clipPath id="SVGID_60_">
				<use xlink:href="#SVGID_59_"  overflow="visible"/>
			</clipPath>
			<polygon clip-path="url(#SVGID_60_)" fill="#D1A571" points="807.2,611.4 778.5,742.4 881.2,604.9 			"/>
		</g>
		<g>
			<defs>
				<circle id="SVGID_61_" cx="640.2" cy="632.8" r="265"/>
			</defs>
			<clipPath id="SVGID_62_">
				<use xlink:href="#SVGID_61_"  overflow="visible"/>
			</clipPath>
			<polygon clip-path="url(#SVGID_62_)" fill="#F2BE64" points="807.2,611.4 741.3,633.7 805.5,591.7 			"/>
		</g>
		<g>
			<defs>
				<circle id="SVGID_63_" cx="640.2" cy="632.8" r="265"/>
			</defs>
			<clipPath id="SVGID_64_">
				<use xlink:href="#SVGID_63_"  overflow="visible"/>
			</clipPath>
			<polygon clip-path="url(#SVGID_64_)" fill="#DEB15A" points="807.2,611.4 741.3,633.7 788.8,696.3 			"/>
		</g>
		<g>
			<defs>
				<circle id="SVGID_65_" cx="640.2" cy="632.8" r="265"/>
			</defs>
			<clipPath id="SVGID_66_">
				<use xlink:href="#SVGID_65_"  overflow="visible"/>
			</clipPath>
			<polygon clip-path="url(#SVGID_66_)" fill="#BD997D" points="881.2,604.9 871.4,669.2 778.5,742.4 			"/>
		</g>
		<g>
			<defs>
				<circle id="SVGID_67_" cx="640.2" cy="632.8" r="265"/>
			</defs>
			<clipPath id="SVGID_68_">
				<use xlink:href="#SVGID_67_"  overflow="visible"/>
			</clipPath>
			<polygon clip-path="url(#SVGID_68_)" fill="#917867" points="881.2,604.9 932.7,539.1 871.4,669.2 			"/>
		</g>
		<g>
			<defs>
				<circle id="SVGID_69_" cx="640.2" cy="632.8" r="265"/>
			</defs>
			<clipPath id="SVGID_70_">
				<use xlink:href="#SVGID_69_"  overflow="visible"/>
			</clipPath>
			<polygon clip-path="url(#SVGID_70_)" fill="#AF8D74" points="933.4,537.7 919.4,701.6 871.4,669.2 			"/>
		</g>
		<g>
			<defs>
				<circle id="SVGID_71_" cx="640.2" cy="632.8" r="265"/>
			</defs>
			<clipPath id="SVGID_72_">
				<use xlink:href="#SVGID_71_"  overflow="visible"/>
			</clipPath>
			<polygon clip-path="url(#SVGID_72_)" fill="#96766C" points="870.1,832.4 919.4,701.6 906.7,687.5 			"/>
		</g>
		<g>
			<defs>
				<circle id="SVGID_73_" cx="640.2" cy="632.8" r="265"/>
			</defs>
			<clipPath id="SVGID_74_">
				<use xlink:href="#SVGID_73_"  overflow="visible"/>
			</clipPath>
			<polygon clip-path="url(#SVGID_74_)" fill="#C7A17C" points="871.4,669.2 906.7,687.5 831.8,794.8 			"/>
		</g>
		<g>
			<defs>
				<circle id="SVGID_75_" cx="640.2" cy="632.8" r="265"/>
			</defs>
			<clipPath id="SVGID_76_">
				<use xlink:href="#SVGID_75_"  overflow="visible"/>
			</clipPath>
			<polygon clip-path="url(#SVGID_76_)" fill="#B89477" points="831.8,794.8 870.1,832.4 906.7,687.5 			"/>
		</g>
		<g>
			<defs>
				<circle id="SVGID_77_" cx="640.2" cy="632.8" r="265"/>
			</defs>
			<clipPath id="SVGID_78_">
				<use xlink:href="#SVGID_77_"  overflow="visible"/>
			</clipPath>
			<g clip-path="url(#SVGID_78_)">
				<polygon fill="#917867" points="870.1,832.4 738,900.5 748.1,851.9 				"/>
			</g>
		</g>
		<g>
			<defs>
				<circle id="SVGID_79_" cx="640.2" cy="632.8" r="265"/>
			</defs>
			<clipPath id="SVGID_80_">
				<use xlink:href="#SVGID_79_"  overflow="visible"/>
			</clipPath>
			<polygon clip-path="url(#SVGID_80_)" fill="#B3927A" points="594.6,916.9 739.2,900.4 748.1,851.9 			"/>
		</g>
		<g>
			<defs>
				<circle id="SVGID_81_" cx="640.2" cy="632.8" r="265"/>
			</defs>
			<clipPath id="SVGID_82_">
				<use xlink:href="#SVGID_81_"  overflow="visible"/>
			</clipPath>
			<polygon clip-path="url(#SVGID_82_)" fill="#5E5049" points="431.5,434.9 509,433.7 438.1,471 			"/>
		</g>
		<g>
			<defs>
				<circle id="SVGID_83_" cx="640.2" cy="632.8" r="265"/>
			</defs>
			<clipPath id="SVGID_84_">
				<use xlink:href="#SVGID_83_"  overflow="visible"/>
			</clipPath>
			<polygon clip-path="url(#SVGID_84_)" fill="#3E3035" points="431.5,434.9 552.9,365.7 578.2,393.2 			"/>
		</g>
		<g>
			<defs>
				<circle id="SVGID_85_" cx="640.2" cy="632.8" r="265"/>
			</defs>
			<clipPath id="SVGID_86_">
				<use xlink:href="#SVGID_85_"  overflow="visible"/>
			</clipPath>
			<polygon clip-path="url(#SVGID_86_)" fill="#C9A06C" points="578.2,393.2 576.4,433.6 509,433.7 			"/>
		</g>
		<g>
			<defs>
				<circle id="SVGID_87_" cx="640.2" cy="632.8" r="265"/>
			</defs>
			<clipPath id="SVGID_88_">
				<use xlink:href="#SVGID_87_"  overflow="visible"/>
			</clipPath>
			<polygon clip-path="url(#SVGID_88_)" fill="#393131" points="431.5,434.9 405.3,464.9 415.6,483.2 			"/>
		</g>
		<g>
			<defs>
				<circle id="SVGID_89_" cx="640.2" cy="632.8" r="265"/>
			</defs>
			<clipPath id="SVGID_90_">
				<use xlink:href="#SVGID_89_"  overflow="visible"/>
			</clipPath>
			<polygon clip-path="url(#SVGID_90_)" fill="#917862" points="438.1,471 415.5,480.8 431.5,434.9 			"/>
		</g>
		<g>
			<defs>
				<circle id="SVGID_91_" cx="640.2" cy="632.8" r="265"/>
			</defs>
			<clipPath id="SVGID_92_">
				<use xlink:href="#SVGID_91_"  overflow="visible"/>
			</clipPath>
			<polygon clip-path="url(#SVGID_92_)" fill="#795C50" points="724.5,349.7 621,380.5 552.9,365.7 			"/>
		</g>
		<g>
			<defs>
				<circle id="SVGID_93_" cx="640.2" cy="632.8" r="265"/>
			</defs>
			<clipPath id="SVGID_94_">
				<use xlink:href="#SVGID_93_"  overflow="visible"/>
			</clipPath>
			<polygon clip-path="url(#SVGID_94_)" fill="#4C4142" points="415.5,480.8 385.3,528.1 405.3,464.9 			"/>
		</g>
		<g>
			<defs>
				<circle id="SVGID_95_" cx="640.2" cy="632.8" r="265"/>
			</defs>
			<clipPath id="SVGID_96_">
				<use xlink:href="#SVGID_95_"  overflow="visible"/>
			</clipPath>
			<polygon clip-path="url(#SVGID_96_)" fill="#EC9C54" points="354.1,679.6 385.3,528.1 398.3,544.7 			"/>
		</g>
		<g>
			<defs>
				<circle id="SVGID_97_" cx="640.2" cy="632.8" r="265"/>
			</defs>
			<clipPath id="SVGID_98_">
				<use xlink:href="#SVGID_97_"  overflow="visible"/>
			</clipPath>
			<polygon clip-path="url(#SVGID_98_)" fill="#846F61" points="415.5,480.8 446.6,539.1 385.3,528.1 			"/>
		</g>
		<g>
			<defs>
				<circle id="SVGID_99_" cx="640.2" cy="632.8" r="265"/>
			</defs>
			<clipPath id="SVGID_100_">
				<use xlink:href="#SVGID_99_"  overflow="visible"/>
			</clipPath>
			<polygon clip-path="url(#SVGID_100_)" fill="#BF9C72" points="398.3,544.7 446.6,539.1 385.3,528.1 			"/>
		</g>
		<g>
			<defs>
				<circle id="SVGID_101_" cx="640.2" cy="632.8" r="265"/>
			</defs>
			<clipPath id="SVGID_102_">
				<use xlink:href="#SVGID_101_"  overflow="visible"/>
			</clipPath>
			<polygon clip-path="url(#SVGID_102_)" fill="#B39065" points="509,433.7 446.6,539.1 438.1,471 			"/>
		</g>
		<g>
			<defs>
				<circle id="SVGID_103_" cx="640.2" cy="632.8" r="265"/>
			</defs>
			<clipPath id="SVGID_104_">
				<use xlink:href="#SVGID_103_"  overflow="visible"/>
			</clipPath>
			<polygon clip-path="url(#SVGID_104_)" fill="#6D5B52" points="438.1,471 415.5,480.8 446.6,539.1 			"/>
		</g>
		<g>
			<defs>
				<circle id="SVGID_105_" cx="640.2" cy="632.8" r="265"/>
			</defs>
			<clipPath id="SVGID_106_">
				<use xlink:href="#SVGID_105_"  overflow="visible"/>
			</clipPath>
			<g clip-path="url(#SVGID_106_)">
				<g>
					<path fill="#6A6230" d="M387.8,412.3c1.1,0,1.5-1.4,0.2-1.4C386.9,411,386.5,412.3,387.8,412.3L387.8,412.3z"/>
				</g>
			</g>
		</g>
		<g>
			<defs>
				<circle id="SVGID_107_" cx="640.2" cy="632.8" r="265"/>
			</defs>
			<clipPath id="SVGID_108_">
				<use xlink:href="#SVGID_107_"  overflow="visible"/>
			</clipPath>
			<polygon clip-path="url(#SVGID_108_)" fill="#FFCB70" points="462.7,669.5 548.5,689.4 494.4,644.7 			"/>
		</g>
		<g>
			<defs>
				<circle id="SVGID_109_" cx="640.2" cy="632.8" r="265"/>
			</defs>
			<clipPath id="SVGID_110_">
				<use xlink:href="#SVGID_109_"  overflow="visible"/>
			</clipPath>
			<polygon clip-path="url(#SVGID_110_)" fill="#A1826A" points="592.3,917.3 520.2,806.8 462.7,669.5 			"/>
		</g>
		<g>
			<defs>
				<circle id="SVGID_111_" cx="640.2" cy="632.8" r="265"/>
			</defs>
			<clipPath id="SVGID_112_">
				<use xlink:href="#SVGID_111_"  overflow="visible"/>
			</clipPath>
			<polygon clip-path="url(#SVGID_112_)" fill="#D2A878" points="831.8,794.8 717.8,799.1 778.5,742.4 			"/>
		</g>
		<g>
			<defs>
				<circle id="SVGID_113_" cx="640.2" cy="632.8" r="265"/>
			</defs>
			<clipPath id="SVGID_114_">
				<use xlink:href="#SVGID_113_"  overflow="visible"/>
			</clipPath>
			<polygon clip-path="url(#SVGID_114_)" fill="#A98770" points="748.1,851.9 831.8,794.8 870.1,832.4 			"/>
		</g>
		<g>
			<defs>
				<circle id="SVGID_115_" cx="640.2" cy="632.8" r="265"/>
			</defs>
			<clipPath id="SVGID_116_">
				<use xlink:href="#SVGID_115_"  overflow="visible"/>
			</clipPath>
			<polygon clip-path="url(#SVGID_116_)" fill="#B89477" points="778.5,742.4 713.4,831.4 591.1,917.9 			"/>
		</g>
		<g>
			<defs>
				<circle id="SVGID_117_" cx="640.2" cy="632.8" r="265"/>
			</defs>
			<clipPath id="SVGID_118_">
				<use xlink:href="#SVGID_117_"  overflow="visible"/>
			</clipPath>
			<polyline clip-path="url(#SVGID_118_)" fill="#917867" points="713.1,832 748.1,851.9 737.7,798.2 713.4,831.4 			"/>
		</g>
		<g>
			<defs>
				<circle id="SVGID_119_" cx="640.2" cy="632.8" r="265"/>
			</defs>
			<clipPath id="SVGID_120_">
				<use xlink:href="#SVGID_119_"  overflow="visible"/>
			</clipPath>
			<polygon clip-path="url(#SVGID_120_)" fill="#CFA467" points="449.5,837.8 520.2,806.8 462.7,669.5 			"/>
		</g>
		<g>
			<defs>
				<circle id="SVGID_121_" cx="640.2" cy="632.8" r="265"/>
			</defs>
			<clipPath id="SVGID_122_">
				<use xlink:href="#SVGID_121_"  overflow="visible"/>
			</clipPath>
			<polygon clip-path="url(#SVGID_122_)" fill="#F7C663" points="601.1,558 778.5,742.4 722.3,575.8 			"/>
		</g>
		<g>
			<defs>
				<circle id="SVGID_123_" cx="640.2" cy="632.8" r="265"/>
			</defs>
			<clipPath id="SVGID_124_">
				<use xlink:href="#SVGID_123_"  overflow="visible"/>
			</clipPath>
			<polygon clip-path="url(#SVGID_124_)" fill="#C59B63" points="601.1,558 494.4,644.7 548.5,689.4 			"/>
		</g>
		<g>
			<defs>
				<circle id="SVGID_125_" cx="640.2" cy="632.8" r="265"/>
			</defs>
			<clipPath id="SVGID_126_">
				<use xlink:href="#SVGID_125_"  overflow="visible"/>
			</clipPath>
			<polygon clip-path="url(#SVGID_126_)" fill="#ECBC68" points="658.5,714.7 591.1,917.9 778.5,742.4 			"/>
		</g>
		<g>
			<defs>
				<circle id="SVGID_127_" cx="640.2" cy="632.8" r="265"/>
			</defs>
			<clipPath id="SVGID_128_">
				<use xlink:href="#SVGID_127_"  overflow="visible"/>
			</clipPath>
			<path opacity="0.1" clip-path="url(#SVGID_128_)" fill="#C59857" enable-background="new    " d="M481.9,820.7
				c0,0,418.1-191.4,479.2-423.5l90.9,264.7c0,0-160.2,198.2-555.2,218.5C101.8,900.8,481.9,820.7,481.9,820.7z"/>
		</g>
		<g>
			<defs>
				<circle id="SVGID_129_" cx="640.2" cy="632.8" r="265"/>
			</defs>
			<clipPath id="SVGID_130_">
				<use xlink:href="#SVGID_129_"  overflow="visible"/>
			</clipPath>
			<path opacity="0.19" clip-path="url(#SVGID_130_)" fill="#2B221D" enable-background="new    " d="M886.3,463.8l11.1,7.7
				c0,0-224.6,297.9-518.3,366.8c-294.3,69.1,30.4-18.1,30.4-18.1S714.8,695.1,886.3,463.8z"/>
		</g>
	</g>
	<circle fill="none" cx="640.2" cy="632.8" r="265"/>
	<g id="Rings">
		<g>
			<path fill="#B3927A" d="M387.2,726.5c-2.2-5.8-4.2-11.6-5.9-17.6c-39.7,34.7-72.1,65.1-102.2,96.2
				c-69,71.2-102.5,124.2-89.7,141.6c3.3,4.5,10,6.8,20.1,6.8c69.2,0,266.1-107.7,468.2-256.1c117.3-86.1,221.8-174.8,294.3-249.7
				c69-71.2,102.5-124.2,89.7-141.6c-3.3-4.5-10-6.8-20.1-6.8c-43.7,0-134.3,40.7-249.1,109.8c6.6,4.3,13,9,19.1,13.8
				c76.1-39.8,126.1-54.3,138.1-37.8l3.2,2.3C975.2,418,844.7,550.8,661.6,684C478.4,817.1,312,900.3,289.7,869.8l-3.2-2.3
				C273.1,849.1,311.8,796.7,387.2,726.5z"/>
			<path fill="#9E8075" d="M1124.7,265.6l-4.9-3.4c-24.5-33.8-163.4,23.2-346.3,136.4c3.2,1.8,6.4,3.6,9.5,5.5
				c118.3-71.6,212.2-113.5,258.5-113.5c12.9,0,22.1,3.5,27.1,10.3c20.5,28-37.9,98.6-90.5,152.9C905.3,529,800.4,618,682.8,704.4
				C476.1,856.2,281.4,962.2,209.4,962.2c-12.9,0-22.1-3.5-27.1-10.3c-20.5-28,37.9-98.6,90.5-152.9c31.1-32.1,64.2-63.3,105.4-99.1
				c-1.1-4.3-2.1-8.6-3-12.9C203,831.1,100.6,950.4,125.9,985.1l4.9,3.4C164,1034.3,413.6,909.6,688,710
				C962.5,510.4,1158,311.4,1124.7,265.6z"/>
		</g>
		<g>
			<path fill="#392B22" d="M777.5,400.7c0,0,6.6-4.1,18.9-11.7c12.4-7.6,30.6-18.6,54.1-32.1c11.7-6.7,24.8-14.1,39.2-21.8
				c14.4-7.7,30-15.9,47-24.2c17-8.3,35.2-16.8,54.8-24.8c9.8-4,20-7.9,30.5-11.4c10.6-3.5,21.5-6.8,32.9-9.2
				c5.7-1.2,11.5-2.1,17.5-2.6c5.9-0.5,12-0.6,18.1,0.5c3,0.6,6,1.4,8.9,2.8c2.8,1.4,5.4,3.4,7.4,6c1.9,2.6,3.2,5.7,3.7,8.8
				c0.5,3.2,0.5,6.4,0.1,9.6c-0.8,6.3-2.9,12.4-5.4,18.3c-2.5,5.9-5.5,11.6-8.8,17.2c-6.5,11.2-14.1,22-22.1,32.6
				c-16.1,21.2-34.2,41.8-53.4,62.1c-19.2,20.3-39.6,40.3-60.7,60.2c-42.3,39.8-87.7,79-134.9,117.6c-47.2,38.6-96.2,76.4-146.2,113
				c-50,36.6-100.9,71.9-152,105.1c-51.1,33.2-102.5,64.3-153.4,92.2c-25.5,13.9-50.9,26.9-76.3,38.7
				c-25.4,11.7-50.6,22.4-76.1,30.4c-12.7,4-25.5,7.3-38.4,9c-6.5,0.8-13,1.2-19.4,0.6c-3.2-0.3-6.4-0.9-9.5-2c-3.1-1.1-6-2.7-8.4-5
				c-2.4-2.3-4.1-5.2-5.1-8.3c-1-3.1-1.3-6.3-1.1-9.5c0.3-6.3,2-12.3,4.1-18c2.1-5.7,4.8-11.1,7.6-16.4c2.8-5.2,5.9-10.3,9-15.2
				c6.3-9.8,13.1-19,19.9-27.7c6.9-8.8,13.8-17.1,20.8-25.1c13.9-16,27.7-30.6,40.9-44.1c26.4-26.9,50.5-49.4,70.6-67.6
				c20.1-18.2,36.2-32.1,47.2-41.5c11.1-9.4,17-14.4,17-14.4l0.1,0.2c0,0-5.9,5.1-16.8,14.5c-10.9,9.5-26.9,23.6-46.9,41.9
				c-19.9,18.3-43.9,40.8-70.2,67.8c-13.1,13.5-26.8,28.2-40.7,44.2c-6.9,8-13.8,16.4-20.6,25.1c-6.8,8.8-13.5,17.9-19.7,27.7
				c-3.1,4.9-6.1,9.9-8.9,15.1c-2.8,5.2-5.4,10.6-7.4,16.2c-2.1,5.6-3.7,11.5-3.9,17.5c-0.1,3,0.2,6,1.1,8.8
				c0.9,2.8,2.5,5.4,4.6,7.5c2.1,2.1,4.8,3.5,7.7,4.5c2.9,1,5.9,1.6,9,1.9c6.2,0.6,12.6,0.2,19-0.6c12.7-1.7,25.4-5,38.1-9
				c25.3-8,50.5-18.7,75.8-30.4c25.3-11.8,50.7-24.8,76.2-38.7c51-27.7,102.3-58.8,153.5-91.8c51.2-33,102.2-68.1,152.3-104.5
				c50.1-36.4,99.2-74.1,146.4-112.6c47.2-38.6,92.5-77.9,134.5-117.9c21-20,41.3-40.1,60.4-60.5c9.6-10.2,18.8-20.4,27.7-30.7
				c8.9-10.3,17.4-20.7,25.4-31.3c8-10.6,15.5-21.4,21.9-32.5c3.2-5.6,6.2-11.2,8.6-17c2.4-5.8,4.5-11.8,5.3-17.9c0.4-3,0.5-6.1,0-9
				c-0.5-3-1.6-5.7-3.4-8.1c-1.8-2.3-4.1-4.2-6.8-5.5c-2.6-1.3-5.5-2.2-8.4-2.7c-5.8-1.1-11.8-1-17.7-0.6
				c-5.9,0.5-11.6,1.4-17.3,2.6c-11.3,2.3-22.2,5.6-32.7,9.1c-10.5,3.5-20.7,7.4-30.5,11.3c-19.6,8-37.8,16.3-54.8,24.5
				c-33.9,16.5-62.8,32.3-86.4,45.6c-23.6,13.3-41.9,24.2-54.3,31.6c-12.4,7.5-19,11.5-19,11.5L777.5,400.7z"/>
		</g>
		<g>
			<g>
				<defs>
					<path id="SVGID_131_" d="M387.2,726.5c-2.2-5.8-4.2-11.6-5.9-17.6c-39.7,34.7-72.1,65.1-102.2,96.2
						c-69,71.2-102.5,124.2-89.7,141.6c3.3,4.5,10,6.8,20.1,6.8c69.2,0,266.1-107.7,468.2-256.1c117.3-86.1,221.8-174.8,294.3-249.7
						c69-71.2,102.5-124.2,89.7-141.6c-3.3-4.5-10-6.8-20.1-6.8c-43.7,0-134.3,40.7-249.1,109.8c6.6,4.3,13,9,19.1,13.8
						c76.1-39.8,126.1-54.3,138.1-37.8l3.2,2.3C975.2,418,844.7,550.8,661.6,684C478.4,817.1,312,900.3,289.7,869.8l-3.2-2.3
						C273.1,849.1,311.8,796.7,387.2,726.5z"/>
				</defs>
				<clipPath id="SVGID_132_">
					<use xlink:href="#SVGID_131_"  overflow="visible"/>
				</clipPath>
				<path clip-path="url(#SVGID_132_)" fill="none" stroke="#6D5B52" stroke-width="8" stroke-miterlimit="10" d="M798.2,423.3
					c93.2-51.1,160.6-73.9,174.6-54.7c24.1,33.1-118,177.5-317.3,322.7C456.2,836.5,275,927.4,251,894.3
					C235.3,872.8,295,800.4,390.2,715"/>
			</g>
			<g>
				<defs>
					<path id="SVGID_133_" d="M387.2,726.5c-2.2-5.8-4.2-11.6-5.9-17.6c-39.7,34.7-72.1,65.1-102.2,96.2
						c-69,71.2-102.5,124.2-89.7,141.6c3.3,4.5,10,6.8,20.1,6.8c69.2,0,266.1-107.7,468.2-256.1c117.3-86.1,221.8-174.8,294.3-249.7
						c69-71.2,102.5-124.2,89.7-141.6c-3.3-4.5-10-6.8-20.1-6.8c-43.7,0-134.3,40.7-249.1,109.8c6.6,4.3,13,9,19.1,13.8
						c76.1-39.8,126.1-54.3,138.1-37.8l3.2,2.3C975.2,418,844.7,550.8,661.6,684C478.4,817.1,312,900.3,289.7,869.8l-3.2-2.3
						C273.1,849.1,311.8,796.7,387.2,726.5z"/>
				</defs>
				<clipPath id="SVGID_134_">
					<use xlink:href="#SVGID_133_"  overflow="visible"/>
				</clipPath>
				<path clip-path="url(#SVGID_134_)" fill="none" stroke="#6D5B52" stroke-width="3" stroke-miterlimit="10" d="M787.8,417.5
					c130.7-77.3,237.3-120.6,255.2-96.1c27,37.1-137.1,202.5-366.6,369.6C446.9,858.1,239.1,963.5,212.1,926.5
					c-18.8-25.9,52.7-111.9,177.3-219.8"/>
			</g>
		</g>
	</g>
</g>
</svg>
