<svg xmlns="http://www.w3.org/2000/svg" xmlns:xlink="http://www.w3.org/1999/xlink" viewBox="348.8 346.6 336.1 336.1" enable-background="new 348.8 346.6 336.1 336.1"><defs><path id="4" opacity=".3" d="m687.89 522.46c0 0-334.07 98.27-562.97-56.648 0 0 301.64 219.17 526.86 185.37 225.21-33.805 36.11-128.72 36.11-128.72"/><path id="5" opacity=".3" d="m347.29 494.32c0 0 194.72-120.81 367.04-62.6 0 0-229.71-86.24-366.66-25.373-136.95 60.864-.38 87.975-.38 87.975"/><circle id="3" cx="516.85" cy="514.62" r="168.07"/><clipPath id="0"><use xlink:href="#3"/></clipPath><clipPath id="2"><use xlink:href="#5"/></clipPath><clipPath id="1"><use xlink:href="#4"/></clipPath></defs><use xlink:href="#3" fill="#33726d"/><g clip-path="url(#0)"><path fill="#89a989" d="m648.93 377.97l-66.4 58.45 98.22 122.66z"/><path fill="#60907f" d="m588.66 437.45l104.39 127.37-174.23 71.76z"/><path fill="#4d888e" d="m529.55 694.57l-91.35-26.48 10.77-7.11z"/><path fill="#3c7d87" d="m345.28 451.47l46.6 36.42-7.36 147.25z"/><path fill="#3d7c82" d="m391.88 487.89l136.74 139.65-145.89 6.55z"/><path fill="#3d7d80" d="m528.62 627.54l.93 67.03-123.8-61.6z"/><path fill="#3c7d87" d="m383.29 635.29l2.91-47.85 19.55 45.53z"/><path fill="#3d7c82" d="m383.29 635.29l-36.57-77.43 18.12-14.56z"/><path fill="#619280" d="m346.72 557.86l12.43-41.38 5.69 26.82z"/><path fill="#4c8a82" d="m364.84 543.3l23.4 2.78-2.04 41.36z"/><path fill="#619280" d="m405.75 632.97l5.07 12.32-27.53-10z"/><path fill="#518e86" d="m345.18 450.89l13.97 65.59-12.43 41.38z"/><path fill="#4d888e" d="m410.82 645.29l37.06-14.24-9.68 37.04z"/><path fill="#5cb1ab" d="m448.97 660.98l-1.09-29.93-9.68 37.04z"/><path fill="#3c7d87" d="m386.2 587.44l61.68 43.61-42.13 1.92z"/><path fill="#33726d" d="m405.75 632.97l5.07 12.32 37.06-14.24z"/><path fill="#749c80" d="m655.06 379l20.32 65-21.04 17.38z"/><path fill="#6c9886" d="m588.66 437.45l-104.87 27.02-91.91 23.42 79.02-153.95z"/><g fill="#518e86"><path d="m391.88 487.89l91.91-23.42 37.19-11.78 67.68-15.24-28.53 90.68-31.51 99.41z"/><path d="m470.9 333.94l-125.62 117.53 46.6 36.42z"/></g><path fill="#8fae87" d="m470.9 333.94l184.16 45.06-66.4 58.45z"/><path fill="#548c8a" d="m686.87 560.1l-55.68 83.67-101.63 50.67-.94-66.9 87.62-38.43z"/><path fill="#4c8a82" d="m345.18 450.89l53.61-72.16 31.71 34.36z"/><path fill="#5e978f" d="m398.79 378.73l72.11-44.79-40.86 79.75z"/><path fill="#488481" d="m631.19 643.77l-102.02-16.23-.77 68.47z"/><path fill="#4d888e" d="m391.88 487.89l75.11 49.36 62.18 90.29z"/><path fill="#45969c" d="m364.84 543.3l21.36 44.14-3.55 47.63z"/></g><g clip-path="url(#0)"><path fill="#5c5628" d="m509.35 367.77l-12.56 43.45-13 53.25 37.19-11.78 37.69-5.95 29.99-9.29z"/><path fill="#38371f" d="m470.9 333.94l38.45 33.83-12.56 43.45z"/><path fill="#3a3921" d="m496.79 411.22l-60.44-9.96 37.57-67.88z"/><path fill="#514c21" d="m496.79 411.22l12.91 2.26-.35-45.71z"/><path fill="#5a512a" d="m509.7 413.48l78.96 23.97-79.31-69.68z"/><path fill="#5c5d2a" d="m509.7 413.48l11.28 39.21-24.19-41.47z"/><path fill="#5b622b" d="m509.7 413.48l11.28 39.21 39.93-23.81z"/><path fill="#6b6331" d="m509.35 367.77l38.9 9.15 40.41 60.53z"/><path fill="#615a2b" d="m509.35 367.77l-38.45-33.83 77.35 42.98z"/><path fill="#736d2e" d="m470.9 333.94l99.55 15.13-22.2 27.85z"/><path fill="#6c672b" d="m655.06 379l-84.61-29.93-9.26 7.13 41.56 10.09z"/><path fill="#514c21" d="m548.25 376.92l12.94-20.72 75.7 60.87z"/><path fill="#6a6230" d="m636.89 417.07l-34.14-50.78-41.56-10.09z"/><path fill="#5b622b" d="m675.38 444l8.23 25.96-29.27-8.58z"/><path fill="#5c5d2a" d="m686.74 558.68l-3.12-89.47-29.28-7.83z"/><path fill="#5c5628" d="m529.17 627.54l15.81-51.63-29.99 30.95z"/><path fill="#3a3921" d="m544.98 575.91l71.26 13.2-87.07 38.43z"/><path fill="#5c5d2a" d="m616.24 589.11l-.64 9.83-86.43 28.6z"/><path fill="#514c21" d="m483.79 464.47l-47.44-63.21 60.44 9.96z"/><path fill="#5b622b" d="m558.67 446.74l-2.63 33.11 32.62-42.4z"/><path fill="#38371f" d="m461.32 432.62l22.47 31.85-5.62 12.89-7.82 25.16z"/><path fill="#5c5628" d="m470.35 502.52l51.56-.82-43.74-24.34z"/><path fill="#6b6331" d="m478.17 477.36l5.62-12.89 37.82 37.62z"/><path fill="#736d2e" d="m483.79 464.47l-20.1-13.22-2.37-18.63z"/><path fill="#5b622b" d="m502.55 501.82l19.36-.12-16.8 31.77z"/><path fill="#6b6331" d="m505.11 533.47l55.02-5.34-15.15 47.78z"/><path fill="#5c5d2a" d="m505.11 533.47l-48.69 32.92 58.57 40.47z"/><path fill="#38371f" d="m505.11 533.47l39.87 42.44-29.99 30.95z"/><path fill="#514c21" d="m560.13 528.13l56.11 60.98-71.26-13.2z"/><path fill="#6b6331" d="m494.95 684.86l.06-15.72 12.87-.32z"/><path fill="#3a3921" d="m494.95 684.86l35.09-13.88-22.16-2.16z"/><path fill="#615a2b" d="m495.01 669.14l34.76-26.1-21.89 25.78z"/><path fill="#6a6230" d="m615.6 598.94l-30.4 36.93-56.03-8.33z"/><g fill="#514c21"><path d="m585.2 635.87l-55.16 35.11-.87-43.44z"/><path d="m514.99 606.86l14.18 20.68-17.8 28.41z"/></g><path fill="#38371f" d="m529.17 627.54l.6 15.5-17.67 13.4-.73-.49z"/><path fill="#6b6331" d="m481.8 583.93l29.57 72.02 3.62-49.09z"/><path fill="#514c21" d="m507.88 668.82l22.16 2.16-.27-27.94z"/></g><g opacity=".3" clip-path="url(#0)"><path clip-path="url(#1)" fill="#47452b" d="m541.67 680.95l72.43-213.33-176.92 74.35z"/><path clip-path="url(#1)" fill="#26322c" d="m614.1 467.62l-72.43 213.33 215.27-50.32z"/><g clip-path="url(#1)"/><path clip-path="url(#1)" fill="#8e8239" d="m492.04 614.69l-54.759-73"/><path clip-path="url(#1)" fill="#b9b1a4" d="m542.69 680.68l72.42-213.33-176.91 74.36z"/><path clip-path="url(#1)" fill="#6e6c67" d="m615.11 467.35l-72.42 213.33 215.27-50.32z"/><g clip-path="url(#1)"/><path clip-path="url(#1)" fill="#8e8239" d="m493.06 614.42l-54.761-72.996"/><path clip-path="url(#1)" fill="#ded8ce" d="m493.82 465.77l-56.66 76.5 92.68-38.99z"/><path clip-path="url(#1)" fill="#a9a198" d="m614.24 468.17l48.21 87.23 14.97-37.56z"/><path clip-path="url(#1)" fill="#5b5655" d="M472.35 587.09 581.44 567 542.48 680.89z"/><path clip-path="url(#1)" fill="#787975" d="m437.16 542.27l35.19 44.82 51.65-9.15z"/><path clip-path="url(#1)" fill="#4a4944" d="m472.35 587.09l6.83 43.78 63.3 50.02z"/><path clip-path="url(#1)" fill="#eae2cb" d="m677.42 517.84l-14.97 37.56 25.34 27.95 31.4-42.77-19.01-33.1"/><path clip-path="url(#1)" fill="#abae9f" d="m674.05 585.14l-11.6-29.74-87.8.04z"/><path clip-path="url(#1)" fill="#f4efe0" d="m630.86 571.38l-28.63 66.25-18-79.33z"/><path clip-path="url(#1)" fill="#efe4d1" d="m647.32 656.22l25.05-9.87 25.18 25.21-46.4 65.19z"/><path clip-path="url(#1)" fill="#555748" d="m686.66 611.45l10.89 60.11-25.18-25.21z"/><path clip-path="url(#1)" fill="#eaeaea" d="m634.69 567.83l51.97 43.62-12.61-26.31z"/><path clip-path="url(#1)" fill="#e4e4ec" d="m602.23 637.63l84.22 23.28-143.03 19.57z"/><path clip-path="url(#1)" fill="#939387" d="m686.88 660.29l-.43-49.26-84.22 26.6z"/><path clip-path="url(#1)" fill="#47452b" d="m284.65 666.88l72.42-213.32-176.92 74.34z"/><path clip-path="url(#1)" fill="#26322c" d="m357.07 453.56l-72.42 213.32 215.27-50.32z"/><path clip-path="url(#1)" fill="#b9b1a4" d="m285.67 666.62l72.42-213.33-176.91 74.35z"/><path clip-path="url(#1)" fill="#6e6c67" d="m358.09 453.29l-72.42 213.33 215.27-50.32z"/><path clip-path="url(#1)" fill="#a9a198" d="m357.21 454.11l48.22 87.22 14.97-37.56z"/><g clip-path="url(#1)"/><path clip-path="url(#1)" fill="#d0c9bc" d="m499.92 616.56l-57.45 13.46 33.21-27.53z"/><path clip-path="url(#1)" fill="#e4e4ec" d="m450.01 491.77l43.81-26-36.5 52.78-14.16-25.13z"/><path clip-path="url(#1)" fill="#f4efe0" d="m461.37 525.82l3.19 29.81-33.79 13.66z"/><path clip-path="url(#1)" fill="#e4e4ec" d="m464.81 553.28l59.69 24.32-93.62-8.36z"/><path clip-path="url(#1)" fill="#d8d7db" d="m524 577.94l-47.81 24.4-27.44-16.36-17.98-16.69z"/><path clip-path="url(#1)" fill="#eae2cb" d="m420.4 503.77l-14.97 37.56 25.34 27.96 31.39-42.78-19-33.09"/><path clip-path="url(#1)" fill="#b3ae9d" d="m440.53 657.49l23.17-56.38-34.27-4.14z"/><path clip-path="url(#1)" fill="#abae9f" d="m417.03 571.07l-11.6-29.74-87.81.04z"/><path clip-path="url(#1)" fill="#f4efe0" d="m373.83 557.31l-28.62 66.26-18-79.34z"/><path clip-path="url(#1)" fill="#555748" d="m429.63 597.39l10.9 60.1-25.18-25.21z"/><path clip-path="url(#1)" fill="#eaeaea" d="m377.67 553.77l51.96 43.62-12.6-26.32z"/><path clip-path="url(#1)" fill="#e4e4ec" d="m345.21 623.57l84.22 23.28-143.04 19.56z"/><path clip-path="url(#1)" fill="#939387" d="m429.86 646.23l-.43-49.26-84.22 26.6z"/><ellipse transform="matrix(-.9453-.3262.3262-.9453 581.19 1237.15)" opacity=".74" clip-path="url(#1)" fill="#e6e7e8" cx="394.32" cy="569.85" rx="543.56" ry="305.05"/></g><g opacity=".3" clip-path="url(#0)"><path clip-path="url(#2)" fill="#47452b" d="m412.31 368.19l-8.61 148 99.22-78.13z"/><path clip-path="url(#2)" fill="#26322c" d="m403.7 516.19l8.61-148-127.75 69.6z"/><g clip-path="url(#2)"/><path clip-path="url(#2)" fill="#8e8239" d="m455.39 401.54l47.51 36.723"/><path clip-path="url(#2)" fill="#b9b1a4" d="m411.71 368.53l-8.6 148 99.21-78.12z"/><path clip-path="url(#2)" fill="#6e6c67" d="m403.11 516.53l8.6-148-127.75 69.6z"/><g clip-path="url(#2)"/><path clip-path="url(#2)" fill="#8e8239" d="m454.79 401.89l47.51 36.717"/><path clip-path="url(#2)" fill="#ded8ce" d="m480.33 496.31l22.55-58.44-51.97 40.95z"/><path clip-path="url(#2)" fill="#a9a198" d="m403.52 515.86l-45.85-46.89-2.93 26.45z"/><path clip-path="url(#2)" fill="#5b5655" d="m472.71 415.6l-65.69 31.83 4.79-79.07z"/><path clip-path="url(#2)" fill="#787975" d="m502.88 437.87l-30.17-22.27-31.16 14.84z"/><path clip-path="url(#2)" fill="#4a4944" d="m472.71 415.6l-11.99-26.59-48.91-20.65z"/><path clip-path="url(#2)" fill="#eae2cb" d="m354.74 495.42l2.93-26.45-20.97-13.3-12.43 32.63 17.85 17.67"/><path clip-path="url(#2)" fill="#abae9f" d="m345.1 452.13l12.57 16.84 55.69-15.4z"/><path clip-path="url(#2)" fill="#f4efe0" d="m374.91 453.3l6.56-47.04 25.31 47.18z"/><path clip-path="url(#2)" fill="#efe4d1" d="m349.62 402.37l-14.16 10.64-20.39-11.59 18.03-49.47z"/><path clip-path="url(#2)" fill="#eaeaea" d="m373.1 456.22l-40.6-18.58 12.6 14.49z"/><path clip-path="url(#2)" fill="#e4e4ec" d="m381.47 406.26l-57.49-.02 87.31-37.45z"/><path clip-path="url(#2)" fill="#939387" d="m323.81 406.7l8.9 31.18 48.76-31.62z"/><path clip-path="url(#2)" fill="#47452b" d="m577.82 332.12l-8.61 148 99.22-78.13z"/><path clip-path="url(#2)" fill="#26322c" d="m569.21 480.12l8.61-148-127.76 69.6z"/><path clip-path="url(#2)" fill="#b9b1a4" d="m577.22 332.47l-8.61 148 99.21-78.13z"/><path clip-path="url(#2)" fill="#6e6c67" d="m568.61 480.47l8.61-148-127.75 69.6z"/><path clip-path="url(#2)" fill="#ded8ce" d="m645.83 460.25l22.55-58.45-51.96 40.96z"/><path clip-path="url(#2)" fill="#a9a198" d="m569.03 479.8l-45.86-46.89-2.92 26.44z"/><path clip-path="url(#2)" fill="#5b5655" d="m638.21 379.53l-65.68 31.84 4.78-79.07z"/><path clip-path="url(#2)" fill="#787975" d="m668.38 401.8l-30.17-22.27-31.15 14.84z"/><g clip-path="url(#2)"><path fill="#5b622b" d="m590.17 396.97c.846 0 2.01-1.285.701-1.285-.846 0-2.01 1.285-.701 1.285"/></g><path clip-path="url(#2)" fill="#4a4944" d="m638.21 379.53l-11.99-26.58-48.91-20.65z"/><path clip-path="url(#2)" fill="#d0c9bc" d="m450.06 401.72l34.1-18.59-16.26 23.28z"/><path clip-path="url(#2)" fill="#e4e4ec" d="m503.57 472.15l-23.24 24.16 13.91-39.87 13.38 13.46z"/><path clip-path="url(#2)" fill="#f4efe0" d="m490.4 452.54l-7.25-18.35 19.05-14.58z"/><path clip-path="url(#2)" fill="#e4e4ec" d="m483.41 435.73l-42.12-4.99 60.85-11.08z"/><path clip-path="url(#2)" fill="#d8d7db" d="m441.55 430.44l26.06-23.85 20.27 5.58 14.32 7.44z"/><path clip-path="url(#2)" fill="#eae2cb" d="m520.25 459.35l2.92-26.44-20.97-13.3-12.42 32.63 17.84 17.66"/><path clip-path="url(#2)" fill="#b3ae9d" d="m480.57 365.36l-4.83 39.83 22.47-3.37z"/><path clip-path="url(#2)" fill="#abae9f" d="m510.61 416.07l12.56 16.84 55.7-15.4z"/><path clip-path="url(#2)" fill="#f4efe0" d="m540.42 417.24l6.56-47.04 25.31 47.18z"/><path clip-path="url(#2)" fill="#555748" d="m498.01 401.58l-17.44-36.22 20.39 11.59z"/><path clip-path="url(#2)" fill="#eaeaea" d="m538.61 420.16l-40.6-18.58 12.6 14.49z"/><path clip-path="url(#2)" fill="#e4e4ec" d="m546.98 370.2l-57.5-.03 87.31-37.44z"/><path clip-path="url(#2)" fill="#939387" d="m489.32 370.64l8.89 31.18 48.77-31.62z"/><path opacity=".74" clip-path="url(#2)" fill="#e6e7e8" d="m882.21 435.42c6.988-110.65-147.18-210.44-344.33-222.89-197.15-12.451-362.64 67.15-369.63 177.79-6.989 110.65 147.17 210.43 344.33 222.88 197.15 12.453 362.64-67.15 369.63-177.79"/></g></svg>