<svg xmlns="http://www.w3.org/2000/svg" xmlns:xlink="http://www.w3.org/1999/xlink" viewBox="374.4 375.7 284.2 280.5" enable-background="new 374.4 375.7 284.2 280.5"><defs><clipPath id="h"><use xlink:href="#1o"/></clipPath><clipPath id="i"><use xlink:href="#1p"/></clipPath><clipPath id="X"><use xlink:href="#1e"/></clipPath><clipPath id="j"><use xlink:href="#1q"/></clipPath><clipPath id="l"><use xlink:href="#1s"/></clipPath><clipPath id="m"><use xlink:href="#1t"/></clipPath><clipPath id="k"><use xlink:href="#1r"/></clipPath><clipPath id="g"><use xlink:href="#1n"/></clipPath><clipPath id="Y"><use xlink:href="#1f"/></clipPath><clipPath id="Z"><use xlink:href="#1g"/></clipPath><clipPath id="f"><use xlink:href="#1m"/></clipPath><clipPath id="a"><use xlink:href="#1h"/></clipPath><clipPath id="b"><use xlink:href="#1i"/></clipPath><clipPath id="e"><use xlink:href="#1l"/></clipPath><clipPath id="c"><use xlink:href="#1j"/></clipPath><clipPath id="d"><use xlink:href="#1k"/></clipPath><clipPath id="n"><use xlink:href="#1u"/></clipPath><clipPath id="z"><use xlink:href="#26"/></clipPath><clipPath id="10"><use xlink:href="#27"/></clipPath><clipPath id="p"><use xlink:href="#1w"/></clipPath><clipPath id="11"><use xlink:href="#28"/></clipPath><clipPath id="12"><use xlink:href="#29"/></clipPath><clipPath id="15"><use xlink:href="#2C"/></clipPath><clipPath id="13"><use xlink:href="#2A"/></clipPath><clipPath id="14"><use xlink:href="#2B"/></clipPath><clipPath id="y"><use xlink:href="#25"/></clipPath><clipPath id="q"><use xlink:href="#1x"/></clipPath><clipPath id="r"><use xlink:href="#1y"/></clipPath><clipPath id="x"><use xlink:href="#24"/></clipPath><clipPath id="s"><use xlink:href="#1z"/></clipPath><clipPath id="t"><use xlink:href="#20"/></clipPath><clipPath id="w"><use xlink:href="#23"/></clipPath><clipPath id="u"><use xlink:href="#21"/></clipPath><clipPath id="v"><use xlink:href="#22"/></clipPath><clipPath id="o"><use xlink:href="#1v"/></clipPath><clipPath id="8"><use xlink:href="#1F"/></clipPath><clipPath id="9"><use xlink:href="#1G"/></clipPath><clipPath id="F"><use xlink:href="#1M"/></clipPath><clipPath id="A"><use xlink:href="#1H"/></clipPath><clipPath id="B"><use xlink:href="#1I"/></clipPath><clipPath id="E"><use xlink:href="#1L"/></clipPath><clipPath id="C"><use xlink:href="#1J"/></clipPath><clipPath id="D"><use xlink:href="#1K"/></clipPath><clipPath><use xlink:href="#1E"/></clipPath><clipPath id="0"><use xlink:href="#16"/></clipPath><clipPath id="1"><use xlink:href="#17"/></clipPath><clipPath id="7"><use xlink:href="#1D"/></clipPath><clipPath id="2"><use xlink:href="#18"/></clipPath><clipPath id="3"><use xlink:href="#19"/></clipPath><clipPath id="6"><use xlink:href="#1C"/></clipPath><clipPath id="4"><use xlink:href="#1A"/></clipPath><clipPath id="5"><use xlink:href="#1B"/></clipPath><clipPath id="W"><use xlink:href="#1d"/></clipPath><clipPath id="P"><use xlink:href="#1W"/></clipPath><clipPath id="Q"><use xlink:href="#1X"/></clipPath><clipPath id="O"><use xlink:href="#1V"/></clipPath><clipPath id="S"><use xlink:href="#1Z"/></clipPath><clipPath id="U"><use xlink:href="#1b"/></clipPath><clipPath id="V"><use xlink:href="#1c"/></clipPath><clipPath id="T"><use xlink:href="#1a"/></clipPath><clipPath id="R"><use xlink:href="#1Y"/></clipPath><clipPath id="J"><use xlink:href="#1Q"/></clipPath><clipPath id="I"><use xlink:href="#1P"/></clipPath><clipPath id="N"><use xlink:href="#1U"/></clipPath><clipPath id="H"><use xlink:href="#1O"/></clipPath><clipPath id="G"><use xlink:href="#1N"/></clipPath><clipPath id="L"><use xlink:href="#1S"/></clipPath><clipPath id="M"><use xlink:href="#1T"/></clipPath><clipPath id="K"><use xlink:href="#1R"/></clipPath><ellipse id="1p" cx="516.5" cy="515.9" rx="142.1" ry="140.2"/><ellipse id="1o" cx="516.5" cy="515.9" rx="142.1" ry="140.2"/><ellipse id="1q" cx="516.5" cy="515.9" rx="142.1" ry="140.2"/><ellipse id="1r" cx="516.5" cy="515.9" rx="142.1" ry="140.2"/><ellipse id="1s" cx="516.5" cy="515.9" rx="142.1" ry="140.2"/><ellipse id="1t" cx="516.5" cy="515.9" rx="142.1" ry="140.2"/><ellipse id="1n" cx="516.5" cy="515.9" rx="142.1" ry="140.2"/><ellipse id="1f" cx="516.5" cy="515.9" rx="142.1" ry="140.2"/><ellipse id="1u" cx="516.5" cy="515.9" rx="142.1" ry="140.2"/><ellipse id="1g" cx="516.5" cy="515.9" rx="142.1" ry="140.2"/><ellipse id="1m" cx="516.5" cy="515.9" rx="142.1" ry="140.2"/><ellipse id="1h" cx="516.5" cy="515.9" rx="142.1" ry="140.2"/><ellipse id="1i" cx="516.5" cy="515.9" rx="142.1" ry="140.2"/><ellipse id="1l" cx="516.5" cy="515.9" rx="142.1" ry="140.2"/><ellipse id="1j" cx="516.5" cy="515.9" rx="142.1" ry="140.2"/><ellipse id="1k" cx="516.5" cy="515.9" rx="142.1" ry="140.2"/><ellipse id="22" cx="516.5" cy="515.9" rx="142.1" ry="140.2"/><ellipse id="25" cx="516.5" cy="515.9" rx="142.1" ry="140.2"/><ellipse id="26" cx="516.5" cy="515.9" rx="142.1" ry="140.2"/><ellipse id="1v" cx="516.5" cy="515.9" rx="142.1" ry="140.2"/><ellipse id="27" cx="516.5" cy="515.9" rx="142.1" ry="140.2"/><ellipse id="28" cx="516.5" cy="515.9" rx="142.1" ry="140.2"/><ellipse id="2B" cx="516.5" cy="515.9" rx="142.1" ry="140.2"/><ellipse id="29" cx="516.5" cy="515.9" rx="142.1" ry="140.2"/><ellipse id="2A" cx="516.5" cy="515.9" rx="142.1" ry="140.2"/><ellipse id="24" cx="516.5" cy="515.9" rx="142.1" ry="140.2"/><ellipse id="1w" cx="516.5" cy="515.9" rx="142.1" ry="140.2"/><ellipse id="1x" cx="516.5" cy="515.9" rx="142.1" ry="140.2"/><ellipse id="23" cx="516.5" cy="515.9" rx="142.1" ry="140.2"/><ellipse id="1y" cx="516.5" cy="515.9" rx="142.1" ry="140.2"/><ellipse id="1z" cx="516.5" cy="515.9" rx="142.1" ry="140.2"/><ellipse id="1e" cx="516.5" cy="515.9" rx="142.1" ry="140.2"/><ellipse id="20" cx="516.5" cy="515.9" rx="142.1" ry="140.2"/><ellipse id="21" cx="516.5" cy="515.9" rx="142.1" ry="140.2"/><ellipse id="16" cx="516.5" cy="515.9" rx="142.1" ry="140.2"/><ellipse id="1F" cx="516.5" cy="515.9" rx="142.1" ry="140.2"/><ellipse id="1G" cx="516.5" cy="515.9" rx="142.1" ry="140.2"/><ellipse id="1d" cx="516.5" cy="515.9" rx="142.1" ry="140.2"/><ellipse id="1H" cx="516.5" cy="515.9" rx="142.1" ry="140.2"/><ellipse id="1J" cx="516.5" cy="515.9" rx="142.1" ry="140.2"/><ellipse id="1K" cx="516.5" cy="515.9" rx="142.1" ry="140.2"/><ellipse id="1I" cx="516.5" cy="515.9" rx="142.1" ry="140.2"/><ellipse id="1E" cx="516.5" cy="515.9" rx="142.1" ry="140.2"/><ellipse id="2C" cx="516.5" cy="515.9" rx="142.1" ry="140.2"/><ellipse id="17" cx="516.5" cy="515.9" rx="142.1" ry="140.2"/><ellipse id="1D" cx="516.5" cy="515.9" rx="142.1" ry="140.2"/><ellipse id="18" cx="516.5" cy="515.9" rx="142.1" ry="140.2"/><ellipse id="19" cx="516.5" cy="515.9" rx="142.1" ry="140.2"/><ellipse id="1C" cx="516.5" cy="515.9" rx="142.1" ry="140.2"/><ellipse id="1A" cx="516.5" cy="515.9" rx="142.1" ry="140.2"/><ellipse id="1B" cx="516.5" cy="515.9" rx="142.1" ry="140.2"/><ellipse id="1L" cx="516.5" cy="515.9" rx="142.1" ry="140.2"/><ellipse id="1W" cx="516.5" cy="515.9" rx="142.1" ry="140.2"/><ellipse id="1X" cx="516.5" cy="515.9" rx="142.1" ry="140.2"/><ellipse id="1M" cx="516.5" cy="515.9" rx="142.1" ry="140.2"/><ellipse id="1Y" cx="516.5" cy="515.9" rx="142.1" ry="140.2"/><ellipse id="1Z" cx="516.5" cy="515.9" rx="142.1" ry="140.2"/><ellipse id="1c" cx="516.5" cy="515.9" rx="142.1" ry="140.2"/><ellipse id="1a" cx="516.5" cy="515.9" rx="142.1" ry="140.2"/><ellipse id="1b" cx="516.5" cy="515.9" rx="142.1" ry="140.2"/><ellipse id="1V" cx="516.5" cy="515.9" rx="142.1" ry="140.2"/><ellipse id="1N" cx="516.5" cy="515.9" rx="142.1" ry="140.2"/><ellipse id="1O" cx="516.5" cy="515.9" rx="142.1" ry="140.2"/><ellipse id="1U" cx="516.5" cy="515.9" rx="142.1" ry="140.2"/><ellipse id="1P" cx="516.5" cy="515.9" rx="142.1" ry="140.2"/><ellipse id="1Q" cx="516.5" cy="515.9" rx="142.1" ry="140.2"/><ellipse id="1T" cx="516.5" cy="515.9" rx="142.1" ry="140.2"/><ellipse id="1R" cx="516.5" cy="515.9" rx="142.1" ry="140.2"/><ellipse id="1S" cx="516.5" cy="515.9" rx="142.1" ry="140.2"/></defs><path clip-path="url(#0)" fill="#894920" d="m375.8 515.9c0-76.7 63-138.9 140.8-138.9 77.7 0 140.8 62.2 140.8 138.9 0 76.7-63 138.9-140.8 138.9-77.8 0-140.8-62.1-140.8-138.9"/><path clip-path="url(#1)" fill="#2f2113" d="m433.1 656.6l148.9 1.6-6.2-51.7-69.4 24.7z"/><path clip-path="url(#2)" fill="#473321" d="m646.1 592l-36.5 21.2 16.2-24.4z"/><path clip-path="url(#3)" fill="#8c5d3a" d="m580.1 658.1l31.2-48.5 34.8-17.6z"/><path clip-path="url(#4)" fill="#624d36" d="m670.6 522.4l-24.5 69.6-22-2.6z"/><path clip-path="url(#5)" fill="#46442d" d="M421.3 520.5 435 386 574.7 440z"/><path clip-path="url(#6)" fill="#6b6331" d="m353.3 516.1l68 4.4 13.7-134.5z"/><path clip-path="url(#8)" fill="#292f32" d="m435 386l179.9 12.3-40.2 41.7z"/><g clip-path="url(#A)"><path fill="#0b132d" d="m623.7 502.9c.9 0 2-1.3.7-1.3-.9 0-2 1.3-.7 1.3"/></g><path clip-path="url(#B)" fill="#0d1321" d="m574.7 440l40.2-41.7 54.1 123.8z"/><path clip-path="url(#C)" fill="#db6b27" d="m422 520.2l13.8-134.5 139.6 53.9z"/><path clip-path="url(#D)" fill="#984221" d="m353.3 516.1l68.7 4.1 13.8-134.5z"/><path clip-path="url(#F)" fill="#5e3419" d="m433.1 656.6l-11.1-136.4 153.3 87.6-68.9 23.4z"/><path clip-path="url(#H)" fill="#894920" d="m575.3 607.8l-71.6-40.9-81.7-46.7 58.3-30.6 95.1-50z"/><path clip-path="url(#I)" fill="#9d5324" d="m433.1 656.6l-79.8-140.5 28.3 1.7 40.4 2.4z"/><path clip-path="url(#J)" fill="#d37e40" d="m435.8 385.7l85.7-17.9 94.2 30.1-40.3 41.7z"/><path clip-path="url(#L)" fill="#603e1f" d="m582 658.2l-6.7-50.4 94.5-86-43.7 67.8-13.1 20.5z"/><g clip-path="url(#M)"><path fill="#0b132d" d="m624.4 502.5c.9 0 2-1.3.7-1.3-.8 0-2 1.3-.7 1.3"/></g><path clip-path="url(#N)" fill="#39281b" d="m575.3 607.8l.1-168.2 94.4 82.2z"/><path clip-path="url(#O)" fill="#e78439" d="m575.4 439.6l40.3-41.7 54.1 123.9z"/><path clip-path="url(#P)" fill="#442f24" d="m581.8 658.6l-77.5 12 2.1-39.4z"/><path clip-path="url(#Q)" fill="#613815" d="m504.3 670.6l-71.2-14 73.3-25.4z"/><path clip-path="url(#R)" fill="#f0994d" d="m521.5 367.8l53.9 71.8 40.4-41.7z"/><path clip-path="url(#S)" fill="#482c1d" d="m575.3 607.8l-16.6-75.6 12.9-71.5 3.8-21.1z"/><path clip-path="url(#T)" fill="#d36027" d="m428.8 610.8l35.6-20.9 39.3-23-81.7-46.7z"/><path clip-path="url(#U)" fill="#aa5125" d="m433.1 656.6l-4.3-45.8 35.6-20.9z"/><path clip-path="url(#V)" fill="#7f431d" d="m464.4 589.9l42 41.3-73.3 25.4z"/><path clip-path="url(#W)" fill="#8b401e" d="m464.4 589.9l-7.9-7.4-27.7 28.3z"/><path clip-path="url(#X)" fill="#6e3b17" d="m456.5 582.5l-34.5-62.3 6.8 90.6z"/><path clip-path="url(#Y)" fill="#9a5529" d="m456.5 582.5l18.8-31.8-10.9 39.2z"/><path clip-path="url(#Z)" fill="#974d22" d="m456.5 582.5l18.8-31.8-41.3-8.5z"/><path clip-path="url(#a)" fill="#904b21" d="m428.8 610.8l-20.4-22.9 13.6-67.7z"/><path clip-path="url(#c)" fill="#624d36" d="m428.8 610.8l4.3 45.8-22.9-74.9z"/><path clip-path="url(#d)" fill="#39281b" d="m433.1 656.6l-53.7-71.2 30.8-3.7z"/><path clip-path="url(#e)" fill="#db6b27" d="m353.3 516.1l26.1 69.3 10.1 1.2z"/><path clip-path="url(#f)" fill="#703616" d="m410.2 581.7l-20.7 4.9-7.9-68.8z"/><path clip-path="url(#g)" fill="#7d411e" d="m381.6 517.8l-28.3-1.7 36.2 70.5z"/><path clip-path="url(#h)" fill="#82331b" d="m353.3 516.1l29.5-73.1 12.9 22.9z"/><path clip-path="url(#i)" fill="#652c13" d="m435 386.6l-52.7 56.9 13.4 22.4z"/><path clip-path="url(#j)" fill="#452f1e" d="m670.6 522.4l-31 27.6 15.6-39.7z"/><path clip-path="url(#k)" fill="#654128" d="m626.1 589.6l13.5-39.6 31-27.6z"/><path clip-path="url(#l)" fill="#493317" d="m626.1 589.6l-13.6-16.1 27.1-23.5z"/><path clip-path="url(#n)" fill="#a76533" d="m655.2 510.3l4.4-10.6 11 22.7z"/><path clip-path="url(#o)" fill="#6c451b" d="m659.6 499.7l-3.1-30.5 14.1 32.1z"/><path clip-path="url(#p)" fill="#ec9c54" d="m615.8 397.9l40.7 71.3-11.1-2.1z"/><path clip-path="url(#q)" fill="#ea8432" d="m659.6 499.7l-31.8-13.6 28.7-16.9z"/><path clip-path="url(#r)" fill="#614328" d="m645.4 467.1l-17.6 19 28.7-16.9z"/><path clip-path="url(#s)" fill="#c07f48" d="m639.6 550l-11.8-63.9 27.4 24.2z"/><path clip-path="url(#t)" fill="#80491e" d="m655.2 510.3l4.4-10.6-31.8-13.6z"/><g clip-path="url(#u)"/><path clip-path="url(#v)" fill="#b97036" d="m575.4 439.6l-41.7 21.9 37.9-.8z"/><path clip-path="url(#w)" fill="#d47c28" d="m533.7 461.5l-37.3-52.5 79 30.6z"/><path clip-path="url(#x)" fill="#f79745" d="m435.8 385.7l68 19.1 71.6 34.8z"/><path clip-path="url(#y)" fill="#a94f25" d="m381.6 517.8l45-41.3-4.6 43.7z"/><path clip-path="url(#z)" fill="#512d13" d="m395.7 465.9l-14.1 51.9-28.3-1.7z"/><path clip-path="url(#10)" fill="#652c13" d="m422 520.2l-5-63.1 19.1-72.1z"/><path clip-path="url(#11)" fill="#d35827" d="m417 457.1l9.6 19.4-30.9-10.6z"/><path clip-path="url(#12)" fill="#b97036" d="m521.5 367.8l-17.7 37 71.6 34.8z"/><path clip-path="url(#13)" fill="#9a5529" d="m558.7 532.2l-136.7-12 81.7 46.7z"/><path clip-path="url(#14)" fill="#db6b27" d="m558.7 532.2l12.9-71.5-37.9.8z"/><path clip-path="url(#15)" fill="#984221" d="M480.3 489.6 436.1 385 422 520.2z"/></svg>