<svg xmlns="http://www.w3.org/2000/svg" xmlns:xlink="http://www.w3.org/1999/xlink" viewBox="299.8 299.6 433.2 433.2" enable-background="new 299.8 299.6 433.2 433.2"><defs><circle id="1N" cx="516.4" cy="516.2" r="216.6"/><circle id="12" cx="516.4" cy="516.2" r="216.6"/><circle id="1M" cx="516.4" cy="516.2" r="216.6"/><circle id="1K" cx="516.4" cy="516.2" r="216.6"/><circle id="1J" cx="516.4" cy="516.2" r="216.6"/><circle id="1L" cx="516.4" cy="516.2" r="216.6"/><circle id="1O" cx="516.4" cy="516.2" r="216.6"/><circle id="1V" cx="516.4" cy="516.2" r="216.6"/><circle id="1U" cx="516.4" cy="516.2" r="216.6"/><circle id="1P" cx="516.4" cy="516.2" r="216.6"/><circle id="1T" cx="516.4" cy="516.2" r="216.6"/><circle id="1R" cx="516.4" cy="516.2" r="216.6"/><circle id="1Q" cx="516.4" cy="516.2" r="216.6"/><circle id="1S" cx="516.4" cy="516.2" r="216.6"/><circle id="1I" cx="516.4" cy="516.2" r="216.6"/><circle id="18" cx="516.4" cy="516.2" r="216.6"/><circle id="17" cx="516.4" cy="516.2" r="216.6"/><circle id="1H" cx="516.4" cy="516.2" r="216.6"/><circle id="16" cx="516.4" cy="516.2" r="216.6"/><circle id="14" cx="516.4" cy="516.2" r="216.6"/><circle id="13" cx="516.4" cy="516.2" r="216.6"/><circle id="15" cx="516.4" cy="516.2" r="216.6"/><circle id="19" cx="516.4" cy="516.2" r="216.6"/><circle id="1G" cx="516.4" cy="516.2" r="216.6"/><circle id="1F" cx="516.4" cy="516.2" r="216.6"/><circle id="1A" cx="516.4" cy="516.2" r="216.6"/><circle id="1E" cx="516.4" cy="516.2" r="216.6"/><circle id="1C" cx="516.4" cy="516.2" r="216.6"/><circle id="1B" cx="516.4" cy="516.2" r="216.6"/><circle id="1D" cx="516.4" cy="516.2" r="216.6"/><circle id="1W" cx="516.4" cy="516.2" r="216.6"/><circle id="1s" cx="516.4" cy="516.2" r="216.6"/><circle id="1X" cx="516.4" cy="516.2" r="216.6"/><circle id="1r" cx="516.4" cy="516.2" r="216.6"/><circle id="1p" cx="516.4" cy="516.2" r="216.6"/><circle id="1o" cx="516.4" cy="516.2" r="216.6"/><circle id="1q" cx="516.4" cy="516.2" r="216.6"/><circle id="1t" cx="516.4" cy="516.2" r="216.6"/><circle id="20" cx="516.4" cy="516.2" r="216.6"/><circle id="1z" cx="516.4" cy="516.2" r="216.6"/><circle id="1u" cx="516.4" cy="516.2" r="216.6"/><circle id="1y" cx="516.4" cy="516.2" r="216.6"/><circle id="1w" cx="516.4" cy="516.2" r="216.6"/><circle id="1v" cx="516.4" cy="516.2" r="216.6"/><circle id="1x" cx="516.4" cy="516.2" r="216.6"/><circle id="1n" cx="516.4" cy="516.2" r="216.6"/><circle id="1d" cx="516.4" cy="516.2" r="216.6"/><circle id="1c" cx="516.4" cy="516.2" r="216.6"/><circle id="1m" cx="516.4" cy="516.2" r="216.6"/><circle id="1b" cx="516.4" cy="516.2" r="216.6"/><circle id="1Z" cx="516.4" cy="516.2" r="216.6"/><circle id="1Y" cx="516.4" cy="516.2" r="216.6"/><circle id="1a" cx="516.4" cy="516.2" r="216.6"/><circle id="1e" cx="516.4" cy="516.2" r="216.6"/><circle id="1l" cx="516.4" cy="516.2" r="216.6"/><circle id="1k" cx="516.4" cy="516.2" r="216.6"/><circle id="1f" cx="516.4" cy="516.2" r="216.6"/><circle id="1j" cx="516.4" cy="516.2" r="216.6"/><circle id="1h" cx="516.4" cy="516.2" r="216.6"/><circle id="1g" cx="516.4" cy="516.2" r="216.6"/><circle id="1i" cx="516.4" cy="516.2" r="216.6"/><circle id="11" cx="516.4" cy="516.2" r="216.6"/><circle id="21" cx="516.4" cy="516.2" r="216.6"/><clipPath id="L"><use xlink:href="#1M"/></clipPath><clipPath id="K"><use xlink:href="#1L"/></clipPath><clipPath id="J"><use xlink:href="#1K"/></clipPath><clipPath id="I"><use xlink:href="#1J"/></clipPath><clipPath id="H"><use xlink:href="#1I"/></clipPath><clipPath id="M"><use xlink:href="#1N"/></clipPath><clipPath id="N"><use xlink:href="#1O"/></clipPath><clipPath id="T"><use xlink:href="#1U"/></clipPath><clipPath id="S"><use xlink:href="#1T"/></clipPath><clipPath id="G"><use xlink:href="#1H"/></clipPath><clipPath id="R"><use xlink:href="#1S"/></clipPath><clipPath id="P"><use xlink:href="#1Q"/></clipPath><clipPath id="O"><use xlink:href="#1P"/></clipPath><clipPath id="Q"><use xlink:href="#1R"/></clipPath><clipPath id="F"><use xlink:href="#1G"/></clipPath><clipPath id="6"><use xlink:href="#17"/></clipPath><clipPath id="5"><use xlink:href="#16"/></clipPath><clipPath id="z"><use xlink:href="#20"/></clipPath><clipPath id="4"><use xlink:href="#15"/></clipPath><clipPath id="2"><use xlink:href="#13"/></clipPath><clipPath id="1"><use xlink:href="#12"/></clipPath><clipPath id="3"><use xlink:href="#14"/></clipPath><clipPath id="7"><use xlink:href="#18"/></clipPath><clipPath id="E"><use xlink:href="#1F"/></clipPath><clipPath id="D"><use xlink:href="#1E"/></clipPath><clipPath id="8"><use xlink:href="#19"/></clipPath><clipPath id="C"><use xlink:href="#1D"/></clipPath><clipPath id="A"><use xlink:href="#1B"/></clipPath><clipPath id="9"><use xlink:href="#1A"/></clipPath><clipPath id="B"><use xlink:href="#1C"/></clipPath><clipPath id="U"><use xlink:href="#1V"/></clipPath><clipPath id="s"><use xlink:href="#1t"/></clipPath><clipPath id="r"><use xlink:href="#1s"/></clipPath><clipPath id="V"><use xlink:href="#1W"/></clipPath><clipPath id="q"><use xlink:href="#1r"/></clipPath><clipPath id="o"><use xlink:href="#1p"/></clipPath><clipPath id="n"><use xlink:href="#1o"/></clipPath><clipPath id="p"><use xlink:href="#1q"/></clipPath><clipPath id="t"><use xlink:href="#1u"/></clipPath><clipPath id="10"><use xlink:href="#21"/></clipPath><clipPath id="0"><use xlink:href="#11"/></clipPath><clipPath id="u"><use xlink:href="#1v"/></clipPath><clipPath id="y"><use xlink:href="#1z"/></clipPath><clipPath id="w"><use xlink:href="#1x"/></clipPath><clipPath id="v"><use xlink:href="#1w"/></clipPath><clipPath id="x"><use xlink:href="#1y"/></clipPath><clipPath id="m"><use xlink:href="#1n"/></clipPath><clipPath id="b"><use xlink:href="#1c"/></clipPath><clipPath id="a"><use xlink:href="#1b"/></clipPath><clipPath id="l"><use xlink:href="#1m"/></clipPath><clipPath id="Z"><use xlink:href="#1a"/></clipPath><clipPath id="X"><use xlink:href="#1Y"/></clipPath><clipPath id="W"><use xlink:href="#1X"/></clipPath><clipPath id="Y"><use xlink:href="#1Z"/></clipPath><clipPath id="c"><use xlink:href="#1d"/></clipPath><clipPath id="k"><use xlink:href="#1l"/></clipPath><clipPath id="j"><use xlink:href="#1k"/></clipPath><clipPath id="d"><use xlink:href="#1e"/></clipPath><clipPath id="i"><use xlink:href="#1j"/></clipPath><clipPath id="h"><use xlink:href="#1i"/></clipPath><clipPath id="e"><use xlink:href="#1f"/></clipPath><clipPath id="g"><use xlink:href="#1h"/></clipPath><clipPath id="f"><use xlink:href="#1g"/></clipPath></defs><circle clip-path="url(#0)" fill="#536cb2" cx="516.4" cy="516.2" r="216.6"/><path clip-path="url(#1)" fill="#303c76" d="m548 754.1l177.4-132.2-55.6-58-68.3 108.7z"/><path clip-path="url(#2)" fill="#2a3367" d="m725.4 621.9l-55-54.1 29.3-188.5 22.4 121.7z"/><path clip-path="url(#3)" fill="#292f32" d="m300.3 430.9l220.4-149.1-7.8 86.4z"/><path clip-path="url(#4)" fill="#6888c5" d="m410.5 602.8l-109.7-173 212.6-62.7z"/><path clip-path="url(#5)" fill="#4a63ad" d="m326.8 660.4l83.7-57.6-109.7-173z"/><path clip-path="url(#6)" fill="#506db3" d="m402.8 599.9l267.6-32.1-122.9 187.4z"/><path clip-path="url(#7)" fill="#536cb2" d="m670.4 567.8l-259.9 35 36.6-90.8 37-80.6 29.3-64.3z"/><path clip-path="url(#8)" fill="#5876b9" d="m548 754.1l-221.2-93.7 83.7-57.6z"/><path clip-path="url(#9)" fill="#348" d="m547.5 755.2l-125.5-35.8 43.4-44.5z"/><path clip-path="url(#A)" fill="#506db3" d="m300.8 429.8l82.9-99.3 137.5-49.8-7.8 86.4z"/><path clip-path="url(#B)" fill="#36468a" d="m670.4 567.8l-53.4-63.1-103.6-137.6 186.3 12.2-3.5 60.9z"/><path clip-path="url(#C)" fill="#5f72b5" d="m617 504.7l.7-129.8-113-11.7z"/><path clip-path="url(#D)" fill="#485ba8" d="m513.4 367.1l3.9-88 182.4 100.2-82-4.4z"/><path clip-path="url(#E)" fill="#242e62" d="m725.4 621.9l-78.6 85.5-45.3-34.8z"/><path clip-path="url(#F)" fill="#2b3671" d="m646.8 707.4l-99.7 47.8 54.4-82.6z"/><path clip-path="url(#G)" fill="#576cb2" d="m378.8 331.3l134.6 35.8 10.3-89z"/><path clip-path="url(#H)" fill="#4f6ab1" d="m503.1 704.7l45.9-120.7-50.7 4.2-88.1 14.8z"/><path clip-path="url(#I)" fill="#4963ac" d="m547.1 755.2l-44-50.5 21.3-57.3z"/><path clip-path="url(#J)" fill="#3d52a3" d="m524.4 647.4l77.1 25.2-54.4 82.6z"/><path clip-path="url(#K)" fill="#515ca8" d="m524.4 647.4l-15.6-1.7-5.7 59z"/><path clip-path="url(#L)" fill="#5f72b5" d="m508.8 645.7l-98.6-42.7 92.9 101.7z"/><path clip-path="url(#M)" fill="#5873b7" d="m508.8 645.7l-10.5-57.5 26.1 59.2z"/><path clip-path="url(#N)" fill="#4c5da9" d="m508.8 645.7l-10.5-57.5-53.3 29.9z"/><path clip-path="url(#O)" fill="#4d66ae" d="m503.1 704.7l-48.8-17.8-44.1-83.9z"/><path clip-path="url(#P)" fill="#303c76" d="m503.1 704.7l44 50.5-92.8-68.3z"/><path clip-path="url(#Q)" fill="#4153a3" d="m325.8 661.3l96.2 58.1 12.9-7.7z"/><path clip-path="url(#R)" fill="#5f72b5" d="m454.3 686.9l-19.4 24.8-73.3-74.7z"/><path clip-path="url(#S)" fill="#4660ab" d="m361.6 637l-34.8 24.9 108.1 49.8z"/><path clip-path="url(#T)" fill="#506db3" d="m325.8 661.3l-33-114.9 36.5 15.5z"/><path clip-path="url(#U)" fill="#44538c" d="m300.8 431.6l-8.1 115.8 36.6 14.5z"/><path clip-path="url(#V)" fill="#2a3367" d="m699.7 379.3l-9.6 60.6-18-61.1z"/><path clip-path="url(#W)" fill="#28336b" d="m699.7 379.3l46.5 120.3-35.5-.9z"/><path clip-path="url(#X)" fill="#364588" d="m710.7 498.7l-20.6-58.8 9.6-60.6z"/><path clip-path="url(#Y)" fill="#2a3367" d="m737.9 484.6l-21.6 51.4-5.6-37.3z"/><path clip-path="url(#Z)" fill="#455aa7" d="m710.7 498.7l-25.7-3 5.1-55.8z"/><path clip-path="url(#a)" fill="#2d3368" d="m699.7 379.3l-18.1-25.2-14.5 10.3z"/><path clip-path="url(#b)" fill="#394999" d="m672.1 378.8l-5-14.4 32.6 14.9z"/><path clip-path="url(#c)" fill="#1a2048" d="m725.4 621.9l-9.1-85.9 21.6-51.4z"/><path clip-path="url(#d)" fill="#3e51a2" d="m667.1 364.4l-32-35.8 46.5 25.5z"/><path clip-path="url(#e)" fill="#2b326a" d="m515.5 278.5l119.6 50.1-14.8 7.5z"/><path clip-path="url(#f)" fill="#394999" d="m667.1 364.4l-49.4 10.5 17.4-46.3z"/><path clip-path="url(#g)" fill="#5f72b5" d="m620.3 336.1l-2.6 38.8 17.4-46.3z"/><path clip-path="url(#h)" fill="#5167af" d="m690.1 439.9l-72.4-65 54.4 3.9z"/><path clip-path="url(#i)" fill="#515ca8" d="m672.1 378.8l-5-14.4-49.4 10.5z"/><path clip-path="url(#j)" fill="#73b3d2" d="m513.4 367.1l-29.3 64.3 44.6-35.7z"/><path clip-path="url(#k)" fill="#5873b7" d="m484.1 431.4l-87.2-26.5 116.5-37.8z"/><path clip-path="url(#l)" fill="#73b3d2" d="m300.8 429.8l96.9-39.2 115.7-23.5-116.5 37.8z"/><path clip-path="url(#m)" fill="#515ca8" d="m361.6 637l13.4-90.5 35.8 56.8z"/><path clip-path="url(#n)" fill="#6479ba" d="m329.3 561.9l33.1 75.7-36.1 24z"/><path clip-path="url(#o)" fill="#6081c0" d="m411.2 603.6l-60.8-65.6-49.9-109.2z"/><path clip-path="url(#p)" fill="#5572b6" d="m350 537.6l-20.7 24.3 43.5.3-22.4-24.2"/><path clip-path="url(#q)" fill="#515ca8" d="m383.7 330.5l14 60.1 115.7-23.5z"/><path clip-path="url(#r)" fill="#5f79bb" d="m578.3 493.2l-80 95 172.1-20.4z"/><path clip-path="url(#s)" fill="#4f64ad" d="m528.7 395.7l-44.6 35.7 94.2 61.8z"/><path clip-path="url(#t)" fill="#5773b7" d="m447.1 512l-146.6-83.2 110 174z"/><path clip-path="url(#u)" fill="#5f79bb" d="m513.4 367.1l103.6 137.6-38.7-11.5-49.6-97.5z"/><path clip-path="url(#v)" fill="#415aa7" d="m617 504.7l73.1-64.8-72.4-65z"/><path clip-path="url(#w)" fill="#4f64ad" d="m447.1 512l37-80.6-87.2-26.5z"/><path clip-path="url(#x)" fill="#303c76" d="m447.1 512l51.2 76.2-88.3 15.2z"/><path clip-path="url(#y)" fill="#515ca8" d="m447.1 512l37-80.6 94.2 61.8z"/><path clip-path="url(#z)" fill="#73b3d2" d="m447.1 512l51.2 76.2-11.9-43.8z"/><path clip-path="url(#10)" fill="#515ca8" d="m486.4 544.4l91.9-51.2-80 95z"/></svg>