<svg xmlns="http://www.w3.org/2000/svg" xmlns:xlink="http://www.w3.org/1999/xlink" height="2007.72" viewBox="0 0 2022.001 2007.725" enable-background="new 0 0 2022.001 2007.725"><defs><path id="1" d="m1716.25 1711.87c-390.52 391.6-1023.7 391.6-1414.23-.018-390.52-391.61-390.52-1026.52 0-1418.15 390.53-391.6 1023.68-391.6 1414.23.049 390.49 391.56 390.53 1026.5 0 1418.12"/><clipPath id="0"><use xlink:href="#1"/></clipPath></defs><use xlink:href="#1" fill="#f5b81c"/><path clip-path="url(#0)" fill="#904920" d="m1784.24 1804.48l208.47-472.08-79.65-111.57z"/><path clip-path="url(#0)" fill="#fbce2c" d="m1367.21-22.314l-206.67 341.56-607.51 301.5-291.87-394.95z"/><path clip-path="url(#0)" fill="#f3981f" d="m1462.58 1446.02l-736.54 603.18-416.1-953.73z"/><path clip-path="url(#0)" fill="#a34f24" d="m1647.57 1656.91l-184.99-210.89-736.54 603.18z"/><path clip-path="url(#0)" fill="#e27e26" d="m1464.05 1456.1l-319.42-1196.18 251.33 128.62 198.67 99.97 487.2 248.9z"/><path clip-path="url(#0)" fill="#eca821" d="m1144.63 259.92l317.95 1186.1-1152.64-350.55z"/><path clip-path="url(#0)" fill="#f09121" d="m2068.21 729.09l-716.52-753.25-207.06 284.08 242.11 147.21 207.89 81.38z"/><path clip-path="url(#0)" fill="#dc7427" d="m2078.24 729.09l-136.55 561.49-294.12 366.33-184.99-210.89z"/><path clip-path="url(#0)" fill="#a34e24" d="m726.04 2049.2l-508.11-332.09-311.65-612.04 403.66-9.6z"/><path clip-path="url(#0)" fill="#fcdb43" d="m1144.63 259.92l-831.82 841.89-82.56-301.24-45.75-155.57 76.66-419.2 278.18 12.01z"/><path clip-path="url(#0)" fill="#fab719" d="m312.81 1101.81l-406.53 3.26 354.88-879.27-73.89 419.35 47.94 152.44z"/><path clip-path="url(#0)" fill="#d95b26" d="m1365.24-24.753l438.56 320.15-209.17 193.11z"/><path clip-path="url(#0)" fill="#e37d25" d="m1803.8 295.4l280.1 447.57-489.27-254.46z"/><path clip-path="url(#0)" fill="#ea7d24" d="m217.93 1717.11l97.19-615.65-409.68 3.53z"/><path clip-path="url(#0)" fill="#ffc541" d="m1144.63 259.92l-288.9 462.16-67.68-209.91z"/><path clip-path="url(#0)" fill="#eca92a" d="m1876.32 963.76l-277.03-68.55-110.81 8.48-25.9 542.33z"/><path clip-path="url(#0)" fill="#e06926" d="m2083.73 732.54l-207.41 231.22-277.03-68.55z"/><path clip-path="url(#0)" fill="#d96d27" d="m1876.32 963.76l-52.9 235.95-360.84 246.31z"/><path clip-path="url(#0)" fill="#974021" d="m2086.91 727.52l-94.2 604.88-169.29-132.69z"/><path clip-path="url(#0)" fill="#a34f24" d="m1647.57 1656.91l135.58 151.85 158.54-518.18z"/><path clip-path="url(#0)" fill="#9b4722" d="m1784.24 1804.48l-514.47 219.7 50.15-177.61z"/><path clip-path="url(#0)" fill="#b45026" d="m678.3 2052.91l595.99-28.71 45.63-177.63z"/><path clip-path="url(#0)" fill="#fed730" d="m261.16 225.8l278.18 12.01-120.44 54.45-167.1 46.5z"/><path clip-path="url(#0)" fill="#fdb61a" d="M261.16 225.8 719.83-9.289 885.21 128.65z"/><path clip-path="url(#0)" fill="#fcd031" d="M885.21 128.65 539.34 237.81 261.16 225.8z"/><path clip-path="url(#0)" fill="#f9bf50" d="m261.16 225.8l-111.01 95.42 45.82 62.49z"/><path clip-path="url(#0)" fill="#f7c22e" d="M1378.4-22.07 885.21 128.65 719.83-9.289z"/><path clip-path="url(#0)" fill="#efc276" d="m251.8 338.76l-191.81 211.96 90.17-229.5z"/><path clip-path="url(#0)" fill="#fff3b3" d="m-94.56 1104.99l154.55-554.27 43.515 64.74z"/><path clip-path="url(#0)" fill="#fdda32" d="m251.8 338.76l34.69 159.01-226.5 52.95z"/><path clip-path="url(#0)" fill="#f5a31d" d="m312.81 1101.81l309.59 89.64-168.18-160.24z"/><path clip-path="url(#0)" fill="#ee8e22" d="m622.4 1191.45l-83.34 430.1-226.25-519.74z"/><path clip-path="url(#0)" fill="#ee9c21" d="m726.04 2049.2l-238.5-429.05-174.73-518.34z"/><path clip-path="url(#0)" fill="#e38b25" d="m1647.57 1656.91l-426.36-14.2 241.37-196.69z"/><path clip-path="url(#0)" fill="#e07926" d="m1462.58 1446.02l-142.66 400.55-598.4 204.34z"/><path clip-path="url(#0)" fill="#f9c434" d="m217.93 1717.11l269.61-96.96-174.73-518.34z"/><path clip-path="url(#0)" fill="#e98b24" d="m1025.17 1312.99l-303.65 737.92 741.06-604.89z"/><path clip-path="url(#0)" fill="#feece0" d="m187.27 645.15l-147.22-34.22 22.18-63.87 116.03-53.39 67.96 46.57z"/><path clip-path="url(#0)" fill="#fdd323" d="m246.22 540.24l-67.96-46.57 108.23 4.1 128.12-18.08z"/><path clip-path="url(#0)" fill="#fdd97c" d="m631.66 436.02l-98.22 26.44 48.79 116.7 86.02-131.71z"/><path clip-path="url(#0)" fill="#904920" d="m553.03 620.75l-23.58 157.64 178.5 86.67z"/><path clip-path="url(#0)" fill="#fad03a" d="m529.45 778.39l-78.34 77.42 256.84 9.25z"/><path clip-path="url(#0)" fill="#fcd71f" d="m788.05 512.17l67.68 209.91-147.78 142.98-154.92-244.31 29.2-41.59 86.02-131.71z"/><path clip-path="url(#0)" fill="#fee233" d="m414.61 479.69l-227.34 165.46 58.95-104.91z"/><path clip-path="url(#0)" fill="#f4b31b" d="m616.91 1189.9l-162.69-158.69-3.11-175.4 256.84 9.25 73.95 14.71-77.94 138.71z"/><path clip-path="url(#0)" fill="#f7c529" d="m781.9 879.77l73.83-157.69 146.25 77.77z"/><path clip-path="url(#0)" fill="#ea9e22" d="m1462.58 1446.02l-278.8-460.85 150.83-226.92 166 87.73z"/><path clip-path="url(#0)" fill="#faca27" d="m1001.98 799.85l-298.02 218.63 77.94-138.71z"/><path clip-path="url(#0)" fill="#fccf1e" d="m668.25 447.45l476.38-187.53-356.58 252.25z"/><path clip-path="url(#0)" fill="#fbcc1e" d="m631.66 436.02l-92.32-198.21 605.29 22.11-476.38 187.53z"/><path clip-path="url(#0)" fill="#fccb28" d="m414.61 479.69l4.29-187.43-167.1 46.5 34.69 159.01z"/><path clip-path="url(#0)" fill="#efa120" d="m1223.93 924.77l375.36-29.56-212.55-488.08z"/><path clip-path="url(#0)" fill="#f5b81c" d="m1386.74 407.13l-531.01 314.95 146.25 77.77 221.95 124.92z"/><path clip-path="url(#0)" fill="#f3ba27" d="m1158.08 777.92l65.85 146.85-40.15 60.4-181.8-185.32z"/><path clip-path="url(#0)" fill="#f0b11d" d="m1223.93 924.77l-65.85-146.85 228.66-370.79z"/><path clip-path="url(#0)" fill="#9e4422" d="m1599.29 895.21l-4.66-406.7 226.63 115.12z"/><path clip-path="url(#0)" fill="#efa520" d="m1183.78 985.17l-158.61 327.82-23.19-513.14z"/><path clip-path="url(#0)" fill="#f5b71c" d="m703.96 1018.48l-87.05 171.42 408.26 123.09z"/><path clip-path="url(#0)" fill="#fcd679" d="m451.11 855.81l-138.3 246 141.41-70.6z"/><path clip-path="url(#0)" fill="#db9529" d="M529.45 778.39 187.27 645.15 451.11 855.81z"/><path clip-path="url(#0)" fill="#fcd22a" d="m187.27 645.15l365.76-24.4 29.2-41.59-48.79-116.7-118.83 17.23z"/><path clip-path="url(#0)" fill="#e58124" d="m539.06 1621.55l486.11-308.56-302.75 759.86z"/></svg>